{"scene":0,"asset":{"generator":"ImageToStl.com","version":"2.0"},"scenes":[{"name":"Scene","nodes":[0]}],"nodes":[{"name":"Node0","children":[1,2,3,4,5,6,7,8,9,10,11,12,13,14,15,16,17,18,19,20,21,22,23,24,25,26,27,28,29,30,31,32,33]},{"name":"Node1","mesh":0},{"name":"Node2","mesh":1},{"name":"Node3","mesh":2},{"name":"Node4","mesh":3},{"name":"Node5","mesh":4},{"name":"Node6","mesh":5},{"name":"Node7","mesh":6},{"name":"Node8","mesh":7},{"name":"Node9","mesh":8},{"name":"Node10","mesh":9},{"name":"Node11","mesh":10},{"name":"Node12","mesh":11},{"name":"Node13","mesh":12},{"name":"Node14","mesh":13},{"name":"Node15","mesh":14},{"name":"Node16","mesh":15},{"name":"Node17","mesh":16},{"name":"Node18","mesh":17},{"name":"Node19","mesh":18},{"name":"Node20","mesh":19},{"name":"Node21","mesh":20},{"name":"Node22","mesh":21},{"name":"Node23","mesh":22},{"name":"Node24","mesh":23},{"name":"Node25","mesh":24},{"name":"Node26","mesh":25},{"name":"Node27","mesh":26},{"name":"Node28","mesh":27},{"name":"Node29","mesh":28},{"name":"Node30","mesh":29},{"name":"Node31","mesh":30},{"name":"Node32","mesh":31},{"name":"Node33","mesh":32}],"materials":[{"name":"Light_Wood","pbrMetallicRoughness":{"baseColorFactor":[0.937255,0.764706,0.501961,1.0],"metallicFactor":0.33,"roughnessFactor":1.0},"doubleSided":true},{"name":"Wood","pbrMetallicRoughness":{"baseColorFactor":[0.666667,0.545098,0.356863,1.0],"metallicFactor":0.33,"roughnessFactor":1.0},"doubleSided":true}],"meshes":[{"name":"Mesh0","primitives":[{"indices":3,"material":0,"attributes":{"POSITION":0,"NORMAL":1,"TEXCOORD_0":2}}]},{"name":"Mesh0","primitives":[{"indices":7,"material":1,"attributes":{"POSITION":4,"NORMAL":5,"TEXCOORD_0":6}}]},{"name":"Mesh0","primitives":[{"indices":11,"material":1,"attributes":{"POSITION":8,"NORMAL":9,"TEXCOORD_0":10}}]},{"name":"Mesh0","primitives":[{"indices":15,"material":1,"attributes":{"POSITION":12,"NORMAL":13,"TEXCOORD_0":14}}]},{"name":"Mesh0","primitives":[{"indices":19,"material":1,"attributes":{"POSITION":16,"NORMAL":17,"TEXCOORD_0":18}}]},{"name":"Mesh0","primitives":[{"indices":23,"material":1,"attributes":{"POSITION":20,"NORMAL":21,"TEXCOORD_0":22}}]},{"name":"Mesh0","primitives":[{"indices":27,"material":1,"attributes":{"POSITION":24,"NORMAL":25,"TEXCOORD_0":26}}]},{"name":"Mesh0","primitives":[{"indices":31,"material":1,"attributes":{"POSITION":28,"NORMAL":29,"TEXCOORD_0":30}}]},{"name":"Mesh0","primitives":[{"indices":35,"material":1,"attributes":{"POSITION":32,"NORMAL":33,"TEXCOORD_0":34}}]},{"name":"Mesh0","primitives":[{"indices":39,"material":1,"attributes":{"POSITION":36,"NORMAL":37,"TEXCOORD_0":38}}]},{"name":"Mesh0","primitives":[{"indices":43,"material":1,"attributes":{"POSITION":40,"NORMAL":41,"TEXCOORD_0":42}}]},{"name":"Mesh0","primitives":[{"indices":47,"material":1,"attributes":{"POSITION":44,"NORMAL":45,"TEXCOORD_0":46}}]},{"name":"Mesh0","primitives":[{"indices":51,"material":1,"attributes":{"POSITION":48,"NORMAL":49,"TEXCOORD_0":50}}]},{"name":"Mesh0","primitives":[{"indices":55,"material":1,"attributes":{"POSITION":52,"NORMAL":53,"TEXCOORD_0":54}}]},{"name":"Mesh0","primitives":[{"indices":58,"material":1,"attributes":{"POSITION":56,"TEXCOORD_0":57}}]},{"name":"Mesh0","primitives":[{"indices":62,"material":1,"attributes":{"POSITION":59,"NORMAL":60,"TEXCOORD_0":61}}]},{"name":"Mesh0","primitives":[{"indices":66,"material":1,"attributes":{"POSITION":63,"NORMAL":64,"TEXCOORD_0":65}}]},{"name":"Mesh0","primitives":[{"indices":69,"material":1,"attributes":{"POSITION":67,"NORMAL":68}}]},{"name":"Mesh0","primitives":[{"indices":73,"material":1,"attributes":{"POSITION":70,"NORMAL":71,"TEXCOORD_0":72}}]},{"name":"Mesh0","primitives":[{"indices":77,"material":0,"attributes":{"POSITION":74,"NORMAL":75,"TEXCOORD_0":76}}]},{"name":"Mesh0","primitives":[{"indices":81,"material":1,"attributes":{"POSITION":78,"NORMAL":79,"TEXCOORD_0":80}}]},{"name":"Mesh0","primitives":[{"indices":84,"material":0,"attributes":{"POSITION":82,"NORMAL":83}}]},{"name":"Mesh0","primitives":[{"indices":88,"material":0,"attributes":{"POSITION":85,"NORMAL":86,"TEXCOORD_0":87}}]},{"name":"Mesh0","primitives":[{"indices":92,"material":1,"attributes":{"POSITION":89,"NORMAL":90,"TEXCOORD_0":91}}]},{"name":"Mesh0","primitives":[{"indices":96,"material":0,"attributes":{"POSITION":93,"NORMAL":94,"TEXCOORD_0":95}}]},{"name":"Mesh0","primitives":[{"indices":100,"material":1,"attributes":{"POSITION":97,"NORMAL":98,"TEXCOORD_0":99}}]},{"name":"Mesh0","primitives":[{"indices":102,"material":1,"attributes":{"POSITION":101}}]},{"name":"Mesh0","primitives":[{"indices":105,"material":1,"attributes":{"POSITION":103,"NORMAL":104}}]},{"name":"Mesh0","primitives":[{"indices":108,"material":0,"attributes":{"POSITION":106,"TEXCOORD_0":107}}]},{"name":"Mesh0","primitives":[{"indices":111,"material":1,"attributes":{"POSITION":109,"NORMAL":110}}]},{"name":"Mesh0","primitives":[{"indices":115,"material":1,"attributes":{"POSITION":112,"NORMAL":113,"TEXCOORD_0":114}}]},{"name":"Mesh0","primitives":[{"indices":118,"material":0,"attributes":{"POSITION":116,"NORMAL":117}}]},{"name":"Mesh0","primitives":[{"indices":121,"material":0,"attributes":{"POSITION":119,"NORMAL":120}}]}],"accessors":[{"bufferView":0,"componentType":5126,"count":4,"type":"VEC3","min":[0.544826,0.0135,-0.154503],"max":[0.699329,0.1035,0.0]},{"bufferView":1,"componentType":5126,"count":4,"type":"VEC3"},{"bufferView":2,"componentType":5126,"count":4,"type":"VEC2"},{"bufferView":3,"componentType":5123,"count":18,"type":"SCALAR"},{"bufferView":4,"componentType":5126,"count":24,"type":"VEC3","min":[0.0,0.0135,-0.699329],"max":[0.699329,0.0135,0.0]},{"bufferView":5,"componentType":5126,"count":24,"type":"VEC3"},{"bufferView":6,"componentType":5126,"count":24,"type":"VEC2"},{"bufferView":7,"componentType":5123,"count":198,"type":"SCALAR"},{"bufferView":8,"componentType":5126,"count":4,"type":"VEC3","min":[0.599167,0.0135,-0.544826],"max":[0.699329,0.1035,-0.444664]},{"bufferView":9,"componentType":5126,"count":4,"type":"VEC3"},{"bufferView":10,"componentType":5126,"count":4,"type":"VEC2"},{"bufferView":11,"componentType":5123,"count":18,"type":"SCALAR"},{"bufferView":12,"componentType":5126,"count":6,"type":"VEC3","min":[0.444664,0.0135,-0.444664],"max":[0.684664,0.1635,-0.444664]},{"bufferView":13,"componentType":5126,"count":6,"type":"VEC3"},{"bufferView":14,"componentType":5126,"count":6,"type":"VEC2"},{"bufferView":15,"componentType":5123,"count":36,"type":"SCALAR"},{"bufferView":16,"componentType":5126,"count":5,"type":"VEC3","min":[0.444664,0.0765376,-0.699329],"max":[0.699329,0.1035,-0.444664]},{"bufferView":17,"componentType":5126,"count":5,"type":"VEC3"},{"bufferView":18,"componentType":5126,"count":5,"type":"VEC2"},{"bufferView":19,"componentType":5123,"count":27,"type":"SCALAR"},{"bufferView":20,"componentType":5126,"count":4,"type":"VEC3","min":[0.444664,0.0135,-0.699329],"max":[0.544826,0.1035,-0.599167]},{"bufferView":21,"componentType":5126,"count":4,"type":"VEC3"},{"bufferView":22,"componentType":5126,"count":4,"type":"VEC2"},{"bufferView":23,"componentType":5123,"count":18,"type":"SCALAR"},{"bufferView":24,"componentType":5126,"count":6,"type":"VEC3","min":[0.444664,0.0135,-0.684664],"max":[0.444664,0.1635,-0.444664]},{"bufferView":25,"componentType":5126,"count":6,"type":"VEC3"},{"bufferView":26,"componentType":5126,"count":6,"type":"VEC2"},{"bufferView":27,"componentType":5123,"count":36,"type":"SCALAR"},{"bufferView":28,"componentType":5126,"count":5,"type":"VEC3","min":[0.254664,0.1035,-0.684664],"max":[0.444664,0.1635,-0.349664]},{"bufferView":29,"componentType":5126,"count":5,"type":"VEC3"},{"bufferView":30,"componentType":5126,"count":5,"type":"VEC2"},{"bufferView":31,"componentType":5123,"count":27,"type":"SCALAR"},{"bufferView":32,"componentType":5126,"count":5,"type":"VEC3","min":[0.0146643,0.1035,-0.444664],"max":[0.349664,0.1635,-0.254664]},{"bufferView":33,"componentType":5126,"count":5,"type":"VEC3"},{"bufferView":34,"componentType":5126,"count":5,"type":"VEC2"},{"bufferView":35,"componentType":5123,"count":27,"type":"SCALAR"},{"bufferView":36,"componentType":5126,"count":6,"type":"VEC3","min":[0.0146643,0.0135,-0.254664],"max":[0.254664,0.1635,-0.254664]},{"bufferView":37,"componentType":5126,"count":6,"type":"VEC3"},{"bufferView":38,"componentType":5126,"count":6,"type":"VEC2"},{"bufferView":39,"componentType":5123,"count":36,"type":"SCALAR"},{"bufferView":40,"componentType":5126,"count":5,"type":"VEC3","min":[0.0,0.0765376,-0.254664],"max":[0.254664,0.1035,-4.1528E-13]},{"bufferView":41,"componentType":5126,"count":5,"type":"VEC3"},{"bufferView":42,"componentType":5126,"count":5,"type":"VEC2"},{"bufferView":43,"componentType":5123,"count":27,"type":"SCALAR"},{"bufferView":44,"componentType":5126,"count":4,"type":"VEC3","min":[0.154503,0.0135,-0.100161],"max":[0.254664,0.1035,-4.1528E-13]},{"bufferView":45,"componentType":5126,"count":4,"type":"VEC3"},{"bufferView":46,"componentType":5126,"count":4,"type":"VEC2"},{"bufferView":47,"componentType":5123,"count":18,"type":"SCALAR"},{"bufferView":48,"componentType":5126,"count":6,"type":"VEC3","min":[0.254664,0.0135,-0.254664],"max":[0.254664,0.1635,-0.0146643]},{"bufferView":49,"componentType":5126,"count":6,"type":"VEC3"},{"bufferView":50,"componentType":5126,"count":6,"type":"VEC2"},{"bufferView":51,"componentType":5123,"count":36,"type":"SCALAR"},{"bufferView":52,"componentType":5126,"count":5,"type":"VEC3","min":[0.254664,0.1035,-0.349664],"max":[0.444664,0.1635,-0.0146643]},{"bufferView":53,"componentType":5126,"count":5,"type":"VEC3"},{"bufferView":54,"componentType":5126,"count":5,"type":"VEC2"},{"bufferView":55,"componentType":5123,"count":27,"type":"SCALAR"},{"bufferView":56,"componentType":5126,"count":6,"type":"VEC3","min":[0.444664,0.0135,-0.254664],"max":[0.444664,0.1635,-0.0146643]},{"bufferView":57,"componentType":5126,"count":6,"type":"VEC2"},{"bufferView":58,"componentType":5123,"count":36,"type":"SCALAR"},{"bufferView":59,"componentType":5126,"count":4,"type":"VEC3","min":[0.444664,0.0135,-0.100161],"max":[0.544826,0.1035,0.0]},{"bufferView":60,"componentType":5126,"count":4,"type":"VEC3"},{"bufferView":61,"componentType":5126,"count":4,"type":"VEC2"},{"bufferView":62,"componentType":5123,"count":18,"type":"SCALAR"},{"bufferView":63,"componentType":5126,"count":5,"type":"VEC3","min":[0.444664,0.0765376,-0.254664],"max":[0.699329,0.1035,0.0]},{"bufferView":64,"componentType":5126,"count":5,"type":"VEC3"},{"bufferView":65,"componentType":5126,"count":5,"type":"VEC2"},{"bufferView":66,"componentType":5123,"count":27,"type":"SCALAR"},{"bufferView":67,"componentType":5126,"count":6,"type":"VEC3","min":[0.444664,0.0135,-0.254664],"max":[0.684664,0.1635,-0.254664]},{"bufferView":68,"componentType":5126,"count":6,"type":"VEC3"},{"bufferView":69,"componentType":5123,"count":12,"type":"SCALAR"},{"bufferView":70,"componentType":5126,"count":5,"type":"VEC3","min":[0.349664,0.1035,-0.444664],"max":[0.684664,0.1635,-0.254664]},{"bufferView":71,"componentType":5126,"count":5,"type":"VEC3"},{"bufferView":72,"componentType":5126,"count":5,"type":"VEC2"},{"bufferView":73,"componentType":5123,"count":27,"type":"SCALAR"},{"bufferView":74,"componentType":5126,"count":4,"type":"VEC3","min":[0.684664,0.0135,-0.444664],"max":[0.684664,0.1635,-0.254664]},{"bufferView":75,"componentType":5126,"count":4,"type":"VEC3"},{"bufferView":76,"componentType":5126,"count":4,"type":"VEC2"},{"bufferView":77,"componentType":5123,"count":18,"type":"SCALAR"},{"bufferView":78,"componentType":5126,"count":4,"type":"VEC3","min":[0.599167,0.0135,-0.254664],"max":[0.699329,0.1035,-0.154503]},{"bufferView":79,"componentType":5126,"count":4,"type":"VEC3"},{"bufferView":80,"componentType":5126,"count":4,"type":"VEC2"},{"bufferView":81,"componentType":5123,"count":18,"type":"SCALAR"},{"bufferView":82,"componentType":5126,"count":4,"type":"VEC3","min":[0.254664,0.0135,-0.0146643],"max":[0.444664,0.1635,-0.0146643]},{"bufferView":83,"componentType":5126,"count":4,"type":"VEC3"},{"bufferView":84,"componentType":5123,"count":6,"type":"SCALAR"},{"bufferView":85,"componentType":5126,"count":4,"type":"VEC3","min":[0.0,0.0135,-0.154503],"max":[0.154503,0.1035,-4.1528E-13]},{"bufferView":86,"componentType":5126,"count":4,"type":"VEC3"},{"bufferView":87,"componentType":5126,"count":4,"type":"VEC2"},{"bufferView":88,"componentType":5123,"count":18,"type":"SCALAR"},{"bufferView":89,"componentType":5126,"count":4,"type":"VEC3","min":[0.0,0.0135,-0.254664],"max":[0.100161,0.1035,-0.154503]},{"bufferView":90,"componentType":5126,"count":4,"type":"VEC3"},{"bufferView":91,"componentType":5126,"count":4,"type":"VEC2"},{"bufferView":92,"componentType":5123,"count":18,"type":"SCALAR"},{"bufferView":93,"componentType":5126,"count":4,"type":"VEC3","min":[0.0146643,0.0135,-0.444664],"max":[0.0146643,0.1635,-0.254664]},{"bufferView":94,"componentType":5126,"count":4,"type":"VEC3"},{"bufferView":95,"componentType":5126,"count":4,"type":"VEC2"},{"bufferView":96,"componentType":5123,"count":18,"type":"SCALAR"},{"bufferView":97,"componentType":5126,"count":6,"type":"VEC3","min":[0.0146643,0.0135,-0.444664],"max":[0.254664,0.1635,-0.444664]},{"bufferView":98,"componentType":5126,"count":6,"type":"VEC3"},{"bufferView":99,"componentType":5126,"count":6,"type":"VEC2"},{"bufferView":100,"componentType":5123,"count":36,"type":"SCALAR"},{"bufferView":101,"componentType":5126,"count":6,"type":"VEC3","min":[0.254664,0.0135,-0.684664],"max":[0.254664,0.1635,-0.444664]},{"bufferView":102,"componentType":5123,"count":12,"type":"SCALAR"},{"bufferView":103,"componentType":5126,"count":4,"type":"VEC3","min":[0.154503,0.0135,-0.699329],"max":[0.254664,0.1035,-0.599167]},{"bufferView":104,"componentType":5126,"count":4,"type":"VEC3"},{"bufferView":105,"componentType":5123,"count":6,"type":"SCALAR"},{"bufferView":106,"componentType":5126,"count":4,"type":"VEC3","min":[4.14377E-13,0.0135,-0.699329],"max":[0.154503,0.1035,-0.544826]},{"bufferView":107,"componentType":5126,"count":4,"type":"VEC2"},{"bufferView":108,"componentType":5123,"count":18,"type":"SCALAR"},{"bufferView":109,"componentType":5126,"count":4,"type":"VEC3","min":[4.14377E-13,0.0135,-0.544826],"max":[0.100161,0.1035,-0.444664]},{"bufferView":110,"componentType":5126,"count":4,"type":"VEC3"},{"bufferView":111,"componentType":5123,"count":6,"type":"SCALAR"},{"bufferView":112,"componentType":5126,"count":5,"type":"VEC3","min":[4.14377E-13,0.0765376,-0.699329],"max":[0.254664,0.1035,-0.444664]},{"bufferView":113,"componentType":5126,"count":5,"type":"VEC3"},{"bufferView":114,"componentType":5126,"count":5,"type":"VEC2"},{"bufferView":115,"componentType":5123,"count":27,"type":"SCALAR"},{"bufferView":116,"componentType":5126,"count":4,"type":"VEC3","min":[0.254664,0.0135,-0.684664],"max":[0.444664,0.1635,-0.684664]},{"bufferView":117,"componentType":5126,"count":4,"type":"VEC3"},{"bufferView":118,"componentType":5123,"count":6,"type":"SCALAR"},{"bufferView":119,"componentType":5126,"count":4,"type":"VEC3","min":[0.544826,0.0135,-0.699329],"max":[0.699329,0.1035,-0.544826]},{"bufferView":120,"componentType":5126,"count":4,"type":"VEC3"},{"bufferView":121,"componentType":5123,"count":6,"type":"SCALAR"}],"bufferViews":[{"target":34962,"buffer":0,"byteLength":48,"byteOffset":0},{"target":34962,"buffer":0,"byteLength":48,"byteOffset":48},{"target":34962,"buffer":0,"byteLength":32,"byteOffset":96},{"target":34963,"buffer":0,"byteLength":36,"byteOffset":128},{"target":34962,"buffer":0,"byteLength":288,"byteOffset":164},{"target":34962,"buffer":0,"byteLength":288,"byteOffset":452},{"target":34962,"buffer":0,"byteLength":192,"byteOffset":740},{"target":34963,"buffer":0,"byteLength":396,"byteOffset":932},{"target":34962,"buffer":0,"byteLength":48,"byteOffset":1328},{"target":34962,"buffer":0,"byteLength":48,"byteOffset":1376},{"target":34962,"buffer":0,"byteLength":32,"byteOffset":1424},{"target":34963,"buffer":0,"byteLength":36,"byteOffset":1456},{"target":34962,"buffer":0,"byteLength":72,"byteOffset":1492},{"target":34962,"buffer":0,"byteLength":72,"byteOffset":1564},{"target":34962,"buffer":0,"byteLength":48,"byteOffset":1636},{"target":34963,"buffer":0,"byteLength":72,"byteOffset":1684},{"target":34962,"buffer":0,"byteLength":60,"byteOffset":1756},{"target":34962,"buffer":0,"byteLength":60,"byteOffset":1816},{"target":34962,"buffer":0,"byteLength":40,"byteOffset":1876},{"target":34963,"buffer":0,"byteLength":54,"byteOffset":1916},{"target":34962,"buffer":0,"byteLength":48,"byteOffset":1972},{"target":34962,"buffer":0,"byteLength":48,"byteOffset":2020},{"target":34962,"buffer":0,"byteLength":32,"byteOffset":2068},{"target":34963,"buffer":0,"byteLength":36,"byteOffset":2100},{"target":34962,"buffer":0,"byteLength":72,"byteOffset":2136},{"target":34962,"buffer":0,"byteLength":72,"byteOffset":2208},{"target":34962,"buffer":0,"byteLength":48,"byteOffset":2280},{"target":34963,"buffer":0,"byteLength":72,"byteOffset":2328},{"target":34962,"buffer":0,"byteLength":60,"byteOffset":2400},{"target":34962,"buffer":0,"byteLength":60,"byteOffset":2460},{"target":34962,"buffer":0,"byteLength":40,"byteOffset":2520},{"target":34963,"buffer":0,"byteLength":54,"byteOffset":2560},{"target":34962,"buffer":0,"byteLength":60,"byteOffset":2616},{"target":34962,"buffer":0,"byteLength":60,"byteOffset":2676},{"target":34962,"buffer":0,"byteLength":40,"byteOffset":2736},{"target":34963,"buffer":0,"byteLength":54,"byteOffset":2776},{"target":34962,"buffer":0,"byteLength":72,"byteOffset":2832},{"target":34962,"buffer":0,"byteLength":72,"byteOffset":2904},{"target":34962,"buffer":0,"byteLength":48,"byteOffset":2976},{"target":34963,"buffer":0,"byteLength":72,"byteOffset":3024},{"target":34962,"buffer":0,"byteLength":60,"byteOffset":3096},{"target":34962,"buffer":0,"byteLength":60,"byteOffset":3156},{"target":34962,"buffer":0,"byteLength":40,"byteOffset":3216},{"target":34963,"buffer":0,"byteLength":54,"byteOffset":3256},{"target":34962,"buffer":0,"byteLength":48,"byteOffset":3312},{"target":34962,"buffer":0,"byteLength":48,"byteOffset":3360},{"target":34962,"buffer":0,"byteLength":32,"byteOffset":3408},{"target":34963,"buffer":0,"byteLength":36,"byteOffset":3440},{"target":34962,"buffer":0,"byteLength":72,"byteOffset":3476},{"target":34962,"buffer":0,"byteLength":72,"byteOffset":3548},{"target":34962,"buffer":0,"byteLength":48,"byteOffset":3620},{"target":34963,"buffer":0,"byteLength":72,"byteOffset":3668},{"target":34962,"buffer":0,"byteLength":60,"byteOffset":3740},{"target":34962,"buffer":0,"byteLength":60,"byteOffset":3800},{"target":34962,"buffer":0,"byteLength":40,"byteOffset":3860},{"target":34963,"buffer":0,"byteLength":54,"byteOffset":3900},{"target":34962,"buffer":0,"byteLength":72,"byteOffset":3956},{"target":34962,"buffer":0,"byteLength":48,"byteOffset":4028},{"target":34963,"buffer":0,"byteLength":72,"byteOffset":4076},{"target":34962,"buffer":0,"byteLength":48,"byteOffset":4148},{"target":34962,"buffer":0,"byteLength":48,"byteOffset":4196},{"target":34962,"buffer":0,"byteLength":32,"byteOffset":4244},{"target":34963,"buffer":0,"byteLength":36,"byteOffset":4276},{"target":34962,"buffer":0,"byteLength":60,"byteOffset":4312},{"target":34962,"buffer":0,"byteLength":60,"byteOffset":4372},{"target":34962,"buffer":0,"byteLength":40,"byteOffset":4432},{"target":34963,"buffer":0,"byteLength":54,"byteOffset":4472},{"target":34962,"buffer":0,"byteLength":72,"byteOffset":4528},{"target":34962,"buffer":0,"byteLength":72,"byteOffset":4600},{"target":34963,"buffer":0,"byteLength":24,"byteOffset":4672},{"target":34962,"buffer":0,"byteLength":60,"byteOffset":4696},{"target":34962,"buffer":0,"byteLength":60,"byteOffset":4756},{"target":34962,"buffer":0,"byteLength":40,"byteOffset":4816},{"target":34963,"buffer":0,"byteLength":54,"byteOffset":4856},{"target":34962,"buffer":0,"byteLength":48,"byteOffset":4912},{"target":34962,"buffer":0,"byteLength":48,"byteOffset":4960},{"target":34962,"buffer":0,"byteLength":32,"byteOffset":5008},{"target":34963,"buffer":0,"byteLength":36,"byteOffset":5040},{"target":34962,"buffer":0,"byteLength":48,"byteOffset":5076},{"target":34962,"buffer":0,"byteLength":48,"byteOffset":5124},{"target":34962,"buffer":0,"byteLength":32,"byteOffset":5172},{"target":34963,"buffer":0,"byteLength":36,"byteOffset":5204},{"target":34962,"buffer":0,"byteLength":48,"byteOffset":5240},{"target":34962,"buffer":0,"byteLength":48,"byteOffset":5288},{"target":34963,"buffer":0,"byteLength":12,"byteOffset":5336},{"target":34962,"buffer":0,"byteLength":48,"byteOffset":5348},{"target":34962,"buffer":0,"byteLength":48,"byteOffset":5396},{"target":34962,"buffer":0,"byteLength":32,"byteOffset":5444},{"target":34963,"buffer":0,"byteLength":36,"byteOffset":5476},{"target":34962,"buffer":0,"byteLength":48,"byteOffset":5512},{"target":34962,"buffer":0,"byteLength":48,"byteOffset":5560},{"target":34962,"buffer":0,"byteLength":32,"byteOffset":5608},{"target":34963,"buffer":0,"byteLength":36,"byteOffset":5640},{"target":34962,"buffer":0,"byteLength":48,"byteOffset":5676},{"target":34962,"buffer":0,"byteLength":48,"byteOffset":5724},{"target":34962,"buffer":0,"byteLength":32,"byteOffset":5772},{"target":34963,"buffer":0,"byteLength":36,"byteOffset":5804},{"target":34962,"buffer":0,"byteLength":72,"byteOffset":5840},{"target":34962,"buffer":0,"byteLength":72,"byteOffset":5912},{"target":34962,"buffer":0,"byteLength":48,"byteOffset":5984},{"target":34963,"buffer":0,"byteLength":72,"byteOffset":6032},{"target":34962,"buffer":0,"byteLength":72,"byteOffset":6104},{"target":34963,"buffer":0,"byteLength":24,"byteOffset":6176},{"target":34962,"buffer":0,"byteLength":48,"byteOffset":6200},{"target":34962,"buffer":0,"byteLength":48,"byteOffset":6248},{"target":34963,"buffer":0,"byteLength":12,"byteOffset":6296},{"target":34962,"buffer":0,"byteLength":48,"byteOffset":6308},{"target":34962,"buffer":0,"byteLength":32,"byteOffset":6356},{"target":34963,"buffer":0,"byteLength":36,"byteOffset":6388},{"target":34962,"buffer":0,"byteLength":48,"byteOffset":6424},{"target":34962,"buffer":0,"byteLength":48,"byteOffset":6472},{"target":34963,"buffer":0,"byteLength":12,"byteOffset":6520},{"target":34962,"buffer":0,"byteLength":60,"byteOffset":6532},{"target":34962,"buffer":0,"byteLength":60,"byteOffset":6592},{"target":34962,"buffer":0,"byteLength":40,"byteOffset":6652},{"target":34963,"buffer":0,"byteLength":54,"byteOffset":6692},{"target":34962,"buffer":0,"byteLength":48,"byteOffset":6748},{"target":34962,"buffer":0,"byteLength":48,"byteOffset":6796},{"target":34963,"buffer":0,"byteLength":12,"byteOffset":6844},{"target":34962,"buffer":0,"byteLength":48,"byteOffset":6856},{"target":34962,"buffer":0,"byteLength":48,"byteOffset":6904},{"target":34963,"buffer":0,"byteLength":12,"byteOffset":6952}],"buffers":[{"byteLength":6964,"uri":"data:application/octet-stream;base64,"}]}