{"scene":0,"asset":{"generator":"ImageToStl.com","version":"2.0"},"scenes":[{"name":"Scene","nodes":[0]}],"nodes":[{"name":"Node0","children":[1,2,3,4,5,6,7,8,9,10,11,12,13,14,15,16,17,18,19,20,21,22,23,24,25,26,27,28,29]},{"name":"Node1","mesh":0},{"name":"Node2","mesh":1},{"name":"Node3","mesh":2},{"name":"Node4","mesh":3},{"name":"Node5","mesh":4},{"name":"Node6","mesh":5},{"name":"Node7","mesh":6},{"name":"Node8","mesh":7},{"name":"Node9","mesh":8},{"name":"Node10","mesh":9},{"name":"Node11","mesh":10},{"name":"Node12","mesh":11},{"name":"Node13","mesh":12},{"name":"Node14","mesh":13},{"name":"Node15","mesh":14},{"name":"Node16","mesh":15},{"name":"Node17","mesh":16},{"name":"Node18","mesh":17},{"name":"Node19","mesh":18},{"name":"Node20","mesh":19},{"name":"Node21","mesh":20},{"name":"Node22","mesh":21},{"name":"Node23","mesh":22},{"name":"Node24","mesh":23},{"name":"Node25","mesh":24},{"name":"Node26","mesh":25},{"name":"Node27","mesh":26},{"name":"Node28","mesh":27},{"name":"Node29","mesh":28}],"materials":[{"name":"Green_leafs","pbrMetallicRoughness":{"baseColorFactor":[0.298039,0.529412,0.427451,1.0],"metallicFactor":0.33,"roughnessFactor":1.0},"doubleSided":true},{"name":"Water","pbrMetallicRoughness":{"baseColorFactor":[0.596078,0.898039,0.968627,1.0],"metallicFactor":0.33,"roughnessFactor":1.0},"doubleSided":true}],"meshes":[{"name":"Mesh0","primitives":[{"indices":3,"material":0,"attributes":{"POSITION":0,"NORMAL":1,"TEXCOORD_0":2}}]},{"name":"Mesh0","primitives":[{"indices":6,"material":0,"attributes":{"POSITION":4,"NORMAL":5}}]},{"name":"Mesh0","primitives":[{"indices":10,"material":0,"attributes":{"POSITION":7,"NORMAL":8,"TEXCOORD_0":9}}]},{"name":"Mesh0","primitives":[{"indices":13,"material":0,"attributes":{"POSITION":11,"NORMAL":12}}]},{"name":"Mesh0","primitives":[{"indices":17,"material":0,"attributes":{"POSITION":14,"NORMAL":15,"TEXCOORD_0":16}}]},{"name":"Mesh0","primitives":[{"indices":20,"material":0,"attributes":{"POSITION":18,"NORMAL":19}}]},{"name":"Mesh0","primitives":[{"indices":24,"material":0,"attributes":{"POSITION":21,"NORMAL":22,"TEXCOORD_0":23}}]},{"name":"Mesh0","primitives":[{"indices":27,"material":0,"attributes":{"POSITION":25,"NORMAL":26}}]},{"name":"Mesh0","primitives":[{"indices":30,"material":0,"attributes":{"POSITION":28,"NORMAL":29}}]},{"name":"Mesh0","primitives":[{"indices":33,"material":0,"attributes":{"POSITION":31,"NORMAL":32}}]},{"name":"Mesh0","primitives":[{"indices":37,"material":0,"attributes":{"POSITION":34,"NORMAL":35,"TEXCOORD_0":36}}]},{"name":"Mesh0","primitives":[{"indices":40,"material":0,"attributes":{"POSITION":38,"NORMAL":39}}]},{"name":"Mesh0","primitives":[{"indices":43,"material":1,"attributes":{"POSITION":41,"TEXCOORD_0":42}}]},{"name":"Mesh0","primitives":[{"indices":46,"material":1,"attributes":{"POSITION":44,"TEXCOORD_0":45}}]},{"name":"Mesh0","primitives":[{"indices":49,"material":0,"attributes":{"POSITION":47,"TEXCOORD_0":48}},{"indices":50,"material":1,"attributes":{"POSITION":47,"TEXCOORD_0":48}}]},{"name":"Mesh0","primitives":[{"indices":53,"material":0,"attributes":{"POSITION":51,"TEXCOORD_0":52}},{"indices":54,"material":1,"attributes":{"POSITION":51,"TEXCOORD_0":52}}]},{"name":"Mesh0","primitives":[{"indices":58,"material":1,"attributes":{"POSITION":55,"NORMAL":56,"TEXCOORD_0":57}}]},{"name":"Mesh0","primitives":[{"indices":61,"material":0,"attributes":{"POSITION":59,"NORMAL":60}}]},{"name":"Mesh0","primitives":[{"indices":65,"material":1,"attributes":{"POSITION":62,"NORMAL":63,"TEXCOORD_0":64}}]},{"name":"Mesh0","primitives":[{"indices":68,"material":0,"attributes":{"POSITION":66,"NORMAL":67}}]},{"name":"Mesh0","primitives":[{"indices":72,"material":1,"attributes":{"POSITION":69,"NORMAL":70,"TEXCOORD_0":71}}]},{"name":"Mesh0","primitives":[{"indices":75,"material":0,"attributes":{"POSITION":73,"NORMAL":74}}]},{"name":"Mesh0","primitives":[{"indices":79,"material":1,"attributes":{"POSITION":76,"NORMAL":77,"TEXCOORD_0":78}}]},{"name":"Mesh0","primitives":[{"indices":82,"material":0,"attributes":{"POSITION":80,"NORMAL":81}}]},{"name":"Mesh0","primitives":[{"indices":86,"material":1,"attributes":{"POSITION":83,"NORMAL":84,"TEXCOORD_0":85}}]},{"name":"Mesh0","primitives":[{"indices":89,"material":0,"attributes":{"POSITION":87,"NORMAL":88}}]},{"name":"Mesh0","primitives":[{"indices":92,"material":0,"attributes":{"POSITION":90,"TEXCOORD_0":91}}]},{"name":"Mesh0","primitives":[{"indices":96,"material":0,"attributes":{"POSITION":93,"NORMAL":94,"TEXCOORD_0":95}}]},{"name":"Mesh0","primitives":[{"indices":99,"material":0,"attributes":{"POSITION":97,"NORMAL":98}}]}],"accessors":[{"bufferView":0,"componentType":5126,"count":4,"type":"VEC3","min":[0.26837,0.0,-0.242963],"max":[0.485926,0.210877,-0.242963]},{"bufferView":1,"componentType":5126,"count":4,"type":"VEC3"},{"bufferView":2,"componentType":5126,"count":4,"type":"VEC2"},{"bufferView":3,"componentType":5123,"count":18,"type":"SCALAR"},{"bufferView":4,"componentType":5126,"count":4,"type":"VEC3","min":[0.26837,0.0,-0.242963],"max":[0.485926,0.210877,-0.242963]},{"bufferView":5,"componentType":5126,"count":4,"type":"VEC3"},{"bufferView":6,"componentType":5123,"count":6,"type":"SCALAR"},{"bufferView":7,"componentType":5126,"count":4,"type":"VEC3","min":[0.242963,0.0,-0.217556],"max":[0.242963,0.210877,0.0]},{"bufferView":8,"componentType":5126,"count":4,"type":"VEC3"},{"bufferView":9,"componentType":5126,"count":4,"type":"VEC2"},{"bufferView":10,"componentType":5123,"count":18,"type":"SCALAR"},{"bufferView":11,"componentType":5126,"count":4,"type":"VEC3","min":[0.242963,0.0,-0.217556],"max":[0.242963,0.210877,0.0]},{"bufferView":12,"componentType":5126,"count":4,"type":"VEC3"},{"bufferView":13,"componentType":5123,"count":6,"type":"SCALAR"},{"bufferView":14,"componentType":5126,"count":8,"type":"VEC3","min":[0.217556,0.0,-0.26837],"max":[0.26837,0.0,-0.217556]},{"bufferView":15,"componentType":5126,"count":8,"type":"VEC3"},{"bufferView":16,"componentType":5126,"count":8,"type":"VEC2"},{"bufferView":17,"componentType":5123,"count":54,"type":"SCALAR"},{"bufferView":18,"componentType":5126,"count":8,"type":"VEC3","min":[0.217556,0.0,-0.26837],"max":[0.26837,0.0,-0.217556]},{"bufferView":19,"componentType":5126,"count":8,"type":"VEC3"},{"bufferView":20,"componentType":5123,"count":18,"type":"SCALAR"},{"bufferView":21,"componentType":5126,"count":5,"type":"VEC3","min":[0.26837,0.0,-0.26837],"max":[0.26837,0.2821,-0.217556]},{"bufferView":22,"componentType":5126,"count":5,"type":"VEC3"},{"bufferView":23,"componentType":5126,"count":5,"type":"VEC2"},{"bufferView":24,"componentType":5123,"count":27,"type":"SCALAR"},{"bufferView":25,"componentType":5126,"count":5,"type":"VEC3","min":[0.26837,0.0,-0.26837],"max":[0.26837,0.2821,-0.217556]},{"bufferView":26,"componentType":5126,"count":5,"type":"VEC3"},{"bufferView":27,"componentType":5123,"count":9,"type":"SCALAR"},{"bufferView":28,"componentType":5126,"count":5,"type":"VEC3","min":[0.217556,0.0,-0.217556],"max":[0.26837,0.2821,-0.217556]},{"bufferView":29,"componentType":5126,"count":5,"type":"VEC3"},{"bufferView":30,"componentType":5123,"count":9,"type":"SCALAR"},{"bufferView":31,"componentType":5126,"count":5,"type":"VEC3","min":[0.217556,0.0,-0.217556],"max":[0.26837,0.2821,-0.217556]},{"bufferView":32,"componentType":5126,"count":5,"type":"VEC3"},{"bufferView":33,"componentType":5123,"count":9,"type":"SCALAR"},{"bufferView":34,"componentType":5126,"count":5,"type":"VEC3","min":[0.217556,0.0,-0.26837],"max":[0.217556,0.2821,-0.217556]},{"bufferView":35,"componentType":5126,"count":5,"type":"VEC3"},{"bufferView":36,"componentType":5126,"count":5,"type":"VEC2"},{"bufferView":37,"componentType":5123,"count":27,"type":"SCALAR"},{"bufferView":38,"componentType":5126,"count":15,"type":"VEC3","min":[0.217556,0.0,-0.26837],"max":[0.26837,0.2821,-0.217556]},{"bufferView":39,"componentType":5126,"count":15,"type":"VEC3"},{"bufferView":40,"componentType":5123,"count":27,"type":"SCALAR"},{"bufferView":41,"componentType":5126,"count":3,"type":"VEC3","min":[0.217556,0.2821,-0.346125],"max":[0.346125,0.2821,-0.26837]},{"bufferView":42,"componentType":5126,"count":3,"type":"VEC2"},{"bufferView":43,"componentType":5123,"count":9,"type":"SCALAR"},{"bufferView":44,"componentType":5126,"count":3,"type":"VEC3","min":[0.1398,0.2821,-0.346125],"max":[0.346125,0.2821,-0.26837]},{"bufferView":45,"componentType":5126,"count":3,"type":"VEC2"},{"bufferView":46,"componentType":5123,"count":9,"type":"SCALAR"},{"bufferView":47,"componentType":5126,"count":4,"type":"VEC3","min":[0.1398,0.2821,-0.346125],"max":[0.217556,0.2821,-0.1398]},{"bufferView":48,"componentType":5126,"count":4,"type":"VEC2"},{"bufferView":49,"componentType":5123,"count":9,"type":"SCALAR"},{"bufferView":50,"componentType":5123,"count":18,"type":"SCALAR"},{"bufferView":51,"componentType":5126,"count":8,"type":"VEC3","min":[0.1398,0.2821,-0.346125],"max":[0.346125,0.2821,-0.1398]},{"bufferView":52,"componentType":5126,"count":8,"type":"VEC2"},{"bufferView":53,"componentType":5123,"count":54,"type":"SCALAR"},{"bufferView":54,"componentType":5123,"count":36,"type":"SCALAR"},{"bufferView":55,"componentType":5126,"count":4,"type":"VEC3","min":[0.0975037,0.2821,-0.388422],"max":[0.388422,0.4,-0.346125]},{"bufferView":56,"componentType":5126,"count":4,"type":"VEC3"},{"bufferView":57,"componentType":5126,"count":4,"type":"VEC2"},{"bufferView":58,"componentType":5123,"count":18,"type":"SCALAR"},{"bufferView":59,"componentType":5126,"count":4,"type":"VEC3","min":[0.0975037,0.2821,-0.388422],"max":[0.388422,0.4,-0.346125]},{"bufferView":60,"componentType":5126,"count":4,"type":"VEC3"},{"bufferView":61,"componentType":5123,"count":6,"type":"SCALAR"},{"bufferView":62,"componentType":5126,"count":4,"type":"VEC3","min":[0.346125,0.2821,-0.388422],"max":[0.388422,0.4,-0.0975037]},{"bufferView":63,"componentType":5126,"count":4,"type":"VEC3"},{"bufferView":64,"componentType":5126,"count":4,"type":"VEC2"},{"bufferView":65,"componentType":5123,"count":18,"type":"SCALAR"},{"bufferView":66,"componentType":5126,"count":4,"type":"VEC3","min":[0.346125,0.2821,-0.388422],"max":[0.388422,0.4,-0.0975037]},{"bufferView":67,"componentType":5126,"count":4,"type":"VEC3"},{"bufferView":68,"componentType":5123,"count":6,"type":"SCALAR"},{"bufferView":69,"componentType":5126,"count":4,"type":"VEC3","min":[0.0975037,0.4,-0.388422],"max":[0.388422,0.4,-0.0975037]},{"bufferView":70,"componentType":5126,"count":4,"type":"VEC3"},{"bufferView":71,"componentType":5126,"count":4,"type":"VEC2"},{"bufferView":72,"componentType":5123,"count":18,"type":"SCALAR"},{"bufferView":73,"componentType":5126,"count":4,"type":"VEC3","min":[0.0975037,0.4,-0.388422],"max":[0.388422,0.4,-0.0975037]},{"bufferView":74,"componentType":5126,"count":4,"type":"VEC3"},{"bufferView":75,"componentType":5123,"count":6,"type":"SCALAR"},{"bufferView":76,"componentType":5126,"count":4,"type":"VEC3","min":[0.0975037,0.2821,-0.388422],"max":[0.1398,0.4,-0.0975037]},{"bufferView":77,"componentType":5126,"count":4,"type":"VEC3"},{"bufferView":78,"componentType":5126,"count":4,"type":"VEC2"},{"bufferView":79,"componentType":5123,"count":18,"type":"SCALAR"},{"bufferView":80,"componentType":5126,"count":4,"type":"VEC3","min":[0.0975037,0.2821,-0.388422],"max":[0.1398,0.4,-0.0975037]},{"bufferView":81,"componentType":5126,"count":4,"type":"VEC3"},{"bufferView":82,"componentType":5123,"count":6,"type":"SCALAR"},{"bufferView":83,"componentType":5126,"count":4,"type":"VEC3","min":[0.0975037,0.2821,-0.1398],"max":[0.388422,0.4,-0.0975037]},{"bufferView":84,"componentType":5126,"count":4,"type":"VEC3"},{"bufferView":85,"componentType":5126,"count":4,"type":"VEC2"},{"bufferView":86,"componentType":5123,"count":18,"type":"SCALAR"},{"bufferView":87,"componentType":5126,"count":7,"type":"VEC3","min":[0.0975037,0.2821,-0.26837],"max":[0.388422,0.4,-0.0975037]},{"bufferView":88,"componentType":5126,"count":7,"type":"VEC3"},{"bufferView":89,"componentType":5123,"count":9,"type":"SCALAR"},{"bufferView":90,"componentType":5126,"count":4,"type":"VEC3","min":[0.0,0.0,-0.242963],"max":[0.217556,0.210877,-0.242963]},{"bufferView":91,"componentType":5126,"count":4,"type":"VEC2"},{"bufferView":92,"componentType":5123,"count":36,"type":"SCALAR"},{"bufferView":93,"componentType":5126,"count":4,"type":"VEC3","min":[0.242963,0.0,-0.485926],"max":[0.242963,0.210877,-0.26837]},{"bufferView":94,"componentType":5126,"count":4,"type":"VEC3"},{"bufferView":95,"componentType":5126,"count":4,"type":"VEC2"},{"bufferView":96,"componentType":5123,"count":18,"type":"SCALAR"},{"bufferView":97,"componentType":5126,"count":4,"type":"VEC3","min":[0.242963,0.0,-0.485926],"max":[0.242963,0.210877,-0.26837]},{"bufferView":98,"componentType":5126,"count":4,"type":"VEC3"},{"bufferView":99,"componentType":5123,"count":6,"type":"SCALAR"}],"bufferViews":[{"target":34962,"buffer":0,"byteLength":48,"byteOffset":0},{"target":34962,"buffer":0,"byteLength":48,"byteOffset":48},{"target":34962,"buffer":0,"byteLength":32,"byteOffset":96},{"target":34963,"buffer":0,"byteLength":36,"byteOffset":128},{"target":34962,"buffer":0,"byteLength":48,"byteOffset":164},{"target":34962,"buffer":0,"byteLength":48,"byteOffset":212},{"target":34963,"buffer":0,"byteLength":12,"byteOffset":260},{"target":34962,"buffer":0,"byteLength":48,"byteOffset":272},{"target":34962,"buffer":0,"byteLength":48,"byteOffset":320},{"target":34962,"buffer":0,"byteLength":32,"byteOffset":368},{"target":34963,"buffer":0,"byteLength":36,"byteOffset":400},{"target":34962,"buffer":0,"byteLength":48,"byteOffset":436},{"target":34962,"buffer":0,"byteLength":48,"byteOffset":484},{"target":34963,"buffer":0,"byteLength":12,"byteOffset":532},{"target":34962,"buffer":0,"byteLength":96,"byteOffset":544},{"target":34962,"buffer":0,"byteLength":96,"byteOffset":640},{"target":34962,"buffer":0,"byteLength":64,"byteOffset":736},{"target":34963,"buffer":0,"byteLength":108,"byteOffset":800},{"target":34962,"buffer":0,"byteLength":96,"byteOffset":908},{"target":34962,"buffer":0,"byteLength":96,"byteOffset":1004},{"target":34963,"buffer":0,"byteLength":36,"byteOffset":1100},{"target":34962,"buffer":0,"byteLength":60,"byteOffset":1136},{"target":34962,"buffer":0,"byteLength":60,"byteOffset":1196},{"target":34962,"buffer":0,"byteLength":40,"byteOffset":1256},{"target":34963,"buffer":0,"byteLength":54,"byteOffset":1296},{"target":34962,"buffer":0,"byteLength":60,"byteOffset":1352},{"target":34962,"buffer":0,"byteLength":60,"byteOffset":1412},{"target":34963,"buffer":0,"byteLength":18,"byteOffset":1472},{"target":34962,"buffer":0,"byteLength":60,"byteOffset":1492},{"target":34962,"buffer":0,"byteLength":60,"byteOffset":1552},{"target":34963,"buffer":0,"byteLength":18,"byteOffset":1612},{"target":34962,"buffer":0,"byteLength":60,"byteOffset":1632},{"target":34962,"buffer":0,"byteLength":60,"byteOffset":1692},{"target":34963,"buffer":0,"byteLength":18,"byteOffset":1752},{"target":34962,"buffer":0,"byteLength":60,"byteOffset":1772},{"target":34962,"buffer":0,"byteLength":60,"byteOffset":1832},{"target":34962,"buffer":0,"byteLength":40,"byteOffset":1892},{"target":34963,"buffer":0,"byteLength":54,"byteOffset":1932},{"target":34962,"buffer":0,"byteLength":180,"byteOffset":1988},{"target":34962,"buffer":0,"byteLength":180,"byteOffset":2168},{"target":34963,"buffer":0,"byteLength":54,"byteOffset":2348},{"target":34962,"buffer":0,"byteLength":36,"byteOffset":2404},{"target":34962,"buffer":0,"byteLength":24,"byteOffset":2440},{"target":34963,"buffer":0,"byteLength":18,"byteOffset":2464},{"target":34962,"buffer":0,"byteLength":36,"byteOffset":2484},{"target":34962,"buffer":0,"byteLength":24,"byteOffset":2520},{"target":34963,"buffer":0,"byteLength":18,"byteOffset":2544},{"target":34962,"buffer":0,"byteLength":48,"byteOffset":2564},{"target":34962,"buffer":0,"byteLength":32,"byteOffset":2612},{"target":34963,"buffer":0,"byteLength":18,"byteOffset":2644},{"target":34963,"buffer":0,"byteLength":36,"byteOffset":2664},{"target":34962,"buffer":0,"byteLength":96,"byteOffset":2700},{"target":34962,"buffer":0,"byteLength":64,"byteOffset":2796},{"target":34963,"buffer":0,"byteLength":108,"byteOffset":2860},{"target":34963,"buffer":0,"byteLength":72,"byteOffset":2968},{"target":34962,"buffer":0,"byteLength":48,"byteOffset":3040},{"target":34962,"buffer":0,"byteLength":48,"byteOffset":3088},{"target":34962,"buffer":0,"byteLength":32,"byteOffset":3136},{"target":34963,"buffer":0,"byteLength":36,"byteOffset":3168},{"target":34962,"buffer":0,"byteLength":48,"byteOffset":3204},{"target":34962,"buffer":0,"byteLength":48,"byteOffset":3252},{"target":34963,"buffer":0,"byteLength":12,"byteOffset":3300},{"target":34962,"buffer":0,"byteLength":48,"byteOffset":3312},{"target":34962,"buffer":0,"byteLength":48,"byteOffset":3360},{"target":34962,"buffer":0,"byteLength":32,"byteOffset":3408},{"target":34963,"buffer":0,"byteLength":36,"byteOffset":3440},{"target":34962,"buffer":0,"byteLength":48,"byteOffset":3476},{"target":34962,"buffer":0,"byteLength":48,"byteOffset":3524},{"target":34963,"buffer":0,"byteLength":12,"byteOffset":3572},{"target":34962,"buffer":0,"byteLength":48,"byteOffset":3584},{"target":34962,"buffer":0,"byteLength":48,"byteOffset":3632},{"target":34962,"buffer":0,"byteLength":32,"byteOffset":3680},{"target":34963,"buffer":0,"byteLength":36,"byteOffset":3712},{"target":34962,"buffer":0,"byteLength":48,"byteOffset":3748},{"target":34962,"buffer":0,"byteLength":48,"byteOffset":3796},{"target":34963,"buffer":0,"byteLength":12,"byteOffset":3844},{"target":34962,"buffer":0,"byteLength":48,"byteOffset":3856},{"target":34962,"buffer":0,"byteLength":48,"byteOffset":3904},{"target":34962,"buffer":0,"byteLength":32,"byteOffset":3952},{"target":34963,"buffer":0,"byteLength":36,"byteOffset":3984},{"target":34962,"buffer":0,"byteLength":48,"byteOffset":4020},{"target":34962,"buffer":0,"byteLength":48,"byteOffset":4068},{"target":34963,"buffer":0,"byteLength":12,"byteOffset":4116},{"target":34962,"buffer":0,"byteLength":48,"byteOffset":4128},{"target":34962,"buffer":0,"byteLength":48,"byteOffset":4176},{"target":34962,"buffer":0,"byteLength":32,"byteOffset":4224},{"target":34963,"buffer":0,"byteLength":36,"byteOffset":4256},{"target":34962,"buffer":0,"byteLength":84,"byteOffset":4292},{"target":34962,"buffer":0,"byteLength":84,"byteOffset":4376},{"target":34963,"buffer":0,"byteLength":18,"byteOffset":4460},{"target":34962,"buffer":0,"byteLength":48,"byteOffset":4480},{"target":34962,"buffer":0,"byteLength":32,"byteOffset":4528},{"target":34963,"buffer":0,"byteLength":72,"byteOffset":4560},{"target":34962,"buffer":0,"byteLength":48,"byteOffset":4632},{"target":34962,"buffer":0,"byteLength":48,"byteOffset":4680},{"target":34962,"buffer":0,"byteLength":32,"byteOffset":4728},{"target":34963,"buffer":0,"byteLength":36,"byteOffset":4760},{"target":34962,"buffer":0,"byteLength":48,"byteOffset":4796},{"target":34962,"buffer":0,"byteLength":48,"byteOffset":4844},{"target":34963,"buffer":0,"byteLength":12,"byteOffset":4892}],"buffers":[{"byteLength":4904,"uri":"data:application/octet-stream;base64,"}]}