{"scene":0,"asset":{"generator":"ImageToStl.com","version":"2.0"},"scenes":[{"name":"Scene","nodes":[0]}],"nodes":[{"name":"Node0","children":[1,2,3,4,5,6,7,8,9,10,11,12,13,14,15,16,17,18,19,20,21,22,23,24,25,26,27,28,29,30,31]},{"name":"Node1","mesh":0},{"name":"Node2","mesh":1},{"name":"Node3","mesh":2},{"name":"Node4","mesh":3},{"name":"Node5","mesh":4},{"name":"Node6","mesh":5},{"name":"Node7","mesh":6},{"name":"Node8","mesh":7},{"name":"Node9","mesh":8},{"name":"Node10","mesh":9},{"name":"Node11","mesh":10},{"name":"Node12","mesh":11},{"name":"Node13","mesh":12},{"name":"Node14","mesh":13},{"name":"Node15","mesh":14},{"name":"Node16","mesh":15},{"name":"Node17","mesh":16},{"name":"Node18","mesh":17},{"name":"Node19","mesh":18},{"name":"Node20","mesh":19},{"name":"Node21","mesh":20},{"name":"Node22","mesh":21},{"name":"Node23","mesh":22},{"name":"Node24","mesh":23},{"name":"Node25","mesh":24},{"name":"Node26","mesh":25},{"name":"Node27","mesh":26},{"name":"Node28","mesh":27},{"name":"Node29","mesh":28},{"name":"Node30","mesh":29},{"name":"Node31","mesh":30}],"materials":[{"name":"Green_leafs","pbrMetallicRoughness":{"baseColorFactor":[0.298039,0.529412,0.427451,1.0],"metallicFactor":0.33,"roughnessFactor":1.0},"doubleSided":true},{"name":"Light_Wood","pbrMetallicRoughness":{"baseColorFactor":[0.937255,0.764706,0.501961,1.0],"metallicFactor":0.33,"roughnessFactor":1.0},"doubleSided":true}],"meshes":[{"name":"Mesh0","primitives":[{"indices":3,"material":0,"attributes":{"POSITION":0,"NORMAL":1,"TEXCOORD_0":2}}]},{"name":"Mesh0","primitives":[{"indices":6,"material":0,"attributes":{"POSITION":4,"NORMAL":5}}]},{"name":"Mesh0","primitives":[{"indices":10,"material":0,"attributes":{"POSITION":7,"NORMAL":8,"TEXCOORD_0":9}}]},{"name":"Mesh0","primitives":[{"indices":13,"material":0,"attributes":{"POSITION":11,"NORMAL":12}}]},{"name":"Mesh0","primitives":[{"indices":17,"material":0,"attributes":{"POSITION":14,"NORMAL":15,"TEXCOORD_0":16}}]},{"name":"Mesh0","primitives":[{"indices":20,"material":1,"attributes":{"POSITION":18,"TEXCOORD_0":19}}]},{"name":"Mesh0","primitives":[{"indices":23,"material":1,"attributes":{"POSITION":21,"TEXCOORD_0":22}}]},{"name":"Mesh0","primitives":[{"indices":26,"material":0,"attributes":{"POSITION":24,"TEXCOORD_0":25}},{"indices":27,"material":1,"attributes":{"POSITION":24,"TEXCOORD_0":25}}]},{"name":"Mesh0","primitives":[{"indices":29,"material":1,"attributes":{"POSITION":28}}]},{"name":"Mesh0","primitives":[{"indices":32,"material":0,"attributes":{"POSITION":30,"TEXCOORD_0":31}},{"indices":33,"material":1,"attributes":{"POSITION":30,"TEXCOORD_0":31}}]},{"name":"Mesh0","primitives":[{"indices":36,"material":0,"attributes":{"POSITION":34,"NORMAL":35}}]},{"name":"Mesh0","primitives":[{"indices":39,"material":0,"attributes":{"POSITION":37,"NORMAL":38}}]},{"name":"Mesh0","primitives":[{"indices":42,"material":0,"attributes":{"POSITION":40,"NORMAL":41}}]},{"name":"Mesh0","primitives":[{"indices":45,"material":0,"attributes":{"POSITION":43,"NORMAL":44}}]},{"name":"Mesh0","primitives":[{"indices":48,"material":0,"attributes":{"POSITION":46,"NORMAL":47}},{"indices":49,"material":1,"attributes":{"POSITION":46,"NORMAL":47}}]},{"name":"Mesh0","primitives":[{"indices":53,"material":1,"attributes":{"POSITION":50,"NORMAL":51,"TEXCOORD_0":52}}]},{"name":"Mesh0","primitives":[{"indices":56,"material":0,"attributes":{"POSITION":54,"NORMAL":55}}]},{"name":"Mesh0","primitives":[{"indices":60,"material":1,"attributes":{"POSITION":57,"NORMAL":58,"TEXCOORD_0":59}}]},{"name":"Mesh0","primitives":[{"indices":63,"material":0,"attributes":{"POSITION":61,"NORMAL":62}}]},{"name":"Mesh0","primitives":[{"indices":67,"material":1,"attributes":{"POSITION":64,"NORMAL":65,"TEXCOORD_0":66}}]},{"name":"Mesh0","primitives":[{"indices":70,"material":0,"attributes":{"POSITION":68,"NORMAL":69}}]},{"name":"Mesh0","primitives":[{"indices":74,"material":1,"attributes":{"POSITION":71,"NORMAL":72,"TEXCOORD_0":73}}]},{"name":"Mesh0","primitives":[{"indices":77,"material":0,"attributes":{"POSITION":75,"NORMAL":76}}]},{"name":"Mesh0","primitives":[{"indices":81,"material":1,"attributes":{"POSITION":78,"NORMAL":79,"TEXCOORD_0":80}}]},{"name":"Mesh0","primitives":[{"indices":84,"material":0,"attributes":{"POSITION":82,"NORMAL":83}}]},{"name":"Mesh0","primitives":[{"indices":87,"material":0,"attributes":{"POSITION":85,"TEXCOORD_0":86}}]},{"name":"Mesh0","primitives":[{"indices":91,"material":0,"attributes":{"POSITION":88,"NORMAL":89,"TEXCOORD_0":90}}]},{"name":"Mesh0","primitives":[{"indices":94,"material":0,"attributes":{"POSITION":92,"NORMAL":93}}]},{"name":"Mesh0","primitives":[{"indices":98,"material":0,"attributes":{"POSITION":95,"NORMAL":96,"TEXCOORD_0":97}}]},{"name":"Mesh0","primitives":[{"indices":101,"material":0,"attributes":{"POSITION":99,"NORMAL":100}}]},{"name":"Mesh0","primitives":[{"indices":104,"material":0,"attributes":{"POSITION":102,"TEXCOORD_0":103}}]}],"accessors":[{"bufferView":0,"componentType":5126,"count":5,"type":"VEC3","min":[0.26837,0.0,-0.26837],"max":[0.26837,0.36,-0.217556]},{"bufferView":1,"componentType":5126,"count":5,"type":"VEC3"},{"bufferView":2,"componentType":5126,"count":5,"type":"VEC2"},{"bufferView":3,"componentType":5123,"count":27,"type":"SCALAR"},{"bufferView":4,"componentType":5126,"count":5,"type":"VEC3","min":[0.26837,0.0,-0.26837],"max":[0.26837,0.36,-0.217556]},{"bufferView":5,"componentType":5126,"count":5,"type":"VEC3"},{"bufferView":6,"componentType":5123,"count":9,"type":"SCALAR"},{"bufferView":7,"componentType":5126,"count":8,"type":"VEC3","min":[0.217556,0.0,-0.26837],"max":[0.26837,0.0,-0.217556]},{"bufferView":8,"componentType":5126,"count":8,"type":"VEC3"},{"bufferView":9,"componentType":5126,"count":8,"type":"VEC2"},{"bufferView":10,"componentType":5123,"count":54,"type":"SCALAR"},{"bufferView":11,"componentType":5126,"count":8,"type":"VEC3","min":[0.217556,0.0,-0.26837],"max":[0.26837,0.0,-0.217556]},{"bufferView":12,"componentType":5126,"count":8,"type":"VEC3"},{"bufferView":13,"componentType":5123,"count":18,"type":"SCALAR"},{"bufferView":14,"componentType":5126,"count":5,"type":"VEC3","min":[0.217556,0.0,-0.26837],"max":[0.26837,0.36,-0.26837]},{"bufferView":15,"componentType":5126,"count":5,"type":"VEC3"},{"bufferView":16,"componentType":5126,"count":5,"type":"VEC2"},{"bufferView":17,"componentType":5123,"count":27,"type":"SCALAR"},{"bufferView":18,"componentType":5126,"count":3,"type":"VEC3","min":[0.217556,0.36,-0.321713],"max":[0.321713,0.36,-0.26837]},{"bufferView":19,"componentType":5126,"count":3,"type":"VEC2"},{"bufferView":20,"componentType":5123,"count":9,"type":"SCALAR"},{"bufferView":21,"componentType":5126,"count":3,"type":"VEC3","min":[0.164213,0.36,-0.321713],"max":[0.321713,0.36,-0.26837]},{"bufferView":22,"componentType":5126,"count":3,"type":"VEC2"},{"bufferView":23,"componentType":5123,"count":9,"type":"SCALAR"},{"bufferView":24,"componentType":5126,"count":3,"type":"VEC3","min":[0.164213,0.36,-0.321713],"max":[0.217556,0.36,-0.164213]},{"bufferView":25,"componentType":5126,"count":3,"type":"VEC2"},{"bufferView":26,"componentType":5123,"count":9,"type":"SCALAR"},{"bufferView":27,"componentType":5123,"count":9,"type":"SCALAR"},{"bufferView":28,"componentType":5126,"count":3,"type":"VEC3","min":[0.164213,0.36,-0.26837],"max":[0.217556,0.36,-0.164213]},{"bufferView":29,"componentType":5123,"count":3,"type":"SCALAR"},{"bufferView":30,"componentType":5126,"count":4,"type":"VEC3","min":[0.164213,0.36,-0.217556],"max":[0.321713,0.36,-0.164213]},{"bufferView":31,"componentType":5126,"count":4,"type":"VEC2"},{"bufferView":32,"componentType":5123,"count":18,"type":"SCALAR"},{"bufferView":33,"componentType":5123,"count":18,"type":"SCALAR"},{"bufferView":34,"componentType":5126,"count":5,"type":"VEC3","min":[0.217556,0.0,-0.217556],"max":[0.26837,0.36,-0.217556]},{"bufferView":35,"componentType":5126,"count":5,"type":"VEC3"},{"bufferView":36,"componentType":5123,"count":9,"type":"SCALAR"},{"bufferView":37,"componentType":5126,"count":5,"type":"VEC3","min":[0.217556,0.0,-0.217556],"max":[0.26837,0.36,-0.217556]},{"bufferView":38,"componentType":5126,"count":5,"type":"VEC3"},{"bufferView":39,"componentType":5123,"count":9,"type":"SCALAR"},{"bufferView":40,"componentType":5126,"count":8,"type":"VEC3","min":[0.164213,0.0,-0.26837],"max":[0.217556,0.36,-0.164213]},{"bufferView":41,"componentType":5126,"count":8,"type":"VEC3"},{"bufferView":42,"componentType":5123,"count":12,"type":"SCALAR"},{"bufferView":43,"componentType":5126,"count":5,"type":"VEC3","min":[0.217556,0.0,-0.26837],"max":[0.217556,0.36,-0.217556]},{"bufferView":44,"componentType":5126,"count":5,"type":"VEC3"},{"bufferView":45,"componentType":5123,"count":9,"type":"SCALAR"},{"bufferView":46,"componentType":5126,"count":14,"type":"VEC3","min":[0.217556,0.0,-0.321713],"max":[0.321713,0.36,-0.164213]},{"bufferView":47,"componentType":5126,"count":14,"type":"VEC3"},{"bufferView":48,"componentType":5123,"count":18,"type":"SCALAR"},{"bufferView":49,"componentType":5123,"count":6,"type":"SCALAR"},{"bufferView":50,"componentType":5126,"count":4,"type":"VEC3","min":[0.321713,0.36,-0.354],"max":[0.354,0.54,-0.131925]},{"bufferView":51,"componentType":5126,"count":4,"type":"VEC3"},{"bufferView":52,"componentType":5126,"count":4,"type":"VEC2"},{"bufferView":53,"componentType":5123,"count":18,"type":"SCALAR"},{"bufferView":54,"componentType":5126,"count":4,"type":"VEC3","min":[0.321713,0.36,-0.354],"max":[0.354,0.54,-0.131925]},{"bufferView":55,"componentType":5126,"count":4,"type":"VEC3"},{"bufferView":56,"componentType":5123,"count":6,"type":"SCALAR"},{"bufferView":57,"componentType":5126,"count":4,"type":"VEC3","min":[0.131925,0.54,-0.354],"max":[0.354,0.54,-0.131925]},{"bufferView":58,"componentType":5126,"count":4,"type":"VEC3"},{"bufferView":59,"componentType":5126,"count":4,"type":"VEC2"},{"bufferView":60,"componentType":5123,"count":18,"type":"SCALAR"},{"bufferView":61,"componentType":5126,"count":4,"type":"VEC3","min":[0.131925,0.54,-0.354],"max":[0.354,0.54,-0.131925]},{"bufferView":62,"componentType":5126,"count":4,"type":"VEC3"},{"bufferView":63,"componentType":5123,"count":6,"type":"SCALAR"},{"bufferView":64,"componentType":5126,"count":4,"type":"VEC3","min":[0.131925,0.36,-0.354],"max":[0.164213,0.54,-0.131925]},{"bufferView":65,"componentType":5126,"count":4,"type":"VEC3"},{"bufferView":66,"componentType":5126,"count":4,"type":"VEC2"},{"bufferView":67,"componentType":5123,"count":18,"type":"SCALAR"},{"bufferView":68,"componentType":5126,"count":4,"type":"VEC3","min":[0.131925,0.36,-0.354],"max":[0.164213,0.54,-0.131925]},{"bufferView":69,"componentType":5126,"count":4,"type":"VEC3"},{"bufferView":70,"componentType":5123,"count":6,"type":"SCALAR"},{"bufferView":71,"componentType":5126,"count":4,"type":"VEC3","min":[0.131925,0.36,-0.354],"max":[0.354,0.54,-0.321713]},{"bufferView":72,"componentType":5126,"count":4,"type":"VEC3"},{"bufferView":73,"componentType":5126,"count":4,"type":"VEC2"},{"bufferView":74,"componentType":5123,"count":18,"type":"SCALAR"},{"bufferView":75,"componentType":5126,"count":7,"type":"VEC3","min":[0.131925,0.36,-0.354],"max":[0.354,0.54,-0.26837]},{"bufferView":76,"componentType":5126,"count":7,"type":"VEC3"},{"bufferView":77,"componentType":5123,"count":9,"type":"SCALAR"},{"bufferView":78,"componentType":5126,"count":4,"type":"VEC3","min":[0.131925,0.36,-0.164213],"max":[0.354,0.54,-0.131925]},{"bufferView":79,"componentType":5126,"count":4,"type":"VEC3"},{"bufferView":80,"componentType":5126,"count":4,"type":"VEC2"},{"bufferView":81,"componentType":5123,"count":18,"type":"SCALAR"},{"bufferView":82,"componentType":5126,"count":4,"type":"VEC3","min":[0.131925,0.36,-0.164213],"max":[0.354,0.54,-0.131925]},{"bufferView":83,"componentType":5126,"count":4,"type":"VEC3"},{"bufferView":84,"componentType":5123,"count":6,"type":"SCALAR"},{"bufferView":85,"componentType":5126,"count":4,"type":"VEC3","min":[0.26837,0.0,-0.242963],"max":[0.485926,0.210877,-0.242963]},{"bufferView":86,"componentType":5126,"count":4,"type":"VEC2"},{"bufferView":87,"componentType":5123,"count":36,"type":"SCALAR"},{"bufferView":88,"componentType":5126,"count":4,"type":"VEC3","min":[0.242963,0.0,-0.485926],"max":[0.242963,0.210877,-0.26837]},{"bufferView":89,"componentType":5126,"count":4,"type":"VEC3"},{"bufferView":90,"componentType":5126,"count":4,"type":"VEC2"},{"bufferView":91,"componentType":5123,"count":18,"type":"SCALAR"},{"bufferView":92,"componentType":5126,"count":4,"type":"VEC3","min":[0.242963,0.0,-0.485926],"max":[0.242963,0.210877,-0.26837]},{"bufferView":93,"componentType":5126,"count":4,"type":"VEC3"},{"bufferView":94,"componentType":5123,"count":6,"type":"SCALAR"},{"bufferView":95,"componentType":5126,"count":4,"type":"VEC3","min":[0.242963,0.0,-0.217556],"max":[0.242963,0.210877,0.0]},{"bufferView":96,"componentType":5126,"count":4,"type":"VEC3"},{"bufferView":97,"componentType":5126,"count":4,"type":"VEC2"},{"bufferView":98,"componentType":5123,"count":18,"type":"SCALAR"},{"bufferView":99,"componentType":5126,"count":4,"type":"VEC3","min":[0.242963,0.0,-0.217556],"max":[0.242963,0.210877,0.0]},{"bufferView":100,"componentType":5126,"count":4,"type":"VEC3"},{"bufferView":101,"componentType":5123,"count":6,"type":"SCALAR"},{"bufferView":102,"componentType":5126,"count":4,"type":"VEC3","min":[0.0,0.0,-0.242963],"max":[0.217556,0.210877,-0.242963]},{"bufferView":103,"componentType":5126,"count":4,"type":"VEC2"},{"bufferView":104,"componentType":5123,"count":36,"type":"SCALAR"}],"bufferViews":[{"target":34962,"buffer":0,"byteLength":60,"byteOffset":0},{"target":34962,"buffer":0,"byteLength":60,"byteOffset":60},{"target":34962,"buffer":0,"byteLength":40,"byteOffset":120},{"target":34963,"buffer":0,"byteLength":54,"byteOffset":160},{"target":34962,"buffer":0,"byteLength":60,"byteOffset":216},{"target":34962,"buffer":0,"byteLength":60,"byteOffset":276},{"target":34963,"buffer":0,"byteLength":18,"byteOffset":336},{"target":34962,"buffer":0,"byteLength":96,"byteOffset":356},{"target":34962,"buffer":0,"byteLength":96,"byteOffset":452},{"target":34962,"buffer":0,"byteLength":64,"byteOffset":548},{"target":34963,"buffer":0,"byteLength":108,"byteOffset":612},{"target":34962,"buffer":0,"byteLength":96,"byteOffset":720},{"target":34962,"buffer":0,"byteLength":96,"byteOffset":816},{"target":34963,"buffer":0,"byteLength":36,"byteOffset":912},{"target":34962,"buffer":0,"byteLength":60,"byteOffset":948},{"target":34962,"buffer":0,"byteLength":60,"byteOffset":1008},{"target":34962,"buffer":0,"byteLength":40,"byteOffset":1068},{"target":34963,"buffer":0,"byteLength":54,"byteOffset":1108},{"target":34962,"buffer":0,"byteLength":36,"byteOffset":1164},{"target":34962,"buffer":0,"byteLength":24,"byteOffset":1200},{"target":34963,"buffer":0,"byteLength":18,"byteOffset":1224},{"target":34962,"buffer":0,"byteLength":36,"byteOffset":1244},{"target":34962,"buffer":0,"byteLength":24,"byteOffset":1280},{"target":34963,"buffer":0,"byteLength":18,"byteOffset":1304},{"target":34962,"buffer":0,"byteLength":36,"byteOffset":1324},{"target":34962,"buffer":0,"byteLength":24,"byteOffset":1360},{"target":34963,"buffer":0,"byteLength":18,"byteOffset":1384},{"target":34963,"buffer":0,"byteLength":18,"byteOffset":1404},{"target":34962,"buffer":0,"byteLength":36,"byteOffset":1424},{"target":34963,"buffer":0,"byteLength":6,"byteOffset":1460},{"target":34962,"buffer":0,"byteLength":48,"byteOffset":1468},{"target":34962,"buffer":0,"byteLength":32,"byteOffset":1516},{"target":34963,"buffer":0,"byteLength":36,"byteOffset":1548},{"target":34963,"buffer":0,"byteLength":36,"byteOffset":1584},{"target":34962,"buffer":0,"byteLength":60,"byteOffset":1620},{"target":34962,"buffer":0,"byteLength":60,"byteOffset":1680},{"target":34963,"buffer":0,"byteLength":18,"byteOffset":1740},{"target":34962,"buffer":0,"byteLength":60,"byteOffset":1760},{"target":34962,"buffer":0,"byteLength":60,"byteOffset":1820},{"target":34963,"buffer":0,"byteLength":18,"byteOffset":1880},{"target":34962,"buffer":0,"byteLength":96,"byteOffset":1900},{"target":34962,"buffer":0,"byteLength":96,"byteOffset":1996},{"target":34963,"buffer":0,"byteLength":24,"byteOffset":2092},{"target":34962,"buffer":0,"byteLength":60,"byteOffset":2116},{"target":34962,"buffer":0,"byteLength":60,"byteOffset":2176},{"target":34963,"buffer":0,"byteLength":18,"byteOffset":2236},{"target":34962,"buffer":0,"byteLength":168,"byteOffset":2256},{"target":34962,"buffer":0,"byteLength":168,"byteOffset":2424},{"target":34963,"buffer":0,"byteLength":36,"byteOffset":2592},{"target":34963,"buffer":0,"byteLength":12,"byteOffset":2628},{"target":34962,"buffer":0,"byteLength":48,"byteOffset":2640},{"target":34962,"buffer":0,"byteLength":48,"byteOffset":2688},{"target":34962,"buffer":0,"byteLength":32,"byteOffset":2736},{"target":34963,"buffer":0,"byteLength":36,"byteOffset":2768},{"target":34962,"buffer":0,"byteLength":48,"byteOffset":2804},{"target":34962,"buffer":0,"byteLength":48,"byteOffset":2852},{"target":34963,"buffer":0,"byteLength":12,"byteOffset":2900},{"target":34962,"buffer":0,"byteLength":48,"byteOffset":2912},{"target":34962,"buffer":0,"byteLength":48,"byteOffset":2960},{"target":34962,"buffer":0,"byteLength":32,"byteOffset":3008},{"target":34963,"buffer":0,"byteLength":36,"byteOffset":3040},{"target":34962,"buffer":0,"byteLength":48,"byteOffset":3076},{"target":34962,"buffer":0,"byteLength":48,"byteOffset":3124},{"target":34963,"buffer":0,"byteLength":12,"byteOffset":3172},{"target":34962,"buffer":0,"byteLength":48,"byteOffset":3184},{"target":34962,"buffer":0,"byteLength":48,"byteOffset":3232},{"target":34962,"buffer":0,"byteLength":32,"byteOffset":3280},{"target":34963,"buffer":0,"byteLength":36,"byteOffset":3312},{"target":34962,"buffer":0,"byteLength":48,"byteOffset":3348},{"target":34962,"buffer":0,"byteLength":48,"byteOffset":3396},{"target":34963,"buffer":0,"byteLength":12,"byteOffset":3444},{"target":34962,"buffer":0,"byteLength":48,"byteOffset":3456},{"target":34962,"buffer":0,"byteLength":48,"byteOffset":3504},{"target":34962,"buffer":0,"byteLength":32,"byteOffset":3552},{"target":34963,"buffer":0,"byteLength":36,"byteOffset":3584},{"target":34962,"buffer":0,"byteLength":84,"byteOffset":3620},{"target":34962,"buffer":0,"byteLength":84,"byteOffset":3704},{"target":34963,"buffer":0,"byteLength":18,"byteOffset":3788},{"target":34962,"buffer":0,"byteLength":48,"byteOffset":3808},{"target":34962,"buffer":0,"byteLength":48,"byteOffset":3856},{"target":34962,"buffer":0,"byteLength":32,"byteOffset":3904},{"target":34963,"buffer":0,"byteLength":36,"byteOffset":3936},{"target":34962,"buffer":0,"byteLength":48,"byteOffset":3972},{"target":34962,"buffer":0,"byteLength":48,"byteOffset":4020},{"target":34963,"buffer":0,"byteLength":12,"byteOffset":4068},{"target":34962,"buffer":0,"byteLength":48,"byteOffset":4080},{"target":34962,"buffer":0,"byteLength":32,"byteOffset":4128},{"target":34963,"buffer":0,"byteLength":72,"byteOffset":4160},{"target":34962,"buffer":0,"byteLength":48,"byteOffset":4232},{"target":34962,"buffer":0,"byteLength":48,"byteOffset":4280},{"target":34962,"buffer":0,"byteLength":32,"byteOffset":4328},{"target":34963,"buffer":0,"byteLength":36,"byteOffset":4360},{"target":34962,"buffer":0,"byteLength":48,"byteOffset":4396},{"target":34962,"buffer":0,"byteLength":48,"byteOffset":4444},{"target":34963,"buffer":0,"byteLength":12,"byteOffset":4492},{"target":34962,"buffer":0,"byteLength":48,"byteOffset":4504},{"target":34962,"buffer":0,"byteLength":48,"byteOffset":4552},{"target":34962,"buffer":0,"byteLength":32,"byteOffset":4600},{"target":34963,"buffer":0,"byteLength":36,"byteOffset":4632},{"target":34962,"buffer":0,"byteLength":48,"byteOffset":4668},{"target":34962,"buffer":0,"byteLength":48,"byteOffset":4716},{"target":34963,"buffer":0,"byteLength":12,"byteOffset":4764},{"target":34962,"buffer":0,"byteLength":48,"byteOffset":4776},{"target":34962,"buffer":0,"byteLength":32,"byteOffset":4824},{"target":34963,"buffer":0,"byteLength":72,"byteOffset":4856}],"buffers":[{"byteLength":4928,"uri":"data:application/octet-stream;base64,"}]}