{"scene":0,"asset":{"generator":"ImageToStl.com","version":"2.0"},"scenes":[{"name":"Scene","nodes":[0]}],"nodes":[{"name":"Node0","children":[1,2,3,4,5,6,7,8,9,10,11,12,13,14,15,16,17,18,19,20,21,22,23,24,25,26,27,28,29,30]},{"name":"Node1","mesh":0},{"name":"Node2","mesh":1},{"name":"Node3","mesh":2},{"name":"Node4","mesh":3},{"name":"Node5","mesh":4},{"name":"Node6","mesh":5},{"name":"Node7","mesh":6},{"name":"Node8","mesh":7},{"name":"Node9","mesh":8},{"name":"Node10","mesh":9},{"name":"Node11","mesh":10},{"name":"Node12","mesh":11},{"name":"Node13","mesh":12},{"name":"Node14","mesh":13},{"name":"Node15","mesh":14},{"name":"Node16","mesh":15},{"name":"Node17","mesh":16},{"name":"Node18","mesh":17},{"name":"Node19","mesh":18},{"name":"Node20","mesh":19},{"name":"Node21","mesh":20},{"name":"Node22","mesh":21},{"name":"Node23","mesh":22},{"name":"Node24","mesh":23},{"name":"Node25","mesh":24},{"name":"Node26","mesh":25},{"name":"Node27","mesh":26},{"name":"Node28","mesh":27},{"name":"Node29","mesh":28},{"name":"Node30","mesh":29}],"materials":[{"name":"Wood","pbrMetallicRoughness":{"baseColorFactor":[0.666667,0.545098,0.356863,1.0],"metallicFactor":0.33,"roughnessFactor":1.0},"doubleSided":true},{"name":"Green_leafs","pbrMetallicRoughness":{"baseColorFactor":[0.298039,0.529412,0.427451,1.0],"metallicFactor":0.33,"roughnessFactor":1.0},"doubleSided":true}],"meshes":[{"name":"Mesh0","primitives":[{"indices":3,"material":0,"attributes":{"POSITION":0,"NORMAL":1,"TEXCOORD_0":2}}]},{"name":"Mesh0","primitives":[{"indices":7,"material":0,"attributes":{"POSITION":4,"NORMAL":5,"TEXCOORD_0":6}}]},{"name":"Mesh0","primitives":[{"indices":11,"material":0,"attributes":{"POSITION":8,"NORMAL":9,"TEXCOORD_0":10}}]},{"name":"Mesh0","primitives":[{"indices":15,"material":0,"attributes":{"POSITION":12,"NORMAL":13,"TEXCOORD_0":14}}]},{"name":"Mesh0","primitives":[{"indices":19,"material":0,"attributes":{"POSITION":16,"NORMAL":17,"TEXCOORD_0":18}}]},{"name":"Mesh0","primitives":[{"indices":22,"material":1,"attributes":{"POSITION":20,"TEXCOORD_0":21}}]},{"name":"Mesh0","primitives":[{"indices":25,"material":1,"attributes":{"POSITION":23,"TEXCOORD_0":24}}]},{"name":"Mesh0","primitives":[{"indices":28,"material":1,"attributes":{"POSITION":26,"TEXCOORD_0":27}}]},{"name":"Mesh0","primitives":[{"indices":31,"material":1,"attributes":{"POSITION":29,"TEXCOORD_0":30}}]},{"name":"Mesh0","primitives":[{"indices":35,"material":1,"attributes":{"POSITION":32,"NORMAL":33,"TEXCOORD_0":34}}]},{"name":"Mesh0","primitives":[{"indices":39,"material":1,"attributes":{"POSITION":36,"NORMAL":37,"TEXCOORD_0":38}}]},{"name":"Mesh0","primitives":[{"indices":42,"material":1,"attributes":{"POSITION":40,"TEXCOORD_0":41}}]},{"name":"Mesh0","primitives":[{"indices":45,"material":1,"attributes":{"POSITION":43,"TEXCOORD_0":44}}]},{"name":"Mesh0","primitives":[{"indices":48,"material":1,"attributes":{"POSITION":46,"TEXCOORD_0":47}}]},{"name":"Mesh0","primitives":[{"indices":52,"material":1,"attributes":{"POSITION":49,"NORMAL":50,"TEXCOORD_0":51}}]},{"name":"Mesh0","primitives":[{"indices":56,"material":1,"attributes":{"POSITION":53,"NORMAL":54,"TEXCOORD_0":55}}]},{"name":"Mesh0","primitives":[{"indices":60,"material":1,"attributes":{"POSITION":57,"NORMAL":58,"TEXCOORD_0":59}}]},{"name":"Mesh0","primitives":[{"indices":64,"material":1,"attributes":{"POSITION":61,"NORMAL":62,"TEXCOORD_0":63}}]},{"name":"Mesh0","primitives":[{"indices":68,"material":1,"attributes":{"POSITION":65,"NORMAL":66,"TEXCOORD_0":67}}]},{"name":"Mesh0","primitives":[{"indices":72,"material":1,"attributes":{"POSITION":69,"NORMAL":70,"TEXCOORD_0":71}}]},{"name":"Mesh0","primitives":[{"indices":76,"material":1,"attributes":{"POSITION":73,"NORMAL":74,"TEXCOORD_0":75}}]},{"name":"Mesh0","primitives":[{"indices":80,"material":1,"attributes":{"POSITION":77,"NORMAL":78,"TEXCOORD_0":79}}]},{"name":"Mesh0","primitives":[{"indices":84,"material":1,"attributes":{"POSITION":81,"NORMAL":82,"TEXCOORD_0":83}}]},{"name":"Mesh0","primitives":[{"indices":88,"material":1,"attributes":{"POSITION":85,"NORMAL":86,"TEXCOORD_0":87}}]},{"name":"Mesh0","primitives":[{"indices":92,"material":1,"attributes":{"POSITION":89,"NORMAL":90,"TEXCOORD_0":91}}]},{"name":"Mesh0","primitives":[{"indices":96,"material":1,"attributes":{"POSITION":93,"NORMAL":94,"TEXCOORD_0":95}}]},{"name":"Mesh0","primitives":[{"indices":100,"material":1,"attributes":{"POSITION":97,"NORMAL":98,"TEXCOORD_0":99}}]},{"name":"Mesh0","primitives":[{"indices":104,"material":1,"attributes":{"POSITION":101,"NORMAL":102,"TEXCOORD_0":103}}]},{"name":"Mesh0","primitives":[{"indices":108,"material":1,"attributes":{"POSITION":105,"NORMAL":106,"TEXCOORD_0":107}}]},{"name":"Mesh0","primitives":[{"indices":112,"material":1,"attributes":{"POSITION":109,"NORMAL":110,"TEXCOORD_0":111}}]}],"accessors":[{"bufferView":0,"componentType":5126,"count":4,"type":"VEC3","min":[1.23471,0.0,-1.58299],"max":[1.33519,0.97155,-1.0324]},{"bufferView":1,"componentType":5126,"count":4,"type":"VEC3"},{"bufferView":2,"componentType":5126,"count":4,"type":"VEC2"},{"bufferView":3,"componentType":5123,"count":18,"type":"SCALAR"},{"bufferView":4,"componentType":5126,"count":4,"type":"VEC3","min":[1.23471,0.0,-1.13289],"max":[1.78529,0.97155,-1.0324]},{"bufferView":5,"componentType":5126,"count":4,"type":"VEC3"},{"bufferView":6,"componentType":5126,"count":4,"type":"VEC2"},{"bufferView":7,"componentType":5123,"count":18,"type":"SCALAR"},{"bufferView":8,"componentType":5126,"count":4,"type":"VEC3","min":[1.68481,0.0,-1.58299],"max":[1.78529,0.97155,-1.0324]},{"bufferView":9,"componentType":5126,"count":4,"type":"VEC3"},{"bufferView":10,"componentType":5126,"count":4,"type":"VEC2"},{"bufferView":11,"componentType":5123,"count":18,"type":"SCALAR"},{"bufferView":12,"componentType":5126,"count":4,"type":"VEC3","min":[1.23471,0.0,-1.58299],"max":[1.78529,0.0,-1.0324]},{"bufferView":13,"componentType":5126,"count":4,"type":"VEC3"},{"bufferView":14,"componentType":5126,"count":4,"type":"VEC2"},{"bufferView":15,"componentType":5123,"count":18,"type":"SCALAR"},{"bufferView":16,"componentType":5126,"count":4,"type":"VEC3","min":[1.23471,0.0,-1.58299],"max":[1.78529,0.97155,-1.48251]},{"bufferView":17,"componentType":5126,"count":4,"type":"VEC3"},{"bufferView":18,"componentType":5126,"count":4,"type":"VEC2"},{"bufferView":19,"componentType":5123,"count":18,"type":"SCALAR"},{"bufferView":20,"componentType":5126,"count":3,"type":"VEC3","min":[1.33519,0.97155,-2.3277],"max":[2.0989,0.97155,-1.48251]},{"bufferView":21,"componentType":5126,"count":3,"type":"VEC2"},{"bufferView":22,"componentType":5123,"count":9,"type":"SCALAR"},{"bufferView":23,"componentType":5126,"count":3,"type":"VEC3","min":[0.9211,0.97155,-2.3277],"max":[2.0989,0.97155,-1.48251]},{"bufferView":24,"componentType":5126,"count":3,"type":"VEC2"},{"bufferView":25,"componentType":5123,"count":9,"type":"SCALAR"},{"bufferView":26,"componentType":5126,"count":3,"type":"VEC3","min":[0.9211,0.97155,-2.3277],"max":[1.33519,0.97155,-0.287694]},{"bufferView":27,"componentType":5126,"count":3,"type":"VEC2"},{"bufferView":28,"componentType":5123,"count":9,"type":"SCALAR"},{"bufferView":29,"componentType":5126,"count":3,"type":"VEC3","min":[0.3322,0.97155,-2.3277],"max":[0.9211,0.97155,-0.287694]},{"bufferView":30,"componentType":5126,"count":3,"type":"VEC2"},{"bufferView":31,"componentType":5123,"count":9,"type":"SCALAR"},{"bufferView":32,"componentType":5126,"count":4,"type":"VEC3","min":[0.0,0.97155,-1.3077],"max":[0.9211,1.59155,-7.21911E-16]},{"bufferView":33,"componentType":5126,"count":4,"type":"VEC3"},{"bufferView":34,"componentType":5126,"count":4,"type":"VEC2"},{"bufferView":35,"componentType":5123,"count":18,"type":"SCALAR"},{"bufferView":36,"componentType":5126,"count":4,"type":"VEC3","min":[0.755,0.97155,-0.287694],"max":[2.265,1.59155,0.0]},{"bufferView":37,"componentType":5126,"count":4,"type":"VEC3"},{"bufferView":38,"componentType":5126,"count":4,"type":"VEC2"},{"bufferView":39,"componentType":5123,"count":18,"type":"SCALAR"},{"bufferView":40,"componentType":5126,"count":4,"type":"VEC3","min":[0.9211,0.97155,-1.48251],"max":[2.0989,0.97155,-0.287694]},{"bufferView":41,"componentType":5126,"count":4,"type":"VEC2"},{"bufferView":42,"componentType":5123,"count":18,"type":"SCALAR"},{"bufferView":43,"componentType":5126,"count":5,"type":"VEC3","min":[1.33519,0.97155,-2.3277],"max":[2.0989,0.97155,-0.287694]},{"bufferView":44,"componentType":5126,"count":5,"type":"VEC2"},{"bufferView":45,"componentType":5123,"count":27,"type":"SCALAR"},{"bufferView":46,"componentType":5126,"count":3,"type":"VEC3","min":[2.0989,0.97155,-2.3277],"max":[2.6878,0.97155,-0.287694]},{"bufferView":47,"componentType":5126,"count":3,"type":"VEC2"},{"bufferView":48,"componentType":5123,"count":9,"type":"SCALAR"},{"bufferView":49,"componentType":5126,"count":4,"type":"VEC3","min":[2.0989,0.97155,-2.6154],"max":[3.02,1.59155,-1.3077]},{"bufferView":50,"componentType":5126,"count":4,"type":"VEC3"},{"bufferView":51,"componentType":5126,"count":4,"type":"VEC2"},{"bufferView":52,"componentType":5123,"count":18,"type":"SCALAR"},{"bufferView":53,"componentType":5126,"count":4,"type":"VEC3","min":[2.09135,1.59155,-2.6154],"max":[3.02,3.77155,-1.3077]},{"bufferView":54,"componentType":5126,"count":4,"type":"VEC3"},{"bufferView":55,"componentType":5126,"count":4,"type":"VEC2"},{"bufferView":56,"componentType":5123,"count":18,"type":"SCALAR"},{"bufferView":57,"componentType":5126,"count":4,"type":"VEC3","min":[0.755,1.59155,-2.6154],"max":[2.265,3.77155,-2.31463]},{"bufferView":58,"componentType":5126,"count":4,"type":"VEC3"},{"bufferView":59,"componentType":5126,"count":4,"type":"VEC2"},{"bufferView":60,"componentType":5123,"count":18,"type":"SCALAR"},{"bufferView":61,"componentType":5126,"count":4,"type":"VEC3","min":[0.0,1.59155,-2.6154],"max":[0.92865,3.77155,-1.3077]},{"bufferView":62,"componentType":5126,"count":4,"type":"VEC3"},{"bufferView":63,"componentType":5126,"count":4,"type":"VEC2"},{"bufferView":64,"componentType":5123,"count":18,"type":"SCALAR"},{"bufferView":65,"componentType":5126,"count":3,"type":"VEC3","min":[0.3473,3.77155,-2.31463],"max":[1.51,4.60155,-1.3077]},{"bufferView":66,"componentType":5126,"count":3,"type":"VEC3"},{"bufferView":67,"componentType":5126,"count":3,"type":"VEC2"},{"bufferView":68,"componentType":5123,"count":9,"type":"SCALAR"},{"bufferView":69,"componentType":5126,"count":3,"type":"VEC3","min":[0.3473,3.77155,-1.3077],"max":[1.51,4.60155,-0.300771]},{"bufferView":70,"componentType":5126,"count":3,"type":"VEC3"},{"bufferView":71,"componentType":5126,"count":3,"type":"VEC2"},{"bufferView":72,"componentType":5123,"count":9,"type":"SCALAR"},{"bufferView":73,"componentType":5126,"count":3,"type":"VEC3","min":[0.92865,3.77155,-1.3077],"max":[2.09135,4.60155,-0.300771]},{"bufferView":74,"componentType":5126,"count":3,"type":"VEC3"},{"bufferView":75,"componentType":5126,"count":3,"type":"VEC2"},{"bufferView":76,"componentType":5123,"count":9,"type":"SCALAR"},{"bufferView":77,"componentType":5126,"count":3,"type":"VEC3","min":[1.51,3.77155,-1.3077],"max":[2.6727,4.60155,-0.300771]},{"bufferView":78,"componentType":5126,"count":3,"type":"VEC3"},{"bufferView":79,"componentType":5126,"count":3,"type":"VEC2"},{"bufferView":80,"componentType":5123,"count":9,"type":"SCALAR"},{"bufferView":81,"componentType":5126,"count":3,"type":"VEC3","min":[1.51,3.77155,-2.31463],"max":[2.6727,4.60155,-1.3077]},{"bufferView":82,"componentType":5126,"count":3,"type":"VEC3"},{"bufferView":83,"componentType":5126,"count":3,"type":"VEC2"},{"bufferView":84,"componentType":5123,"count":9,"type":"SCALAR"},{"bufferView":85,"componentType":5126,"count":3,"type":"VEC3","min":[0.92865,3.77155,-2.31463],"max":[2.09135,4.60155,-1.3077]},{"bufferView":86,"componentType":5126,"count":3,"type":"VEC3"},{"bufferView":87,"componentType":5126,"count":3,"type":"VEC2"},{"bufferView":88,"componentType":5123,"count":9,"type":"SCALAR"},{"bufferView":89,"componentType":5126,"count":4,"type":"VEC3","min":[2.09135,1.59155,-1.3077],"max":[3.02,3.77155,0.0]},{"bufferView":90,"componentType":5126,"count":4,"type":"VEC3"},{"bufferView":91,"componentType":5126,"count":4,"type":"VEC2"},{"bufferView":92,"componentType":5123,"count":18,"type":"SCALAR"},{"bufferView":93,"componentType":5126,"count":4,"type":"VEC3","min":[2.0989,0.97155,-1.3077],"max":[3.02,1.59155,0.0]},{"bufferView":94,"componentType":5126,"count":4,"type":"VEC3"},{"bufferView":95,"componentType":5126,"count":4,"type":"VEC2"},{"bufferView":96,"componentType":5123,"count":18,"type":"SCALAR"},{"bufferView":97,"componentType":5126,"count":4,"type":"VEC3","min":[0.755,1.59155,-0.300771],"max":[2.265,3.77155,0.0]},{"bufferView":98,"componentType":5126,"count":4,"type":"VEC3"},{"bufferView":99,"componentType":5126,"count":4,"type":"VEC2"},{"bufferView":100,"componentType":5123,"count":18,"type":"SCALAR"},{"bufferView":101,"componentType":5126,"count":4,"type":"VEC3","min":[0.0,1.59155,-1.3077],"max":[0.92865,3.77155,-7.21911E-16]},{"bufferView":102,"componentType":5126,"count":4,"type":"VEC3"},{"bufferView":103,"componentType":5126,"count":4,"type":"VEC2"},{"bufferView":104,"componentType":5123,"count":18,"type":"SCALAR"},{"bufferView":105,"componentType":5126,"count":4,"type":"VEC3","min":[0.0,0.97155,-2.6154],"max":[0.9211,1.59155,-1.3077]},{"bufferView":106,"componentType":5126,"count":4,"type":"VEC3"},{"bufferView":107,"componentType":5126,"count":4,"type":"VEC2"},{"bufferView":108,"componentType":5123,"count":18,"type":"SCALAR"},{"bufferView":109,"componentType":5126,"count":4,"type":"VEC3","min":[0.755,0.97155,-2.6154],"max":[2.265,1.59155,-2.3277]},{"bufferView":110,"componentType":5126,"count":4,"type":"VEC3"},{"bufferView":111,"componentType":5126,"count":4,"type":"VEC2"},{"bufferView":112,"componentType":5123,"count":18,"type":"SCALAR"}],"bufferViews":[{"target":34962,"buffer":0,"byteLength":48,"byteOffset":0},{"target":34962,"buffer":0,"byteLength":48,"byteOffset":48},{"target":34962,"buffer":0,"byteLength":32,"byteOffset":96},{"target":34963,"buffer":0,"byteLength":36,"byteOffset":128},{"target":34962,"buffer":0,"byteLength":48,"byteOffset":164},{"target":34962,"buffer":0,"byteLength":48,"byteOffset":212},{"target":34962,"buffer":0,"byteLength":32,"byteOffset":260},{"target":34963,"buffer":0,"byteLength":36,"byteOffset":292},{"target":34962,"buffer":0,"byteLength":48,"byteOffset":328},{"target":34962,"buffer":0,"byteLength":48,"byteOffset":376},{"target":34962,"buffer":0,"byteLength":32,"byteOffset":424},{"target":34963,"buffer":0,"byteLength":36,"byteOffset":456},{"target":34962,"buffer":0,"byteLength":48,"byteOffset":492},{"target":34962,"buffer":0,"byteLength":48,"byteOffset":540},{"target":34962,"buffer":0,"byteLength":32,"byteOffset":588},{"target":34963,"buffer":0,"byteLength":36,"byteOffset":620},{"target":34962,"buffer":0,"byteLength":48,"byteOffset":656},{"target":34962,"buffer":0,"byteLength":48,"byteOffset":704},{"target":34962,"buffer":0,"byteLength":32,"byteOffset":752},{"target":34963,"buffer":0,"byteLength":36,"byteOffset":784},{"target":34962,"buffer":0,"byteLength":36,"byteOffset":820},{"target":34962,"buffer":0,"byteLength":24,"byteOffset":856},{"target":34963,"buffer":0,"byteLength":18,"byteOffset":880},{"target":34962,"buffer":0,"byteLength":36,"byteOffset":900},{"target":34962,"buffer":0,"byteLength":24,"byteOffset":936},{"target":34963,"buffer":0,"byteLength":18,"byteOffset":960},{"target":34962,"buffer":0,"byteLength":36,"byteOffset":980},{"target":34962,"buffer":0,"byteLength":24,"byteOffset":1016},{"target":34963,"buffer":0,"byteLength":18,"byteOffset":1040},{"target":34962,"buffer":0,"byteLength":36,"byteOffset":1060},{"target":34962,"buffer":0,"byteLength":24,"byteOffset":1096},{"target":34963,"buffer":0,"byteLength":18,"byteOffset":1120},{"target":34962,"buffer":0,"byteLength":48,"byteOffset":1140},{"target":34962,"buffer":0,"byteLength":48,"byteOffset":1188},{"target":34962,"buffer":0,"byteLength":32,"byteOffset":1236},{"target":34963,"buffer":0,"byteLength":36,"byteOffset":1268},{"target":34962,"buffer":0,"byteLength":48,"byteOffset":1304},{"target":34962,"buffer":0,"byteLength":48,"byteOffset":1352},{"target":34962,"buffer":0,"byteLength":32,"byteOffset":1400},{"target":34963,"buffer":0,"byteLength":36,"byteOffset":1432},{"target":34962,"buffer":0,"byteLength":48,"byteOffset":1468},{"target":34962,"buffer":0,"byteLength":32,"byteOffset":1516},{"target":34963,"buffer":0,"byteLength":36,"byteOffset":1548},{"target":34962,"buffer":0,"byteLength":60,"byteOffset":1584},{"target":34962,"buffer":0,"byteLength":40,"byteOffset":1644},{"target":34963,"buffer":0,"byteLength":54,"byteOffset":1684},{"target":34962,"buffer":0,"byteLength":36,"byteOffset":1740},{"target":34962,"buffer":0,"byteLength":24,"byteOffset":1776},{"target":34963,"buffer":0,"byteLength":18,"byteOffset":1800},{"target":34962,"buffer":0,"byteLength":48,"byteOffset":1820},{"target":34962,"buffer":0,"byteLength":48,"byteOffset":1868},{"target":34962,"buffer":0,"byteLength":32,"byteOffset":1916},{"target":34963,"buffer":0,"byteLength":36,"byteOffset":1948},{"target":34962,"buffer":0,"byteLength":48,"byteOffset":1984},{"target":34962,"buffer":0,"byteLength":48,"byteOffset":2032},{"target":34962,"buffer":0,"byteLength":32,"byteOffset":2080},{"target":34963,"buffer":0,"byteLength":36,"byteOffset":2112},{"target":34962,"buffer":0,"byteLength":48,"byteOffset":2148},{"target":34962,"buffer":0,"byteLength":48,"byteOffset":2196},{"target":34962,"buffer":0,"byteLength":32,"byteOffset":2244},{"target":34963,"buffer":0,"byteLength":36,"byteOffset":2276},{"target":34962,"buffer":0,"byteLength":48,"byteOffset":2312},{"target":34962,"buffer":0,"byteLength":48,"byteOffset":2360},{"target":34962,"buffer":0,"byteLength":32,"byteOffset":2408},{"target":34963,"buffer":0,"byteLength":36,"byteOffset":2440},{"target":34962,"buffer":0,"byteLength":36,"byteOffset":2476},{"target":34962,"buffer":0,"byteLength":36,"byteOffset":2512},{"target":34962,"buffer":0,"byteLength":24,"byteOffset":2548},{"target":34963,"buffer":0,"byteLength":18,"byteOffset":2572},{"target":34962,"buffer":0,"byteLength":36,"byteOffset":2592},{"target":34962,"buffer":0,"byteLength":36,"byteOffset":2628},{"target":34962,"buffer":0,"byteLength":24,"byteOffset":2664},{"target":34963,"buffer":0,"byteLength":18,"byteOffset":2688},{"target":34962,"buffer":0,"byteLength":36,"byteOffset":2708},{"target":34962,"buffer":0,"byteLength":36,"byteOffset":2744},{"target":34962,"buffer":0,"byteLength":24,"byteOffset":2780},{"target":34963,"buffer":0,"byteLength":18,"byteOffset":2804},{"target":34962,"buffer":0,"byteLength":36,"byteOffset":2824},{"target":34962,"buffer":0,"byteLength":36,"byteOffset":2860},{"target":34962,"buffer":0,"byteLength":24,"byteOffset":2896},{"target":34963,"buffer":0,"byteLength":18,"byteOffset":2920},{"target":34962,"buffer":0,"byteLength":36,"byteOffset":2940},{"target":34962,"buffer":0,"byteLength":36,"byteOffset":2976},{"target":34962,"buffer":0,"byteLength":24,"byteOffset":3012},{"target":34963,"buffer":0,"byteLength":18,"byteOffset":3036},{"target":34962,"buffer":0,"byteLength":36,"byteOffset":3056},{"target":34962,"buffer":0,"byteLength":36,"byteOffset":3092},{"target":34962,"buffer":0,"byteLength":24,"byteOffset":3128},{"target":34963,"buffer":0,"byteLength":18,"byteOffset":3152},{"target":34962,"buffer":0,"byteLength":48,"byteOffset":3172},{"target":34962,"buffer":0,"byteLength":48,"byteOffset":3220},{"target":34962,"buffer":0,"byteLength":32,"byteOffset":3268},{"target":34963,"buffer":0,"byteLength":36,"byteOffset":3300},{"target":34962,"buffer":0,"byteLength":48,"byteOffset":3336},{"target":34962,"buffer":0,"byteLength":48,"byteOffset":3384},{"target":34962,"buffer":0,"byteLength":32,"byteOffset":3432},{"target":34963,"buffer":0,"byteLength":36,"byteOffset":3464},{"target":34962,"buffer":0,"byteLength":48,"byteOffset":3500},{"target":34962,"buffer":0,"byteLength":48,"byteOffset":3548},{"target":34962,"buffer":0,"byteLength":32,"byteOffset":3596},{"target":34963,"buffer":0,"byteLength":36,"byteOffset":3628},{"target":34962,"buffer":0,"byteLength":48,"byteOffset":3664},{"target":34962,"buffer":0,"byteLength":48,"byteOffset":3712},{"target":34962,"buffer":0,"byteLength":32,"byteOffset":3760},{"target":34963,"buffer":0,"byteLength":36,"byteOffset":3792},{"target":34962,"buffer":0,"byteLength":48,"byteOffset":3828},{"target":34962,"buffer":0,"byteLength":48,"byteOffset":3876},{"target":34962,"buffer":0,"byteLength":32,"byteOffset":3924},{"target":34963,"buffer":0,"byteLength":36,"byteOffset":3956},{"target":34962,"buffer":0,"byteLength":48,"byteOffset":3992},{"target":34962,"buffer":0,"byteLength":48,"byteOffset":4040},{"target":34962,"buffer":0,"byteLength":32,"byteOffset":4088},{"target":34963,"buffer":0,"byteLength":36,"byteOffset":4120}],"buffers":[{"byteLength":4156,"uri":"data:application/octet-stream;base64,"}]}