{"scene":0,"asset":{"generator":"ImageToStl.com","version":"2.0"},"scenes":[{"name":"Scene","nodes":[0]}],"nodes":[{"name":"Node0","children":[1,2,3,4,5,6,7,8,9,10,11,12,13,14,15,16,17,18]},{"name":"Node1","mesh":0},{"name":"Node2","mesh":1},{"name":"Node3","mesh":2},{"name":"Node4","mesh":3},{"name":"Node5","mesh":4},{"name":"Node6","mesh":5},{"name":"Node7","mesh":6},{"name":"Node8","mesh":7},{"name":"Node9","mesh":8},{"name":"Node10","mesh":9},{"name":"Node11","mesh":10},{"name":"Node12","mesh":11},{"name":"Node13","mesh":12},{"name":"Node14","mesh":13},{"name":"Node15","mesh":14},{"name":"Node16","mesh":15},{"name":"Node17","mesh":16},{"name":"Node18","mesh":17}],"materials":[{"name":"FrontColor","pbrMetallicRoughness":{"baseColorFactor":[1.0,1.0,1.0,1.0],"metallicFactor":0.33,"roughnessFactor":1.0},"doubleSided":true},{"name":"Mushroom_Red","pbrMetallicRoughness":{"baseColorFactor":[0.827451,0.313725,0.254902,1.0],"metallicFactor":0.33,"roughnessFactor":1.0},"doubleSided":true}],"meshes":[{"name":"Mesh0","primitives":[{"indices":3,"material":0,"attributes":{"POSITION":0,"NORMAL":1,"TEXCOORD_0":2}}]},{"name":"Mesh0","primitives":[{"indices":7,"material":0,"attributes":{"POSITION":4,"NORMAL":5,"TEXCOORD_0":6}}]},{"name":"Mesh0","primitives":[{"indices":11,"material":0,"attributes":{"POSITION":8,"NORMAL":9,"TEXCOORD_0":10}}]},{"name":"Mesh0","primitives":[{"indices":15,"material":0,"attributes":{"POSITION":12,"NORMAL":13,"TEXCOORD_0":14}}]},{"name":"Mesh0","primitives":[{"indices":18,"material":1,"attributes":{"POSITION":16,"TEXCOORD_0":17}}]},{"name":"Mesh0","primitives":[{"indices":21,"material":1,"attributes":{"POSITION":19,"TEXCOORD_0":20}}]},{"name":"Mesh0","primitives":[{"indices":24,"material":1,"attributes":{"POSITION":22,"TEXCOORD_0":23}}]},{"name":"Mesh0","primitives":[{"indices":27,"material":1,"attributes":{"POSITION":25,"TEXCOORD_0":26}}]},{"name":"Mesh0","primitives":[{"indices":30,"material":1,"attributes":{"POSITION":28,"TEXCOORD_0":29}}]},{"name":"Mesh0","primitives":[{"indices":34,"material":1,"attributes":{"POSITION":31,"NORMAL":32,"TEXCOORD_0":33}}]},{"name":"Mesh0","primitives":[{"indices":38,"material":1,"attributes":{"POSITION":35,"NORMAL":36,"TEXCOORD_0":37}}]},{"name":"Mesh0","primitives":[{"indices":42,"material":1,"attributes":{"POSITION":39,"NORMAL":40,"TEXCOORD_0":41}}]},{"name":"Mesh0","primitives":[{"indices":46,"material":1,"attributes":{"POSITION":43,"NORMAL":44,"TEXCOORD_0":45}}]},{"name":"Mesh0","primitives":[{"indices":49,"material":1,"attributes":{"POSITION":47,"TEXCOORD_0":48}}]},{"name":"Mesh0","primitives":[{"indices":52,"material":1,"attributes":{"POSITION":50,"TEXCOORD_0":51}}]},{"name":"Mesh0","primitives":[{"indices":56,"material":1,"attributes":{"POSITION":53,"NORMAL":54,"TEXCOORD_0":55}}]},{"name":"Mesh0","primitives":[{"indices":60,"material":1,"attributes":{"POSITION":57,"NORMAL":58,"TEXCOORD_0":59}}]},{"name":"Mesh0","primitives":[{"indices":64,"material":0,"attributes":{"POSITION":61,"NORMAL":62,"TEXCOORD_0":63}}]}],"accessors":[{"bufferView":0,"componentType":5126,"count":4,"type":"VEC3","min":[0.10229,0.0,-0.15983],"max":[0.33719,0.3159,-0.121072]},{"bufferView":1,"componentType":5126,"count":4,"type":"VEC3"},{"bufferView":2,"componentType":5126,"count":4,"type":"VEC2"},{"bufferView":3,"componentType":5123,"count":18,"type":"SCALAR"},{"bufferView":4,"componentType":5126,"count":4,"type":"VEC3","min":[0.298431,0.0,-0.355972],"max":[0.33719,0.3159,-0.121072]},{"bufferView":5,"componentType":5126,"count":4,"type":"VEC3"},{"bufferView":6,"componentType":5126,"count":4,"type":"VEC2"},{"bufferView":7,"componentType":5123,"count":18,"type":"SCALAR"},{"bufferView":8,"componentType":5126,"count":4,"type":"VEC3","min":[0.10229,0.0,-0.355972],"max":[0.33719,0.0,-0.121072]},{"bufferView":9,"componentType":5126,"count":4,"type":"VEC3"},{"bufferView":10,"componentType":5126,"count":4,"type":"VEC2"},{"bufferView":11,"componentType":5123,"count":18,"type":"SCALAR"},{"bufferView":12,"componentType":5126,"count":4,"type":"VEC3","min":[0.10229,0.0,-0.355972],"max":[0.141048,0.3159,-0.121072]},{"bufferView":13,"componentType":5126,"count":4,"type":"VEC3"},{"bufferView":14,"componentType":5126,"count":4,"type":"VEC2"},{"bufferView":15,"componentType":5123,"count":18,"type":"SCALAR"},{"bufferView":16,"componentType":5126,"count":4,"type":"VEC3","min":[0.141048,0.3159,-0.317213],"max":[0.298431,0.3159,-0.15983]},{"bufferView":17,"componentType":5126,"count":4,"type":"VEC2"},{"bufferView":18,"componentType":5123,"count":18,"type":"SCALAR"},{"bufferView":19,"componentType":5126,"count":3,"type":"VEC3","min":[0.298431,0.3159,-0.37665],"max":[0.434918,0.3159,-0.15983]},{"bufferView":20,"componentType":5126,"count":3,"type":"VEC2"},{"bufferView":21,"componentType":5123,"count":9,"type":"SCALAR"},{"bufferView":22,"componentType":5126,"count":4,"type":"VEC3","min":[0.141048,0.3159,-0.5022],"max":[0.434918,0.3159,-0.317213]},{"bufferView":23,"componentType":5126,"count":4,"type":"VEC2"},{"bufferView":24,"componentType":5123,"count":18,"type":"SCALAR"},{"bufferView":25,"componentType":5126,"count":3,"type":"VEC3","min":[0.0,0.3159,-0.5022],"max":[0.217459,0.3159,-0.12555]},{"bufferView":26,"componentType":5126,"count":3,"type":"VEC2"},{"bufferView":27,"componentType":5123,"count":9,"type":"SCALAR"},{"bufferView":28,"componentType":5126,"count":3,"type":"VEC3","min":[0.0,0.3159,-0.5022],"max":[0.217459,0.3159,-0.12555]},{"bufferView":29,"componentType":5126,"count":3,"type":"VEC2"},{"bufferView":30,"componentType":5123,"count":9,"type":"SCALAR"},{"bufferView":31,"componentType":5126,"count":3,"type":"VEC3","min":[0.0,0.3159,-0.37665],"max":[0.217459,0.567,-0.12555]},{"bufferView":32,"componentType":5126,"count":3,"type":"VEC3"},{"bufferView":33,"componentType":5126,"count":3,"type":"VEC2"},{"bufferView":34,"componentType":5123,"count":9,"type":"SCALAR"},{"bufferView":35,"componentType":5126,"count":3,"type":"VEC3","min":[0.0,0.3159,-0.2511],"max":[0.217459,0.567,0.0]},{"bufferView":36,"componentType":5126,"count":3,"type":"VEC3"},{"bufferView":37,"componentType":5126,"count":3,"type":"VEC2"},{"bufferView":38,"componentType":5123,"count":9,"type":"SCALAR"},{"bufferView":39,"componentType":5126,"count":3,"type":"VEC3","min":[0.217459,0.3159,-0.2511],"max":[0.434918,0.567,0.0]},{"bufferView":40,"componentType":5126,"count":3,"type":"VEC3"},{"bufferView":41,"componentType":5126,"count":3,"type":"VEC2"},{"bufferView":42,"componentType":5123,"count":9,"type":"SCALAR"},{"bufferView":43,"componentType":5126,"count":3,"type":"VEC3","min":[0.217459,0.3159,-0.37665],"max":[0.434918,0.567,-0.12555]},{"bufferView":44,"componentType":5126,"count":3,"type":"VEC3"},{"bufferView":45,"componentType":5126,"count":3,"type":"VEC2"},{"bufferView":46,"componentType":5123,"count":9,"type":"SCALAR"},{"bufferView":47,"componentType":5126,"count":3,"type":"VEC3","min":[0.298431,0.3159,-0.37665],"max":[0.434918,0.3159,-0.12555]},{"bufferView":48,"componentType":5126,"count":3,"type":"VEC2"},{"bufferView":49,"componentType":5123,"count":9,"type":"SCALAR"},{"bufferView":50,"componentType":5126,"count":6,"type":"VEC3","min":[0.0,0.3159,-0.317213],"max":[0.434918,0.3159,0.0]},{"bufferView":51,"componentType":5126,"count":6,"type":"VEC2"},{"bufferView":52,"componentType":5123,"count":36,"type":"SCALAR"},{"bufferView":53,"componentType":5126,"count":3,"type":"VEC3","min":[0.217459,0.3159,-0.5022],"max":[0.434918,0.567,-0.2511]},{"bufferView":54,"componentType":5126,"count":3,"type":"VEC3"},{"bufferView":55,"componentType":5126,"count":3,"type":"VEC2"},{"bufferView":56,"componentType":5123,"count":9,"type":"SCALAR"},{"bufferView":57,"componentType":5126,"count":3,"type":"VEC3","min":[0.0,0.3159,-0.5022],"max":[0.217459,0.567,-0.2511]},{"bufferView":58,"componentType":5126,"count":3,"type":"VEC3"},{"bufferView":59,"componentType":5126,"count":3,"type":"VEC2"},{"bufferView":60,"componentType":5123,"count":9,"type":"SCALAR"},{"bufferView":61,"componentType":5126,"count":4,"type":"VEC3","min":[0.10229,0.0,-0.355972],"max":[0.33719,0.3159,-0.317213]},{"bufferView":62,"componentType":5126,"count":4,"type":"VEC3"},{"bufferView":63,"componentType":5126,"count":4,"type":"VEC2"},{"bufferView":64,"componentType":5123,"count":18,"type":"SCALAR"}],"bufferViews":[{"target":34962,"buffer":0,"byteLength":48,"byteOffset":0},{"target":34962,"buffer":0,"byteLength":48,"byteOffset":48},{"target":34962,"buffer":0,"byteLength":32,"byteOffset":96},{"target":34963,"buffer":0,"byteLength":36,"byteOffset":128},{"target":34962,"buffer":0,"byteLength":48,"byteOffset":164},{"target":34962,"buffer":0,"byteLength":48,"byteOffset":212},{"target":34962,"buffer":0,"byteLength":32,"byteOffset":260},{"target":34963,"buffer":0,"byteLength":36,"byteOffset":292},{"target":34962,"buffer":0,"byteLength":48,"byteOffset":328},{"target":34962,"buffer":0,"byteLength":48,"byteOffset":376},{"target":34962,"buffer":0,"byteLength":32,"byteOffset":424},{"target":34963,"buffer":0,"byteLength":36,"byteOffset":456},{"target":34962,"buffer":0,"byteLength":48,"byteOffset":492},{"target":34962,"buffer":0,"byteLength":48,"byteOffset":540},{"target":34962,"buffer":0,"byteLength":32,"byteOffset":588},{"target":34963,"buffer":0,"byteLength":36,"byteOffset":620},{"target":34962,"buffer":0,"byteLength":48,"byteOffset":656},{"target":34962,"buffer":0,"byteLength":32,"byteOffset":704},{"target":34963,"buffer":0,"byteLength":36,"byteOffset":736},{"target":34962,"buffer":0,"byteLength":36,"byteOffset":772},{"target":34962,"buffer":0,"byteLength":24,"byteOffset":808},{"target":34963,"buffer":0,"byteLength":18,"byteOffset":832},{"target":34962,"buffer":0,"byteLength":48,"byteOffset":852},{"target":34962,"buffer":0,"byteLength":32,"byteOffset":900},{"target":34963,"buffer":0,"byteLength":36,"byteOffset":932},{"target":34962,"buffer":0,"byteLength":36,"byteOffset":968},{"target":34962,"buffer":0,"byteLength":24,"byteOffset":1004},{"target":34963,"buffer":0,"byteLength":18,"byteOffset":1028},{"target":34962,"buffer":0,"byteLength":36,"byteOffset":1048},{"target":34962,"buffer":0,"byteLength":24,"byteOffset":1084},{"target":34963,"buffer":0,"byteLength":18,"byteOffset":1108},{"target":34962,"buffer":0,"byteLength":36,"byteOffset":1128},{"target":34962,"buffer":0,"byteLength":36,"byteOffset":1164},{"target":34962,"buffer":0,"byteLength":24,"byteOffset":1200},{"target":34963,"buffer":0,"byteLength":18,"byteOffset":1224},{"target":34962,"buffer":0,"byteLength":36,"byteOffset":1244},{"target":34962,"buffer":0,"byteLength":36,"byteOffset":1280},{"target":34962,"buffer":0,"byteLength":24,"byteOffset":1316},{"target":34963,"buffer":0,"byteLength":18,"byteOffset":1340},{"target":34962,"buffer":0,"byteLength":36,"byteOffset":1360},{"target":34962,"buffer":0,"byteLength":36,"byteOffset":1396},{"target":34962,"buffer":0,"byteLength":24,"byteOffset":1432},{"target":34963,"buffer":0,"byteLength":18,"byteOffset":1456},{"target":34962,"buffer":0,"byteLength":36,"byteOffset":1476},{"target":34962,"buffer":0,"byteLength":36,"byteOffset":1512},{"target":34962,"buffer":0,"byteLength":24,"byteOffset":1548},{"target":34963,"buffer":0,"byteLength":18,"byteOffset":1572},{"target":34962,"buffer":0,"byteLength":36,"byteOffset":1592},{"target":34962,"buffer":0,"byteLength":24,"byteOffset":1628},{"target":34963,"buffer":0,"byteLength":18,"byteOffset":1652},{"target":34962,"buffer":0,"byteLength":72,"byteOffset":1672},{"target":34962,"buffer":0,"byteLength":48,"byteOffset":1744},{"target":34963,"buffer":0,"byteLength":72,"byteOffset":1792},{"target":34962,"buffer":0,"byteLength":36,"byteOffset":1864},{"target":34962,"buffer":0,"byteLength":36,"byteOffset":1900},{"target":34962,"buffer":0,"byteLength":24,"byteOffset":1936},{"target":34963,"buffer":0,"byteLength":18,"byteOffset":1960},{"target":34962,"buffer":0,"byteLength":36,"byteOffset":1980},{"target":34962,"buffer":0,"byteLength":36,"byteOffset":2016},{"target":34962,"buffer":0,"byteLength":24,"byteOffset":2052},{"target":34963,"buffer":0,"byteLength":18,"byteOffset":2076},{"target":34962,"buffer":0,"byteLength":48,"byteOffset":2096},{"target":34962,"buffer":0,"byteLength":48,"byteOffset":2144},{"target":34962,"buffer":0,"byteLength":32,"byteOffset":2192},{"target":34963,"buffer":0,"byteLength":36,"byteOffset":2224}],"buffers":[{"byteLength":2260,"uri":"data:application/octet-stream;base64,"}]}