{"scene":0,"asset":{"generator":"ImageToStl.com","version":"2.0"},"scenes":[{"name":"Scene","nodes":[0]}],"nodes":[{"name":"Node0","children":[1,2,3,4,5,6,7,8,9,10,11,12,13,14,15,16,17,18,19]},{"name":"Node1","mesh":0},{"name":"Node2","mesh":1},{"name":"Node3","mesh":2},{"name":"Node4","mesh":3},{"name":"Node5","mesh":4},{"name":"Node6","mesh":5},{"name":"Node7","mesh":6},{"name":"Node8","mesh":7},{"name":"Node9","mesh":8},{"name":"Node10","mesh":9},{"name":"Node11","mesh":10},{"name":"Node12","mesh":11},{"name":"Node13","mesh":12},{"name":"Node14","mesh":13},{"name":"Node15","mesh":14},{"name":"Node16","mesh":15},{"name":"Node17","mesh":16},{"name":"Node18","mesh":17},{"name":"Node19","mesh":18}],"materials":[{"name":"Wood","pbrMetallicRoughness":{"baseColorFactor":[0.666667,0.545098,0.356863,1.0],"metallicFactor":0.33,"roughnessFactor":1.0},"doubleSided":true},{"name":"FrontColor","pbrMetallicRoughness":{"baseColorFactor":[1.0,1.0,1.0,1.0],"metallicFactor":0.33,"roughnessFactor":1.0},"doubleSided":true}],"meshes":[{"name":"Mesh0","primitives":[{"indices":3,"material":0,"attributes":{"POSITION":0,"NORMAL":1,"TEXCOORD_0":2}}]},{"name":"Mesh0","primitives":[{"indices":7,"material":0,"attributes":{"POSITION":4,"NORMAL":5,"TEXCOORD_0":6}}]},{"name":"Mesh0","primitives":[{"indices":11,"material":0,"attributes":{"POSITION":8,"NORMAL":9,"TEXCOORD_0":10}}]},{"name":"Mesh0","primitives":[{"indices":15,"material":0,"attributes":{"POSITION":12,"NORMAL":13,"TEXCOORD_0":14}}]},{"name":"Mesh0","primitives":[{"indices":19,"material":0,"attributes":{"POSITION":16,"NORMAL":17,"TEXCOORD_0":18}}]},{"name":"Mesh0","primitives":[{"indices":22,"material":0,"attributes":{"POSITION":20,"TEXCOORD_0":21}}]},{"name":"Mesh0","primitives":[{"indices":25,"material":0,"attributes":{"POSITION":23,"TEXCOORD_0":24}}]},{"name":"Mesh0","primitives":[{"indices":28,"material":0,"attributes":{"POSITION":26,"TEXCOORD_0":27}}]},{"name":"Mesh0","primitives":[{"indices":31,"material":0,"attributes":{"POSITION":29,"TEXCOORD_0":30}}]},{"name":"Mesh0","primitives":[{"indices":34,"material":0,"attributes":{"POSITION":32,"TEXCOORD_0":33}}]},{"name":"Mesh0","primitives":[{"indices":37,"material":0,"attributes":{"POSITION":35,"TEXCOORD_0":36}}]},{"name":"Mesh0","primitives":[{"indices":41,"material":0,"attributes":{"POSITION":38,"NORMAL":39,"TEXCOORD_0":40}}]},{"name":"Mesh0","primitives":[{"indices":45,"material":0,"attributes":{"POSITION":42,"NORMAL":43,"TEXCOORD_0":44}}]},{"name":"Mesh0","primitives":[{"indices":48,"material":0,"attributes":{"POSITION":46,"TEXCOORD_0":47}}]},{"name":"Mesh0","primitives":[{"indices":52,"material":1,"attributes":{"POSITION":49,"NORMAL":50,"TEXCOORD_0":51}}]},{"name":"Mesh0","primitives":[{"indices":56,"material":0,"attributes":{"POSITION":53,"NORMAL":54,"TEXCOORD_0":55}},{"indices":57,"material":1,"attributes":{"POSITION":53,"NORMAL":54,"TEXCOORD_0":55}}]},{"name":"Mesh0","primitives":[{"indices":61,"material":1,"attributes":{"POSITION":58,"NORMAL":59,"TEXCOORD_0":60}}]},{"name":"Mesh0","primitives":[{"indices":64,"material":1,"attributes":{"POSITION":62,"TEXCOORD_0":63}}]},{"name":"Mesh0","primitives":[{"indices":68,"material":1,"attributes":{"POSITION":65,"NORMAL":66,"TEXCOORD_0":67}}]}],"accessors":[{"bufferView":0,"componentType":5126,"count":3,"type":"VEC3","min":[0.0,0.205335,-0.37665],"max":[0.217459,0.353484,-0.12555]},{"bufferView":1,"componentType":5126,"count":3,"type":"VEC3"},{"bufferView":2,"componentType":5126,"count":3,"type":"VEC2"},{"bufferView":3,"componentType":5123,"count":9,"type":"SCALAR"},{"bufferView":4,"componentType":5126,"count":3,"type":"VEC3","min":[0.0,0.205335,-0.2511],"max":[0.217459,0.353484,0.0]},{"bufferView":5,"componentType":5126,"count":3,"type":"VEC3"},{"bufferView":6,"componentType":5126,"count":3,"type":"VEC2"},{"bufferView":7,"componentType":5123,"count":9,"type":"SCALAR"},{"bufferView":8,"componentType":5126,"count":3,"type":"VEC3","min":[0.217459,0.205335,-0.2511],"max":[0.434918,0.353484,0.0]},{"bufferView":9,"componentType":5126,"count":3,"type":"VEC3"},{"bufferView":10,"componentType":5126,"count":3,"type":"VEC2"},{"bufferView":11,"componentType":5123,"count":9,"type":"SCALAR"},{"bufferView":12,"componentType":5126,"count":3,"type":"VEC3","min":[0.217459,0.205335,-0.37665],"max":[0.434918,0.353484,-0.12555]},{"bufferView":13,"componentType":5126,"count":3,"type":"VEC3"},{"bufferView":14,"componentType":5126,"count":3,"type":"VEC2"},{"bufferView":15,"componentType":5123,"count":9,"type":"SCALAR"},{"bufferView":16,"componentType":5126,"count":3,"type":"VEC3","min":[0.298431,0.205335,-0.37665],"max":[0.434918,0.205335,-0.12555]},{"bufferView":17,"componentType":5126,"count":3,"type":"VEC3"},{"bufferView":18,"componentType":5126,"count":3,"type":"VEC2"},{"bufferView":19,"componentType":5123,"count":9,"type":"SCALAR"},{"bufferView":20,"componentType":5126,"count":3,"type":"VEC3","min":[0.217459,0.205335,-0.15983],"max":[0.434918,0.205335,0.0]},{"bufferView":21,"componentType":5126,"count":3,"type":"VEC2"},{"bufferView":22,"componentType":5123,"count":9,"type":"SCALAR"},{"bufferView":23,"componentType":5126,"count":3,"type":"VEC3","min":[0.141048,0.205335,-0.15983],"max":[0.298431,0.205335,0.0]},{"bufferView":24,"componentType":5126,"count":3,"type":"VEC2"},{"bufferView":25,"componentType":5123,"count":9,"type":"SCALAR"},{"bufferView":26,"componentType":5126,"count":3,"type":"VEC3","min":[0.0,0.205335,-0.15983],"max":[0.217459,0.205335,0.0]},{"bufferView":27,"componentType":5126,"count":3,"type":"VEC2"},{"bufferView":28,"componentType":5123,"count":9,"type":"SCALAR"},{"bufferView":29,"componentType":5126,"count":3,"type":"VEC3","min":[0.0,0.205335,-0.317213],"max":[0.141048,0.205335,-0.12555]},{"bufferView":30,"componentType":5126,"count":3,"type":"VEC2"},{"bufferView":31,"componentType":5123,"count":9,"type":"SCALAR"},{"bufferView":32,"componentType":5126,"count":3,"type":"VEC3","min":[0.0,0.205335,-0.5022],"max":[0.217459,0.205335,-0.12555]},{"bufferView":33,"componentType":5126,"count":3,"type":"VEC2"},{"bufferView":34,"componentType":5123,"count":9,"type":"SCALAR"},{"bufferView":35,"componentType":5126,"count":3,"type":"VEC3","min":[0.0,0.205335,-0.5022],"max":[0.217459,0.205335,-0.12555]},{"bufferView":36,"componentType":5126,"count":3,"type":"VEC2"},{"bufferView":37,"componentType":5123,"count":9,"type":"SCALAR"},{"bufferView":38,"componentType":5126,"count":3,"type":"VEC3","min":[0.0,0.205335,-0.5022],"max":[0.217459,0.353484,-0.2511]},{"bufferView":39,"componentType":5126,"count":3,"type":"VEC3"},{"bufferView":40,"componentType":5126,"count":3,"type":"VEC2"},{"bufferView":41,"componentType":5123,"count":9,"type":"SCALAR"},{"bufferView":42,"componentType":5126,"count":3,"type":"VEC3","min":[0.217459,0.205335,-0.5022],"max":[0.434918,0.353484,-0.2511]},{"bufferView":43,"componentType":5126,"count":3,"type":"VEC3"},{"bufferView":44,"componentType":5126,"count":3,"type":"VEC2"},{"bufferView":45,"componentType":5123,"count":9,"type":"SCALAR"},{"bufferView":46,"componentType":5126,"count":4,"type":"VEC3","min":[0.141048,0.205335,-0.5022],"max":[0.434918,0.205335,-0.317213]},{"bufferView":47,"componentType":5126,"count":4,"type":"VEC2"},{"bufferView":48,"componentType":5123,"count":18,"type":"SCALAR"},{"bufferView":49,"componentType":5126,"count":4,"type":"VEC3","min":[0.10229,0.0,-0.355972],"max":[0.33719,0.205335,-0.317213]},{"bufferView":50,"componentType":5126,"count":4,"type":"VEC3"},{"bufferView":51,"componentType":5126,"count":4,"type":"VEC2"},{"bufferView":52,"componentType":5123,"count":18,"type":"SCALAR"},{"bufferView":53,"componentType":5126,"count":9,"type":"VEC3","min":[0.10229,0.0,-0.37665],"max":[0.434918,0.205335,-0.121072]},{"bufferView":54,"componentType":5126,"count":9,"type":"VEC3"},{"bufferView":55,"componentType":5126,"count":9,"type":"VEC2"},{"bufferView":56,"componentType":5123,"count":27,"type":"SCALAR"},{"bufferView":57,"componentType":5123,"count":18,"type":"SCALAR"},{"bufferView":58,"componentType":5126,"count":4,"type":"VEC3","min":[0.298431,0.0,-0.355972],"max":[0.33719,0.205335,-0.121072]},{"bufferView":59,"componentType":5126,"count":4,"type":"VEC3"},{"bufferView":60,"componentType":5126,"count":4,"type":"VEC2"},{"bufferView":61,"componentType":5123,"count":18,"type":"SCALAR"},{"bufferView":62,"componentType":5126,"count":4,"type":"VEC3","min":[0.10229,0.0,-0.355972],"max":[0.33719,0.0,-0.121072]},{"bufferView":63,"componentType":5126,"count":4,"type":"VEC2"},{"bufferView":64,"componentType":5123,"count":18,"type":"SCALAR"},{"bufferView":65,"componentType":5126,"count":4,"type":"VEC3","min":[0.10229,0.0,-0.15983],"max":[0.33719,0.205335,-0.121072]},{"bufferView":66,"componentType":5126,"count":4,"type":"VEC3"},{"bufferView":67,"componentType":5126,"count":4,"type":"VEC2"},{"bufferView":68,"componentType":5123,"count":18,"type":"SCALAR"}],"bufferViews":[{"target":34962,"buffer":0,"byteLength":36,"byteOffset":0},{"target":34962,"buffer":0,"byteLength":36,"byteOffset":36},{"target":34962,"buffer":0,"byteLength":24,"byteOffset":72},{"target":34963,"buffer":0,"byteLength":18,"byteOffset":96},{"target":34962,"buffer":0,"byteLength":36,"byteOffset":116},{"target":34962,"buffer":0,"byteLength":36,"byteOffset":152},{"target":34962,"buffer":0,"byteLength":24,"byteOffset":188},{"target":34963,"buffer":0,"byteLength":18,"byteOffset":212},{"target":34962,"buffer":0,"byteLength":36,"byteOffset":232},{"target":34962,"buffer":0,"byteLength":36,"byteOffset":268},{"target":34962,"buffer":0,"byteLength":24,"byteOffset":304},{"target":34963,"buffer":0,"byteLength":18,"byteOffset":328},{"target":34962,"buffer":0,"byteLength":36,"byteOffset":348},{"target":34962,"buffer":0,"byteLength":36,"byteOffset":384},{"target":34962,"buffer":0,"byteLength":24,"byteOffset":420},{"target":34963,"buffer":0,"byteLength":18,"byteOffset":444},{"target":34962,"buffer":0,"byteLength":36,"byteOffset":464},{"target":34962,"buffer":0,"byteLength":36,"byteOffset":500},{"target":34962,"buffer":0,"byteLength":24,"byteOffset":536},{"target":34963,"buffer":0,"byteLength":18,"byteOffset":560},{"target":34962,"buffer":0,"byteLength":36,"byteOffset":580},{"target":34962,"buffer":0,"byteLength":24,"byteOffset":616},{"target":34963,"buffer":0,"byteLength":18,"byteOffset":640},{"target":34962,"buffer":0,"byteLength":36,"byteOffset":660},{"target":34962,"buffer":0,"byteLength":24,"byteOffset":696},{"target":34963,"buffer":0,"byteLength":18,"byteOffset":720},{"target":34962,"buffer":0,"byteLength":36,"byteOffset":740},{"target":34962,"buffer":0,"byteLength":24,"byteOffset":776},{"target":34963,"buffer":0,"byteLength":18,"byteOffset":800},{"target":34962,"buffer":0,"byteLength":36,"byteOffset":820},{"target":34962,"buffer":0,"byteLength":24,"byteOffset":856},{"target":34963,"buffer":0,"byteLength":18,"byteOffset":880},{"target":34962,"buffer":0,"byteLength":36,"byteOffset":900},{"target":34962,"buffer":0,"byteLength":24,"byteOffset":936},{"target":34963,"buffer":0,"byteLength":18,"byteOffset":960},{"target":34962,"buffer":0,"byteLength":36,"byteOffset":980},{"target":34962,"buffer":0,"byteLength":24,"byteOffset":1016},{"target":34963,"buffer":0,"byteLength":18,"byteOffset":1040},{"target":34962,"buffer":0,"byteLength":36,"byteOffset":1060},{"target":34962,"buffer":0,"byteLength":36,"byteOffset":1096},{"target":34962,"buffer":0,"byteLength":24,"byteOffset":1132},{"target":34963,"buffer":0,"byteLength":18,"byteOffset":1156},{"target":34962,"buffer":0,"byteLength":36,"byteOffset":1176},{"target":34962,"buffer":0,"byteLength":36,"byteOffset":1212},{"target":34962,"buffer":0,"byteLength":24,"byteOffset":1248},{"target":34963,"buffer":0,"byteLength":18,"byteOffset":1272},{"target":34962,"buffer":0,"byteLength":48,"byteOffset":1292},{"target":34962,"buffer":0,"byteLength":32,"byteOffset":1340},{"target":34963,"buffer":0,"byteLength":36,"byteOffset":1372},{"target":34962,"buffer":0,"byteLength":48,"byteOffset":1408},{"target":34962,"buffer":0,"byteLength":48,"byteOffset":1456},{"target":34962,"buffer":0,"byteLength":32,"byteOffset":1504},{"target":34963,"buffer":0,"byteLength":36,"byteOffset":1536},{"target":34962,"buffer":0,"byteLength":108,"byteOffset":1572},{"target":34962,"buffer":0,"byteLength":108,"byteOffset":1680},{"target":34962,"buffer":0,"byteLength":72,"byteOffset":1788},{"target":34963,"buffer":0,"byteLength":54,"byteOffset":1860},{"target":34963,"buffer":0,"byteLength":36,"byteOffset":1916},{"target":34962,"buffer":0,"byteLength":48,"byteOffset":1952},{"target":34962,"buffer":0,"byteLength":48,"byteOffset":2000},{"target":34962,"buffer":0,"byteLength":32,"byteOffset":2048},{"target":34963,"buffer":0,"byteLength":36,"byteOffset":2080},{"target":34962,"buffer":0,"byteLength":48,"byteOffset":2116},{"target":34962,"buffer":0,"byteLength":32,"byteOffset":2164},{"target":34963,"buffer":0,"byteLength":36,"byteOffset":2196},{"target":34962,"buffer":0,"byteLength":48,"byteOffset":2232},{"target":34962,"buffer":0,"byteLength":48,"byteOffset":2280},{"target":34962,"buffer":0,"byteLength":32,"byteOffset":2328},{"target":34963,"buffer":0,"byteLength":36,"byteOffset":2360}],"buffers":[{"byteLength":2396,"uri":"data:application/octet-stream;base64,"}]}