{"scene":0,"asset":{"generator":"ImageToStl.com","version":"2.0"},"scenes":[{"name":"Scene","nodes":[0]}],"nodes":[{"name":"Node0","children":[1,2,3,4,5]},{"name":"Node1","mesh":0},{"name":"Node2","mesh":1},{"name":"Node3","mesh":2},{"name":"Node4","mesh":3},{"name":"Node5","mesh":4}],"materials":[{"name":"Green_leafs","pbrMetallicRoughness":{"baseColorFactor":[0.298039,0.529412,0.427451,1.0],"metallicFactor":0.33,"roughnessFactor":1.0},"doubleSided":true}],"meshes":[{"name":"Mesh0","primitives":[{"indices":3,"material":0,"attributes":{"POSITION":0,"NORMAL":1,"TEXCOORD_0":2}}]},{"name":"Mesh0","primitives":[{"indices":6,"material":0,"attributes":{"POSITION":4,"NORMAL":5}}]},{"name":"Mesh0","primitives":[{"indices":9,"material":0,"attributes":{"POSITION":7,"TEXCOORD_0":8}}]},{"name":"Mesh0","primitives":[{"indices":13,"material":0,"attributes":{"POSITION":10,"NORMAL":11,"TEXCOORD_0":12}}]},{"name":"Mesh0","primitives":[{"indices":16,"material":0,"attributes":{"POSITION":14,"NORMAL":15}}]}],"accessors":[{"bufferView":0,"componentType":5126,"count":6,"type":"VEC3","min":[0.0,0.0,-0.284575],"max":[0.284575,0.517629,-0.284575]},{"bufferView":1,"componentType":5126,"count":6,"type":"VEC3"},{"bufferView":2,"componentType":5126,"count":6,"type":"VEC2"},{"bufferView":3,"componentType":5123,"count":36,"type":"SCALAR"},{"bufferView":4,"componentType":5126,"count":6,"type":"VEC3","min":[0.0,0.0,-0.284575],"max":[0.284575,0.517629,-0.284575]},{"bufferView":5,"componentType":5126,"count":6,"type":"VEC3"},{"bufferView":6,"componentType":5123,"count":12,"type":"SCALAR"},{"bufferView":7,"componentType":5126,"count":6,"type":"VEC3","min":[0.284575,0.0,-0.284575],"max":[0.569151,0.517629,-0.284575]},{"bufferView":8,"componentType":5126,"count":6,"type":"VEC2"},{"bufferView":9,"componentType":5123,"count":72,"type":"SCALAR"},{"bufferView":10,"componentType":5126,"count":10,"type":"VEC3","min":[0.284575,9.38092E-32,-0.569151],"max":[0.284575,0.65119,0.0]},{"bufferView":11,"componentType":5126,"count":10,"type":"VEC3"},{"bufferView":12,"componentType":5126,"count":10,"type":"VEC2"},{"bufferView":13,"componentType":5123,"count":72,"type":"SCALAR"},{"bufferView":14,"componentType":5126,"count":10,"type":"VEC3","min":[0.284575,9.38092E-32,-0.569151],"max":[0.284575,0.65119,0.0]},{"bufferView":15,"componentType":5126,"count":10,"type":"VEC3"},{"bufferView":16,"componentType":5123,"count":24,"type":"SCALAR"}],"bufferViews":[{"target":34962,"buffer":0,"byteLength":72,"byteOffset":0},{"target":34962,"buffer":0,"byteLength":72,"byteOffset":72},{"target":34962,"buffer":0,"byteLength":48,"byteOffset":144},{"target":34963,"buffer":0,"byteLength":72,"byteOffset":192},{"target":34962,"buffer":0,"byteLength":72,"byteOffset":264},{"target":34962,"buffer":0,"byteLength":72,"byteOffset":336},{"target":34963,"buffer":0,"byteLength":24,"byteOffset":408},{"target":34962,"buffer":0,"byteLength":72,"byteOffset":432},{"target":34962,"buffer":0,"byteLength":48,"byteOffset":504},{"target":34963,"buffer":0,"byteLength":144,"byteOffset":552},{"target":34962,"buffer":0,"byteLength":120,"byteOffset":696},{"target":34962,"buffer":0,"byteLength":120,"byteOffset":816},{"target":34962,"buffer":0,"byteLength":80,"byteOffset":936},{"target":34963,"buffer":0,"byteLength":144,"byteOffset":1016},{"target":34962,"buffer":0,"byteLength":120,"byteOffset":1160},{"target":34962,"buffer":0,"byteLength":120,"byteOffset":1280},{"target":34963,"buffer":0,"byteLength":48,"byteOffset":1400}],"buffers":[{"byteLength":1448,"uri":"data:application/octet-stream;base64,"}]}