{"scene":0,"asset":{"generator":"ImageToStl.com","version":"2.0"},"scenes":[{"name":"Scene","nodes":[0]}],"nodes":[{"name":"Node0","children":[1,2,3,4,5,6,7,8,9,10,11,12,13,14,15,16,17,18,19,20,21,22,23,24,25,26,27,28,29,30,31,32,33,34]},{"name":"Node1","mesh":0},{"name":"Node2","mesh":1},{"name":"Node3","mesh":2},{"name":"Node4","mesh":3},{"name":"Node5","mesh":4},{"name":"Node6","mesh":5},{"name":"Node7","mesh":6},{"name":"Node8","mesh":7},{"name":"Node9","mesh":8},{"name":"Node10","mesh":9},{"name":"Node11","mesh":10},{"name":"Node12","mesh":11},{"name":"Node13","mesh":12},{"name":"Node14","mesh":13},{"name":"Node15","mesh":14},{"name":"Node16","mesh":15},{"name":"Node17","mesh":16},{"name":"Node18","mesh":17},{"name":"Node19","mesh":18},{"name":"Node20","mesh":19},{"name":"Node21","mesh":20},{"name":"Node22","mesh":21},{"name":"Node23","mesh":22},{"name":"Node24","mesh":23},{"name":"Node25","mesh":24},{"name":"Node26","mesh":25},{"name":"Node27","mesh":26},{"name":"Node28","mesh":27},{"name":"Node29","mesh":28},{"name":"Node30","mesh":29},{"name":"Node31","mesh":30},{"name":"Node32","mesh":31},{"name":"Node33","mesh":32},{"name":"Node34","mesh":33}],"materials":[{"name":"Green_leafs","pbrMetallicRoughness":{"baseColorFactor":[0.298039,0.529412,0.427451,1.0],"metallicFactor":0.33,"roughnessFactor":1.0},"doubleSided":true}],"meshes":[{"name":"Mesh0","primitives":[{"indices":3,"material":0,"attributes":{"POSITION":0,"NORMAL":1,"TEXCOORD_0":2}}]},{"name":"Mesh0","primitives":[{"indices":6,"material":0,"attributes":{"POSITION":4,"NORMAL":5}}]},{"name":"Mesh0","primitives":[{"indices":10,"material":0,"attributes":{"POSITION":7,"NORMAL":8,"TEXCOORD_0":9}}]},{"name":"Mesh0","primitives":[{"indices":13,"material":0,"attributes":{"POSITION":11,"NORMAL":12}}]},{"name":"Mesh0","primitives":[{"indices":17,"material":0,"attributes":{"POSITION":14,"NORMAL":15,"TEXCOORD_0":16}}]},{"name":"Mesh0","primitives":[{"indices":20,"material":0,"attributes":{"POSITION":18,"NORMAL":19}}]},{"name":"Mesh0","primitives":[{"indices":24,"material":0,"attributes":{"POSITION":21,"NORMAL":22,"TEXCOORD_0":23}}]},{"name":"Mesh0","primitives":[{"indices":27,"material":0,"attributes":{"POSITION":25,"NORMAL":26}}]},{"name":"Mesh0","primitives":[{"indices":31,"material":0,"attributes":{"POSITION":28,"NORMAL":29,"TEXCOORD_0":30}}]},{"name":"Mesh0","primitives":[{"indices":34,"material":0,"attributes":{"POSITION":32,"NORMAL":33}}]},{"name":"Mesh0","primitives":[{"indices":38,"material":0,"attributes":{"POSITION":35,"NORMAL":36,"TEXCOORD_0":37}}]},{"name":"Mesh0","primitives":[{"indices":41,"material":0,"attributes":{"POSITION":39,"NORMAL":40}}]},{"name":"Mesh0","primitives":[{"indices":45,"material":0,"attributes":{"POSITION":42,"NORMAL":43,"TEXCOORD_0":44}}]},{"name":"Mesh0","primitives":[{"indices":48,"material":0,"attributes":{"POSITION":46,"NORMAL":47}}]},{"name":"Mesh0","primitives":[{"indices":52,"material":0,"attributes":{"POSITION":49,"NORMAL":50,"TEXCOORD_0":51}}]},{"name":"Mesh0","primitives":[{"indices":55,"material":0,"attributes":{"POSITION":53,"NORMAL":54}}]},{"name":"Mesh0","primitives":[{"indices":59,"material":0,"attributes":{"POSITION":56,"NORMAL":57,"TEXCOORD_0":58}}]},{"name":"Mesh0","primitives":[{"indices":62,"material":0,"attributes":{"POSITION":60,"NORMAL":61}}]},{"name":"Mesh0","primitives":[{"indices":66,"material":0,"attributes":{"POSITION":63,"NORMAL":64,"TEXCOORD_0":65}}]},{"name":"Mesh0","primitives":[{"indices":69,"material":0,"attributes":{"POSITION":67,"NORMAL":68}}]},{"name":"Mesh0","primitives":[{"indices":73,"material":0,"attributes":{"POSITION":70,"NORMAL":71,"TEXCOORD_0":72}}]},{"name":"Mesh0","primitives":[{"indices":76,"material":0,"attributes":{"POSITION":74,"NORMAL":75}}]},{"name":"Mesh0","primitives":[{"indices":80,"material":0,"attributes":{"POSITION":77,"NORMAL":78,"TEXCOORD_0":79}}]},{"name":"Mesh0","primitives":[{"indices":83,"material":0,"attributes":{"POSITION":81,"NORMAL":82}}]},{"name":"Mesh0","primitives":[{"indices":87,"material":0,"attributes":{"POSITION":84,"NORMAL":85,"TEXCOORD_0":86}}]},{"name":"Mesh0","primitives":[{"indices":90,"material":0,"attributes":{"POSITION":88,"NORMAL":89}}]},{"name":"Mesh0","primitives":[{"indices":94,"material":0,"attributes":{"POSITION":91,"NORMAL":92,"TEXCOORD_0":93}}]},{"name":"Mesh0","primitives":[{"indices":97,"material":0,"attributes":{"POSITION":95,"NORMAL":96}}]},{"name":"Mesh0","primitives":[{"indices":101,"material":0,"attributes":{"POSITION":98,"NORMAL":99,"TEXCOORD_0":100}}]},{"name":"Mesh0","primitives":[{"indices":104,"material":0,"attributes":{"POSITION":102,"NORMAL":103}}]},{"name":"Mesh0","primitives":[{"indices":108,"material":0,"attributes":{"POSITION":105,"NORMAL":106,"TEXCOORD_0":107}}]},{"name":"Mesh0","primitives":[{"indices":111,"material":0,"attributes":{"POSITION":109,"NORMAL":110}}]},{"name":"Mesh0","primitives":[{"indices":115,"material":0,"attributes":{"POSITION":112,"NORMAL":113,"TEXCOORD_0":114}}]},{"name":"Mesh0","primitives":[{"indices":118,"material":0,"attributes":{"POSITION":116,"NORMAL":117}}]}],"accessors":[{"bufferView":0,"componentType":5126,"count":4,"type":"VEC3","min":[0.662239,0.0986,-0.696363],"max":[0.769823,0.557804,-0.336363]},{"bufferView":1,"componentType":5126,"count":4,"type":"VEC3"},{"bufferView":2,"componentType":5126,"count":4,"type":"VEC2"},{"bufferView":3,"componentType":5123,"count":18,"type":"SCALAR"},{"bufferView":4,"componentType":5126,"count":4,"type":"VEC3","min":[0.662239,0.0986,-0.696363],"max":[0.769823,0.557804,-0.336363]},{"bufferView":5,"componentType":5126,"count":4,"type":"VEC3"},{"bufferView":6,"componentType":5123,"count":6,"type":"SCALAR"},{"bufferView":7,"componentType":5126,"count":4,"type":"VEC3","min":[0.769823,0.557804,-0.696363],"max":[0.966493,0.696081,-0.336363]},{"bufferView":8,"componentType":5126,"count":4,"type":"VEC3"},{"bufferView":9,"componentType":5126,"count":4,"type":"VEC2"},{"bufferView":10,"componentType":5123,"count":18,"type":"SCALAR"},{"bufferView":11,"componentType":5126,"count":4,"type":"VEC3","min":[0.769823,0.557804,-0.696363],"max":[0.966493,0.696081,-0.336363]},{"bufferView":12,"componentType":5126,"count":4,"type":"VEC3"},{"bufferView":13,"componentType":5123,"count":6,"type":"SCALAR"},{"bufferView":14,"componentType":5126,"count":3,"type":"VEC3","min":[0.966493,0.544027,-0.626163],"max":[1.14972,0.696081,-0.406563]},{"bufferView":15,"componentType":5126,"count":3,"type":"VEC3"},{"bufferView":16,"componentType":5126,"count":3,"type":"VEC2"},{"bufferView":17,"componentType":5123,"count":9,"type":"SCALAR"},{"bufferView":18,"componentType":5126,"count":3,"type":"VEC3","min":[0.966493,0.544027,-0.626163],"max":[1.14972,0.696081,-0.406563]},{"bufferView":19,"componentType":5126,"count":3,"type":"VEC3"},{"bufferView":20,"componentType":5123,"count":3,"type":"SCALAR"},{"bufferView":21,"componentType":5126,"count":4,"type":"VEC3","min":[0.572239,1.12799E-17,-0.696363],"max":[0.662239,0.0986,-0.336363]},{"bufferView":22,"componentType":5126,"count":4,"type":"VEC3"},{"bufferView":23,"componentType":5126,"count":4,"type":"VEC2"},{"bufferView":24,"componentType":5123,"count":18,"type":"SCALAR"},{"bufferView":25,"componentType":5126,"count":4,"type":"VEC3","min":[0.572239,1.12799E-17,-0.696363],"max":[0.662239,0.0986,-0.336363]},{"bufferView":26,"componentType":5126,"count":4,"type":"VEC3"},{"bufferView":27,"componentType":5123,"count":6,"type":"SCALAR"},{"bufferView":28,"componentType":5126,"count":4,"type":"VEC3","min":[0.302239,0.0,-0.696363],"max":[0.662239,0.0986,-0.606363]},{"bufferView":29,"componentType":5126,"count":4,"type":"VEC3"},{"bufferView":30,"componentType":5126,"count":4,"type":"VEC2"},{"bufferView":31,"componentType":5123,"count":18,"type":"SCALAR"},{"bufferView":32,"componentType":5126,"count":4,"type":"VEC3","min":[0.302239,0.0,-0.696363],"max":[0.662239,0.0986,-0.606363]},{"bufferView":33,"componentType":5126,"count":4,"type":"VEC3"},{"bufferView":34,"componentType":5123,"count":6,"type":"SCALAR"},{"bufferView":35,"componentType":5126,"count":4,"type":"VEC3","min":[0.302239,0.0,-0.696363],"max":[0.392239,0.0986,-0.336363]},{"bufferView":36,"componentType":5126,"count":4,"type":"VEC3"},{"bufferView":37,"componentType":5126,"count":4,"type":"VEC2"},{"bufferView":38,"componentType":5123,"count":18,"type":"SCALAR"},{"bufferView":39,"componentType":5126,"count":4,"type":"VEC3","min":[0.302239,0.0,-0.696363],"max":[0.392239,0.0986,-0.336363]},{"bufferView":40,"componentType":5126,"count":4,"type":"VEC3"},{"bufferView":41,"componentType":5123,"count":6,"type":"SCALAR"},{"bufferView":42,"componentType":5126,"count":4,"type":"VEC3","min":[0.302239,1.12799E-17,-0.426363],"max":[0.662239,0.0986,-0.336363]},{"bufferView":43,"componentType":5126,"count":4,"type":"VEC3"},{"bufferView":44,"componentType":5126,"count":4,"type":"VEC2"},{"bufferView":45,"componentType":5123,"count":18,"type":"SCALAR"},{"bufferView":46,"componentType":5126,"count":4,"type":"VEC3","min":[0.302239,1.12799E-17,-0.426363],"max":[0.662239,0.0986,-0.336363]},{"bufferView":47,"componentType":5126,"count":4,"type":"VEC3"},{"bufferView":48,"componentType":5123,"count":6,"type":"SCALAR"},{"bufferView":49,"componentType":5126,"count":4,"type":"VEC3","min":[0.392239,0.0,-0.606363],"max":[0.572239,1.12799E-17,-0.426363]},{"bufferView":50,"componentType":5126,"count":4,"type":"VEC3"},{"bufferView":51,"componentType":5126,"count":4,"type":"VEC2"},{"bufferView":52,"componentType":5123,"count":18,"type":"SCALAR"},{"bufferView":53,"componentType":5126,"count":4,"type":"VEC3","min":[0.392239,0.0,-0.606363],"max":[0.572239,1.12799E-17,-0.426363]},{"bufferView":54,"componentType":5126,"count":4,"type":"VEC3"},{"bufferView":55,"componentType":5123,"count":6,"type":"SCALAR"},{"bufferView":56,"componentType":5126,"count":4,"type":"VEC3","min":[0.302239,0.0986,-0.336363],"max":[0.662239,0.362757,-0.24143]},{"bufferView":57,"componentType":5126,"count":4,"type":"VEC3"},{"bufferView":58,"componentType":5126,"count":4,"type":"VEC2"},{"bufferView":59,"componentType":5123,"count":18,"type":"SCALAR"},{"bufferView":60,"componentType":5126,"count":4,"type":"VEC3","min":[0.302239,0.0986,-0.336363],"max":[0.662239,0.362757,-0.24143]},{"bufferView":61,"componentType":5126,"count":4,"type":"VEC3"},{"bufferView":62,"componentType":5123,"count":6,"type":"SCALAR"},{"bufferView":63,"componentType":5126,"count":4,"type":"VEC3","min":[0.302239,0.362757,-0.24143],"max":[0.662239,0.48832,-0.126427]},{"bufferView":64,"componentType":5126,"count":4,"type":"VEC3"},{"bufferView":65,"componentType":5126,"count":4,"type":"VEC2"},{"bufferView":66,"componentType":5123,"count":18,"type":"SCALAR"},{"bufferView":67,"componentType":5126,"count":4,"type":"VEC3","min":[0.302239,0.362757,-0.24143],"max":[0.662239,0.48832,-0.126427]},{"bufferView":68,"componentType":5126,"count":4,"type":"VEC3"},{"bufferView":69,"componentType":5123,"count":6,"type":"SCALAR"},{"bufferView":70,"componentType":5126,"count":3,"type":"VEC3","min":[0.372439,0.354831,-0.126427],"max":[0.592039,0.48832,0.0]},{"bufferView":71,"componentType":5126,"count":3,"type":"VEC3"},{"bufferView":72,"componentType":5126,"count":3,"type":"VEC2"},{"bufferView":73,"componentType":5123,"count":9,"type":"SCALAR"},{"bufferView":74,"componentType":5126,"count":3,"type":"VEC3","min":[0.372439,0.354831,-0.126427],"max":[0.592039,0.48832,0.0]},{"bufferView":75,"componentType":5126,"count":3,"type":"VEC3"},{"bufferView":76,"componentType":5123,"count":3,"type":"SCALAR"},{"bufferView":77,"componentType":5126,"count":4,"type":"VEC3","min":[0.246937,0.0986,-0.696363],"max":[0.302239,0.455569,-0.336363]},{"bufferView":78,"componentType":5126,"count":4,"type":"VEC3"},{"bufferView":79,"componentType":5126,"count":4,"type":"VEC2"},{"bufferView":80,"componentType":5123,"count":18,"type":"SCALAR"},{"bufferView":81,"componentType":5126,"count":4,"type":"VEC3","min":[0.246937,0.0986,-0.696363],"max":[0.302239,0.455569,-0.336363]},{"bufferView":82,"componentType":5126,"count":4,"type":"VEC3"},{"bufferView":83,"componentType":5123,"count":6,"type":"SCALAR"},{"bufferView":84,"componentType":5126,"count":4,"type":"VEC3","min":[0.113601,0.455569,-0.696363],"max":[0.246937,0.565249,-0.336363]},{"bufferView":85,"componentType":5126,"count":4,"type":"VEC3"},{"bufferView":86,"componentType":5126,"count":4,"type":"VEC2"},{"bufferView":87,"componentType":5123,"count":18,"type":"SCALAR"},{"bufferView":88,"componentType":5126,"count":4,"type":"VEC3","min":[0.113601,0.455569,-0.696363],"max":[0.246937,0.565249,-0.336363]},{"bufferView":89,"componentType":5126,"count":4,"type":"VEC3"},{"bufferView":90,"componentType":5123,"count":6,"type":"SCALAR"},{"bufferView":91,"componentType":5126,"count":3,"type":"VEC3","min":[0.0,0.444859,-0.626163],"max":[0.113601,0.565249,-0.406563]},{"bufferView":92,"componentType":5126,"count":3,"type":"VEC3"},{"bufferView":93,"componentType":5126,"count":3,"type":"VEC2"},{"bufferView":94,"componentType":5123,"count":9,"type":"SCALAR"},{"bufferView":95,"componentType":5126,"count":3,"type":"VEC3","min":[0.0,0.444859,-0.626163],"max":[0.113601,0.565249,-0.406563]},{"bufferView":96,"componentType":5126,"count":3,"type":"VEC3"},{"bufferView":97,"componentType":5123,"count":3,"type":"SCALAR"},{"bufferView":98,"componentType":5126,"count":4,"type":"VEC3","min":[0.302239,0.0986,-0.777805],"max":[0.672239,0.387745,-0.696363]},{"bufferView":99,"componentType":5126,"count":4,"type":"VEC3"},{"bufferView":100,"componentType":5126,"count":4,"type":"VEC2"},{"bufferView":101,"componentType":5123,"count":18,"type":"SCALAR"},{"bufferView":102,"componentType":5126,"count":4,"type":"VEC3","min":[0.302239,0.0986,-0.777805],"max":[0.672239,0.387745,-0.696363]},{"bufferView":103,"componentType":5126,"count":4,"type":"VEC3"},{"bufferView":104,"componentType":5123,"count":6,"type":"SCALAR"},{"bufferView":105,"componentType":5126,"count":4,"type":"VEC3","min":[0.312239,0.387745,-0.942809],"max":[0.672239,0.525185,-0.777805]},{"bufferView":106,"componentType":5126,"count":4,"type":"VEC3"},{"bufferView":107,"componentType":5126,"count":4,"type":"VEC2"},{"bufferView":108,"componentType":5123,"count":18,"type":"SCALAR"},{"bufferView":109,"componentType":5126,"count":4,"type":"VEC3","min":[0.312239,0.387745,-0.942809],"max":[0.672239,0.525185,-0.777805]},{"bufferView":110,"componentType":5126,"count":4,"type":"VEC3"},{"bufferView":111,"componentType":5123,"count":6,"type":"SCALAR"},{"bufferView":112,"componentType":5126,"count":3,"type":"VEC3","min":[0.372439,0.379069,-1.09122],"max":[0.592039,0.525185,-0.942809]},{"bufferView":113,"componentType":5126,"count":3,"type":"VEC3"},{"bufferView":114,"componentType":5126,"count":3,"type":"VEC2"},{"bufferView":115,"componentType":5123,"count":9,"type":"SCALAR"},{"bufferView":116,"componentType":5126,"count":3,"type":"VEC3","min":[0.372439,0.379069,-1.09122],"max":[0.592039,0.525185,-0.942809]},{"bufferView":117,"componentType":5126,"count":3,"type":"VEC3"},{"bufferView":118,"componentType":5123,"count":3,"type":"SCALAR"}],"bufferViews":[{"target":34962,"buffer":0,"byteLength":48,"byteOffset":0},{"target":34962,"buffer":0,"byteLength":48,"byteOffset":48},{"target":34962,"buffer":0,"byteLength":32,"byteOffset":96},{"target":34963,"buffer":0,"byteLength":36,"byteOffset":128},{"target":34962,"buffer":0,"byteLength":48,"byteOffset":164},{"target":34962,"buffer":0,"byteLength":48,"byteOffset":212},{"target":34963,"buffer":0,"byteLength":12,"byteOffset":260},{"target":34962,"buffer":0,"byteLength":48,"byteOffset":272},{"target":34962,"buffer":0,"byteLength":48,"byteOffset":320},{"target":34962,"buffer":0,"byteLength":32,"byteOffset":368},{"target":34963,"buffer":0,"byteLength":36,"byteOffset":400},{"target":34962,"buffer":0,"byteLength":48,"byteOffset":436},{"target":34962,"buffer":0,"byteLength":48,"byteOffset":484},{"target":34963,"buffer":0,"byteLength":12,"byteOffset":532},{"target":34962,"buffer":0,"byteLength":36,"byteOffset":544},{"target":34962,"buffer":0,"byteLength":36,"byteOffset":580},{"target":34962,"buffer":0,"byteLength":24,"byteOffset":616},{"target":34963,"buffer":0,"byteLength":18,"byteOffset":640},{"target":34962,"buffer":0,"byteLength":36,"byteOffset":660},{"target":34962,"buffer":0,"byteLength":36,"byteOffset":696},{"target":34963,"buffer":0,"byteLength":6,"byteOffset":732},{"target":34962,"buffer":0,"byteLength":48,"byteOffset":740},{"target":34962,"buffer":0,"byteLength":48,"byteOffset":788},{"target":34962,"buffer":0,"byteLength":32,"byteOffset":836},{"target":34963,"buffer":0,"byteLength":36,"byteOffset":868},{"target":34962,"buffer":0,"byteLength":48,"byteOffset":904},{"target":34962,"buffer":0,"byteLength":48,"byteOffset":952},{"target":34963,"buffer":0,"byteLength":12,"byteOffset":1000},{"target":34962,"buffer":0,"byteLength":48,"byteOffset":1012},{"target":34962,"buffer":0,"byteLength":48,"byteOffset":1060},{"target":34962,"buffer":0,"byteLength":32,"byteOffset":1108},{"target":34963,"buffer":0,"byteLength":36,"byteOffset":1140},{"target":34962,"buffer":0,"byteLength":48,"byteOffset":1176},{"target":34962,"buffer":0,"byteLength":48,"byteOffset":1224},{"target":34963,"buffer":0,"byteLength":12,"byteOffset":1272},{"target":34962,"buffer":0,"byteLength":48,"byteOffset":1284},{"target":34962,"buffer":0,"byteLength":48,"byteOffset":1332},{"target":34962,"buffer":0,"byteLength":32,"byteOffset":1380},{"target":34963,"buffer":0,"byteLength":36,"byteOffset":1412},{"target":34962,"buffer":0,"byteLength":48,"byteOffset":1448},{"target":34962,"buffer":0,"byteLength":48,"byteOffset":1496},{"target":34963,"buffer":0,"byteLength":12,"byteOffset":1544},{"target":34962,"buffer":0,"byteLength":48,"byteOffset":1556},{"target":34962,"buffer":0,"byteLength":48,"byteOffset":1604},{"target":34962,"buffer":0,"byteLength":32,"byteOffset":1652},{"target":34963,"buffer":0,"byteLength":36,"byteOffset":1684},{"target":34962,"buffer":0,"byteLength":48,"byteOffset":1720},{"target":34962,"buffer":0,"byteLength":48,"byteOffset":1768},{"target":34963,"buffer":0,"byteLength":12,"byteOffset":1816},{"target":34962,"buffer":0,"byteLength":48,"byteOffset":1828},{"target":34962,"buffer":0,"byteLength":48,"byteOffset":1876},{"target":34962,"buffer":0,"byteLength":32,"byteOffset":1924},{"target":34963,"buffer":0,"byteLength":36,"byteOffset":1956},{"target":34962,"buffer":0,"byteLength":48,"byteOffset":1992},{"target":34962,"buffer":0,"byteLength":48,"byteOffset":2040},{"target":34963,"buffer":0,"byteLength":12,"byteOffset":2088},{"target":34962,"buffer":0,"byteLength":48,"byteOffset":2100},{"target":34962,"buffer":0,"byteLength":48,"byteOffset":2148},{"target":34962,"buffer":0,"byteLength":32,"byteOffset":2196},{"target":34963,"buffer":0,"byteLength":36,"byteOffset":2228},{"target":34962,"buffer":0,"byteLength":48,"byteOffset":2264},{"target":34962,"buffer":0,"byteLength":48,"byteOffset":2312},{"target":34963,"buffer":0,"byteLength":12,"byteOffset":2360},{"target":34962,"buffer":0,"byteLength":48,"byteOffset":2372},{"target":34962,"buffer":0,"byteLength":48,"byteOffset":2420},{"target":34962,"buffer":0,"byteLength":32,"byteOffset":2468},{"target":34963,"buffer":0,"byteLength":36,"byteOffset":2500},{"target":34962,"buffer":0,"byteLength":48,"byteOffset":2536},{"target":34962,"buffer":0,"byteLength":48,"byteOffset":2584},{"target":34963,"buffer":0,"byteLength":12,"byteOffset":2632},{"target":34962,"buffer":0,"byteLength":36,"byteOffset":2644},{"target":34962,"buffer":0,"byteLength":36,"byteOffset":2680},{"target":34962,"buffer":0,"byteLength":24,"byteOffset":2716},{"target":34963,"buffer":0,"byteLength":18,"byteOffset":2740},{"target":34962,"buffer":0,"byteLength":36,"byteOffset":2760},{"target":34962,"buffer":0,"byteLength":36,"byteOffset":2796},{"target":34963,"buffer":0,"byteLength":6,"byteOffset":2832},{"target":34962,"buffer":0,"byteLength":48,"byteOffset":2840},{"target":34962,"buffer":0,"byteLength":48,"byteOffset":2888},{"target":34962,"buffer":0,"byteLength":32,"byteOffset":2936},{"target":34963,"buffer":0,"byteLength":36,"byteOffset":2968},{"target":34962,"buffer":0,"byteLength":48,"byteOffset":3004},{"target":34962,"buffer":0,"byteLength":48,"byteOffset":3052},{"target":34963,"buffer":0,"byteLength":12,"byteOffset":3100},{"target":34962,"buffer":0,"byteLength":48,"byteOffset":3112},{"target":34962,"buffer":0,"byteLength":48,"byteOffset":3160},{"target":34962,"buffer":0,"byteLength":32,"byteOffset":3208},{"target":34963,"buffer":0,"byteLength":36,"byteOffset":3240},{"target":34962,"buffer":0,"byteLength":48,"byteOffset":3276},{"target":34962,"buffer":0,"byteLength":48,"byteOffset":3324},{"target":34963,"buffer":0,"byteLength":12,"byteOffset":3372},{"target":34962,"buffer":0,"byteLength":36,"byteOffset":3384},{"target":34962,"buffer":0,"byteLength":36,"byteOffset":3420},{"target":34962,"buffer":0,"byteLength":24,"byteOffset":3456},{"target":34963,"buffer":0,"byteLength":18,"byteOffset":3480},{"target":34962,"buffer":0,"byteLength":36,"byteOffset":3500},{"target":34962,"buffer":0,"byteLength":36,"byteOffset":3536},{"target":34963,"buffer":0,"byteLength":6,"byteOffset":3572},{"target":34962,"buffer":0,"byteLength":48,"byteOffset":3580},{"target":34962,"buffer":0,"byteLength":48,"byteOffset":3628},{"target":34962,"buffer":0,"byteLength":32,"byteOffset":3676},{"target":34963,"buffer":0,"byteLength":36,"byteOffset":3708},{"target":34962,"buffer":0,"byteLength":48,"byteOffset":3744},{"target":34962,"buffer":0,"byteLength":48,"byteOffset":3792},{"target":34963,"buffer":0,"byteLength":12,"byteOffset":3840},{"target":34962,"buffer":0,"byteLength":48,"byteOffset":3852},{"target":34962,"buffer":0,"byteLength":48,"byteOffset":3900},{"target":34962,"buffer":0,"byteLength":32,"byteOffset":3948},{"target":34963,"buffer":0,"byteLength":36,"byteOffset":3980},{"target":34962,"buffer":0,"byteLength":48,"byteOffset":4016},{"target":34962,"buffer":0,"byteLength":48,"byteOffset":4064},{"target":34963,"buffer":0,"byteLength":12,"byteOffset":4112},{"target":34962,"buffer":0,"byteLength":36,"byteOffset":4124},{"target":34962,"buffer":0,"byteLength":36,"byteOffset":4160},{"target":34962,"buffer":0,"byteLength":24,"byteOffset":4196},{"target":34963,"buffer":0,"byteLength":18,"byteOffset":4220},{"target":34962,"buffer":0,"byteLength":36,"byteOffset":4240},{"target":34962,"buffer":0,"byteLength":36,"byteOffset":4276},{"target":34963,"buffer":0,"byteLength":6,"byteOffset":4312}],"buffers":[{"byteLength":4320,"uri":"data:application/octet-stream;base64,"}]}