{"scene":0,"asset":{"generator":"ImageToStl.com","version":"2.0"},"scenes":[{"name":"Scene","nodes":[0]}],"nodes":[{"name":"Node0","children":[1,2,3,4,5,6,7,8]},{"name":"Node1","mesh":0},{"name":"Node2","mesh":1},{"name":"Node3","mesh":2},{"name":"Node4","mesh":3},{"name":"Node5","mesh":4},{"name":"Node6","mesh":5},{"name":"Node7","mesh":6},{"name":"Node8","mesh":7}],"materials":[{"name":"Green_leafs","pbrMetallicRoughness":{"baseColorFactor":[0.298039,0.529412,0.427451,1.0],"metallicFactor":0.33,"roughnessFactor":1.0},"doubleSided":true}],"meshes":[{"name":"Mesh0","primitives":[{"indices":3,"material":0,"attributes":{"POSITION":0,"NORMAL":1,"TEXCOORD_0":2}}]},{"name":"Mesh0","primitives":[{"indices":6,"material":0,"attributes":{"POSITION":4,"NORMAL":5}}]},{"name":"Mesh0","primitives":[{"indices":10,"material":0,"attributes":{"POSITION":7,"NORMAL":8,"TEXCOORD_0":9}}]},{"name":"Mesh0","primitives":[{"indices":13,"material":0,"attributes":{"POSITION":11,"NORMAL":12}}]},{"name":"Mesh0","primitives":[{"indices":17,"material":0,"attributes":{"POSITION":14,"NORMAL":15,"TEXCOORD_0":16}}]},{"name":"Mesh0","primitives":[{"indices":20,"material":0,"attributes":{"POSITION":18,"NORMAL":19}}]},{"name":"Mesh0","primitives":[{"indices":24,"material":0,"attributes":{"POSITION":21,"NORMAL":22,"TEXCOORD_0":23}}]},{"name":"Mesh0","primitives":[{"indices":27,"material":0,"attributes":{"POSITION":25,"NORMAL":26}}]}],"accessors":[{"bufferView":0,"componentType":5126,"count":7,"type":"VEC3","min":[0.375162,0.0,-0.375162],"max":[0.375162,0.63535,0.0]},{"bufferView":1,"componentType":5126,"count":7,"type":"VEC3"},{"bufferView":2,"componentType":5126,"count":7,"type":"VEC2"},{"bufferView":3,"componentType":5123,"count":45,"type":"SCALAR"},{"bufferView":4,"componentType":5126,"count":7,"type":"VEC3","min":[0.375162,0.0,-0.375162],"max":[0.375162,0.63535,0.0]},{"bufferView":5,"componentType":5126,"count":7,"type":"VEC3"},{"bufferView":6,"componentType":5123,"count":15,"type":"SCALAR"},{"bufferView":7,"componentType":5126,"count":7,"type":"VEC3","min":[0.375162,0.0,-0.750324],"max":[0.375162,0.63535,-0.375162]},{"bufferView":8,"componentType":5126,"count":7,"type":"VEC3"},{"bufferView":9,"componentType":5126,"count":7,"type":"VEC2"},{"bufferView":10,"componentType":5123,"count":45,"type":"SCALAR"},{"bufferView":11,"componentType":5126,"count":7,"type":"VEC3","min":[0.375162,0.0,-0.750324],"max":[0.375162,0.63535,-0.375162]},{"bufferView":12,"componentType":5126,"count":7,"type":"VEC3"},{"bufferView":13,"componentType":5123,"count":15,"type":"SCALAR"},{"bufferView":14,"componentType":5126,"count":7,"type":"VEC3","min":[0.375162,0.0,-0.375162],"max":[0.750324,0.63535,-0.375162]},{"bufferView":15,"componentType":5126,"count":7,"type":"VEC3"},{"bufferView":16,"componentType":5126,"count":7,"type":"VEC2"},{"bufferView":17,"componentType":5123,"count":45,"type":"SCALAR"},{"bufferView":18,"componentType":5126,"count":7,"type":"VEC3","min":[0.375162,0.0,-0.375162],"max":[0.750324,0.63535,-0.375162]},{"bufferView":19,"componentType":5126,"count":7,"type":"VEC3"},{"bufferView":20,"componentType":5123,"count":15,"type":"SCALAR"},{"bufferView":21,"componentType":5126,"count":7,"type":"VEC3","min":[0.0,0.0,-0.375162],"max":[0.375162,0.63535,-0.375162]},{"bufferView":22,"componentType":5126,"count":7,"type":"VEC3"},{"bufferView":23,"componentType":5126,"count":7,"type":"VEC2"},{"bufferView":24,"componentType":5123,"count":45,"type":"SCALAR"},{"bufferView":25,"componentType":5126,"count":7,"type":"VEC3","min":[0.0,0.0,-0.375162],"max":[0.375162,0.63535,-0.375162]},{"bufferView":26,"componentType":5126,"count":7,"type":"VEC3"},{"bufferView":27,"componentType":5123,"count":15,"type":"SCALAR"}],"bufferViews":[{"target":34962,"buffer":0,"byteLength":84,"byteOffset":0},{"target":34962,"buffer":0,"byteLength":84,"byteOffset":84},{"target":34962,"buffer":0,"byteLength":56,"byteOffset":168},{"target":34963,"buffer":0,"byteLength":90,"byteOffset":224},{"target":34962,"buffer":0,"byteLength":84,"byteOffset":316},{"target":34962,"buffer":0,"byteLength":84,"byteOffset":400},{"target":34963,"buffer":0,"byteLength":30,"byteOffset":484},{"target":34962,"buffer":0,"byteLength":84,"byteOffset":516},{"target":34962,"buffer":0,"byteLength":84,"byteOffset":600},{"target":34962,"buffer":0,"byteLength":56,"byteOffset":684},{"target":34963,"buffer":0,"byteLength":90,"byteOffset":740},{"target":34962,"buffer":0,"byteLength":84,"byteOffset":832},{"target":34962,"buffer":0,"byteLength":84,"byteOffset":916},{"target":34963,"buffer":0,"byteLength":30,"byteOffset":1000},{"target":34962,"buffer":0,"byteLength":84,"byteOffset":1032},{"target":34962,"buffer":0,"byteLength":84,"byteOffset":1116},{"target":34962,"buffer":0,"byteLength":56,"byteOffset":1200},{"target":34963,"buffer":0,"byteLength":90,"byteOffset":1256},{"target":34962,"buffer":0,"byteLength":84,"byteOffset":1348},{"target":34962,"buffer":0,"byteLength":84,"byteOffset":1432},{"target":34963,"buffer":0,"byteLength":30,"byteOffset":1516},{"target":34962,"buffer":0,"byteLength":84,"byteOffset":1548},{"target":34962,"buffer":0,"byteLength":84,"byteOffset":1632},{"target":34962,"buffer":0,"byteLength":56,"byteOffset":1716},{"target":34963,"buffer":0,"byteLength":90,"byteOffset":1772},{"target":34962,"buffer":0,"byteLength":84,"byteOffset":1864},{"target":34962,"buffer":0,"byteLength":84,"byteOffset":1948},{"target":34963,"buffer":0,"byteLength":30,"byteOffset":2032}],"buffers":[{"byteLength":2064,"uri":"data:application/octet-stream;base64,"}]}