{"scene":0,"asset":{"generator":"ImageToStl.com","version":"2.0"},"scenes":[{"name":"Scene","nodes":[0]}],"nodes":[{"name":"Node0","children":[1,2,3,4,5,6,7,8,9,10,11,12,13,14,15,16,17,18,19,20,21,22,23,24]},{"name":"Node1","mesh":0},{"name":"Node2","mesh":1},{"name":"Node3","mesh":2},{"name":"Node4","mesh":3},{"name":"Node5","mesh":4},{"name":"Node6","mesh":5},{"name":"Node7","mesh":6},{"name":"Node8","mesh":7},{"name":"Node9","mesh":8},{"name":"Node10","mesh":9},{"name":"Node11","mesh":10},{"name":"Node12","mesh":11},{"name":"Node13","mesh":12},{"name":"Node14","mesh":13},{"name":"Node15","mesh":14},{"name":"Node16","mesh":15},{"name":"Node17","mesh":16},{"name":"Node18","mesh":17},{"name":"Node19","mesh":18},{"name":"Node20","mesh":19},{"name":"Node21","mesh":20},{"name":"Node22","mesh":21},{"name":"Node23","mesh":22},{"name":"Node24","mesh":23}],"materials":[{"name":"Stone","pbrMetallicRoughness":{"baseColorFactor":[0.72549,0.752941,0.788235,1.0],"metallicFactor":0.33,"roughnessFactor":1.0},"doubleSided":true}],"meshes":[{"name":"Mesh0","primitives":[{"indices":3,"material":0,"attributes":{"POSITION":0,"NORMAL":1,"TEXCOORD_0":2}}]},{"name":"Mesh0","primitives":[{"indices":7,"material":0,"attributes":{"POSITION":4,"NORMAL":5,"TEXCOORD_0":6}}]},{"name":"Mesh0","primitives":[{"indices":11,"material":0,"attributes":{"POSITION":8,"NORMAL":9,"TEXCOORD_0":10}}]},{"name":"Mesh0","primitives":[{"indices":15,"material":0,"attributes":{"POSITION":12,"NORMAL":13,"TEXCOORD_0":14}}]},{"name":"Mesh0","primitives":[{"indices":19,"material":0,"attributes":{"POSITION":16,"NORMAL":17,"TEXCOORD_0":18}}]},{"name":"Mesh0","primitives":[{"indices":23,"material":0,"attributes":{"POSITION":20,"NORMAL":21,"TEXCOORD_0":22}}]},{"name":"Mesh0","primitives":[{"indices":26,"material":0,"attributes":{"POSITION":24,"TEXCOORD_0":25}}]},{"name":"Mesh0","primitives":[{"indices":29,"material":0,"attributes":{"POSITION":27,"TEXCOORD_0":28}}]},{"name":"Mesh0","primitives":[{"indices":32,"material":0,"attributes":{"POSITION":30,"TEXCOORD_0":31}}]},{"name":"Mesh0","primitives":[{"indices":35,"material":0,"attributes":{"POSITION":33,"TEXCOORD_0":34}}]},{"name":"Mesh0","primitives":[{"indices":38,"material":0,"attributes":{"POSITION":36,"TEXCOORD_0":37}}]},{"name":"Mesh0","primitives":[{"indices":41,"material":0,"attributes":{"POSITION":39,"TEXCOORD_0":40}}]},{"name":"Mesh0","primitives":[{"indices":44,"material":0,"attributes":{"POSITION":42,"TEXCOORD_0":43}}]},{"name":"Mesh0","primitives":[{"indices":47,"material":0,"attributes":{"POSITION":45,"TEXCOORD_0":46}}]},{"name":"Mesh0","primitives":[{"indices":50,"material":0,"attributes":{"POSITION":48,"TEXCOORD_0":49}}]},{"name":"Mesh0","primitives":[{"indices":54,"material":0,"attributes":{"POSITION":51,"NORMAL":52,"TEXCOORD_0":53}}]},{"name":"Mesh0","primitives":[{"indices":57,"material":0,"attributes":{"POSITION":55,"TEXCOORD_0":56}}]},{"name":"Mesh0","primitives":[{"indices":61,"material":0,"attributes":{"POSITION":58,"NORMAL":59,"TEXCOORD_0":60}}]},{"name":"Mesh0","primitives":[{"indices":65,"material":0,"attributes":{"POSITION":62,"NORMAL":63,"TEXCOORD_0":64}}]},{"name":"Mesh0","primitives":[{"indices":69,"material":0,"attributes":{"POSITION":66,"NORMAL":67,"TEXCOORD_0":68}}]},{"name":"Mesh0","primitives":[{"indices":73,"material":0,"attributes":{"POSITION":70,"NORMAL":71,"TEXCOORD_0":72}}]},{"name":"Mesh0","primitives":[{"indices":77,"material":0,"attributes":{"POSITION":74,"NORMAL":75,"TEXCOORD_0":76}}]},{"name":"Mesh0","primitives":[{"indices":81,"material":0,"attributes":{"POSITION":78,"NORMAL":79,"TEXCOORD_0":80}}]},{"name":"Mesh0","primitives":[{"indices":85,"material":0,"attributes":{"POSITION":82,"NORMAL":83,"TEXCOORD_0":84}}]}],"accessors":[{"bufferView":0,"componentType":5126,"count":4,"type":"VEC3","min":[0.25,0.0,-0.0952628],"max":[0.75,0.49,0.0]},{"bufferView":1,"componentType":5126,"count":4,"type":"VEC3"},{"bufferView":2,"componentType":5126,"count":4,"type":"VEC2"},{"bufferView":3,"componentType":5123,"count":18,"type":"SCALAR"},{"bufferView":4,"componentType":5126,"count":4,"type":"VEC3","min":[0.695,0.0,-0.433013],"max":[1.0,0.49,0.0]},{"bufferView":5,"componentType":5126,"count":4,"type":"VEC3"},{"bufferView":6,"componentType":5126,"count":4,"type":"VEC2"},{"bufferView":7,"componentType":5123,"count":18,"type":"SCALAR"},{"bufferView":8,"componentType":5126,"count":6,"type":"VEC3","min":[0.0,0.0,-0.866025],"max":[1.0,0.0,0.0]},{"bufferView":9,"componentType":5126,"count":6,"type":"VEC3"},{"bufferView":10,"componentType":5126,"count":6,"type":"VEC2"},{"bufferView":11,"componentType":5123,"count":36,"type":"SCALAR"},{"bufferView":12,"componentType":5126,"count":4,"type":"VEC3","min":[0.25,0.0,-0.866025],"max":[0.75,0.49,-0.770763]},{"bufferView":13,"componentType":5126,"count":4,"type":"VEC3"},{"bufferView":14,"componentType":5126,"count":4,"type":"VEC2"},{"bufferView":15,"componentType":5123,"count":18,"type":"SCALAR"},{"bufferView":16,"componentType":5126,"count":4,"type":"VEC3","min":[0.0,0.0,-0.866025],"max":[0.305,0.49,-0.433013]},{"bufferView":17,"componentType":5126,"count":4,"type":"VEC3"},{"bufferView":18,"componentType":5126,"count":4,"type":"VEC2"},{"bufferView":19,"componentType":5123,"count":18,"type":"SCALAR"},{"bufferView":20,"componentType":5126,"count":3,"type":"VEC3","min":[0.11,0.49,-0.770763],"max":[0.305,0.49,-0.0952628]},{"bufferView":21,"componentType":5126,"count":3,"type":"VEC3"},{"bufferView":22,"componentType":5126,"count":3,"type":"VEC2"},{"bufferView":23,"componentType":5123,"count":9,"type":"SCALAR"},{"bufferView":24,"componentType":5126,"count":3,"type":"VEC3","min":[0.305,0.49,-0.770763],"max":[0.305978,0.49,-0.0952628]},{"bufferView":25,"componentType":5126,"count":3,"type":"VEC2"},{"bufferView":26,"componentType":5123,"count":9,"type":"SCALAR"},{"bufferView":27,"componentType":5126,"count":3,"type":"VEC3","min":[0.305,0.49,-0.379973],"max":[0.418394,0.49,-0.0952628]},{"bufferView":28,"componentType":5126,"count":3,"type":"VEC2"},{"bufferView":29,"componentType":5123,"count":9,"type":"SCALAR"},{"bufferView":30,"componentType":5126,"count":3,"type":"VEC3","min":[0.305,0.49,-0.185263],"max":[0.695,0.49,-0.0952628]},{"bufferView":31,"componentType":5126,"count":3,"type":"VEC2"},{"bufferView":32,"componentType":5123,"count":9,"type":"SCALAR"},{"bufferView":33,"componentType":5126,"count":3,"type":"VEC3","min":[0.418394,0.49,-0.185263],"max":[0.695,0.49,-0.0952628]},{"bufferView":34,"componentType":5126,"count":3,"type":"VEC2"},{"bufferView":35,"componentType":5123,"count":9,"type":"SCALAR"},{"bufferView":36,"componentType":5126,"count":3,"type":"VEC3","min":[0.643226,0.49,-0.379973],"max":[0.755642,0.49,-0.0952628]},{"bufferView":37,"componentType":5126,"count":3,"type":"VEC2"},{"bufferView":38,"componentType":5123,"count":9,"type":"SCALAR"},{"bufferView":39,"componentType":5126,"count":3,"type":"VEC3","min":[0.695,0.49,-0.433013],"max":[0.89,0.49,-0.0952628]},{"bufferView":40,"componentType":5126,"count":3,"type":"VEC2"},{"bufferView":41,"componentType":5123,"count":9,"type":"SCALAR"},{"bufferView":42,"componentType":5126,"count":3,"type":"VEC3","min":[0.695,0.49,-0.770763],"max":[0.89,0.49,-0.379973]},{"bufferView":43,"componentType":5126,"count":3,"type":"VEC2"},{"bufferView":44,"componentType":5123,"count":9,"type":"SCALAR"},{"bufferView":45,"componentType":5126,"count":3,"type":"VEC3","min":[0.643226,0.49,-0.770763],"max":[0.755642,0.49,-0.379973]},{"bufferView":46,"componentType":5126,"count":3,"type":"VEC2"},{"bufferView":47,"componentType":5123,"count":9,"type":"SCALAR"},{"bufferView":48,"componentType":5126,"count":5,"type":"VEC3","min":[0.305,0.49,-0.770763],"max":[0.695,0.49,-0.379973]},{"bufferView":49,"componentType":5126,"count":5,"type":"VEC2"},{"bufferView":50,"componentType":5123,"count":27,"type":"SCALAR"},{"bufferView":51,"componentType":5126,"count":4,"type":"VEC3","min":[0.305978,0.49,-0.574682],"max":[0.448746,0.71,-0.379973]},{"bufferView":52,"componentType":5126,"count":4,"type":"VEC3"},{"bufferView":53,"componentType":5126,"count":4,"type":"VEC2"},{"bufferView":54,"componentType":5123,"count":18,"type":"SCALAR"},{"bufferView":55,"componentType":5126,"count":6,"type":"VEC3","min":[0.366683,0.71,-0.522111],"max":[0.694937,0.71,-0.237834]},{"bufferView":56,"componentType":5126,"count":6,"type":"VEC2"},{"bufferView":57,"componentType":5123,"count":36,"type":"SCALAR"},{"bufferView":58,"componentType":5126,"count":4,"type":"VEC3","min":[0.418394,0.49,-0.574682],"max":[0.643226,0.71,-0.522111]},{"bufferView":59,"componentType":5126,"count":4,"type":"VEC3"},{"bufferView":60,"componentType":5126,"count":4,"type":"VEC2"},{"bufferView":61,"componentType":5123,"count":18,"type":"SCALAR"},{"bufferView":62,"componentType":5126,"count":4,"type":"VEC3","min":[0.612873,0.49,-0.574682],"max":[0.755642,0.71,-0.379973]},{"bufferView":63,"componentType":5126,"count":4,"type":"VEC3"},{"bufferView":64,"componentType":5126,"count":4,"type":"VEC2"},{"bufferView":65,"componentType":5123,"count":18,"type":"SCALAR"},{"bufferView":66,"componentType":5126,"count":4,"type":"VEC3","min":[0.612873,0.49,-0.379973],"max":[0.755642,0.71,-0.185263]},{"bufferView":67,"componentType":5126,"count":4,"type":"VEC3"},{"bufferView":68,"componentType":5126,"count":4,"type":"VEC2"},{"bufferView":69,"componentType":5123,"count":18,"type":"SCALAR"},{"bufferView":70,"componentType":5126,"count":4,"type":"VEC3","min":[0.418394,0.49,-0.237834],"max":[0.643226,0.71,-0.185263]},{"bufferView":71,"componentType":5126,"count":4,"type":"VEC3"},{"bufferView":72,"componentType":5126,"count":4,"type":"VEC2"},{"bufferView":73,"componentType":5123,"count":18,"type":"SCALAR"},{"bufferView":74,"componentType":5126,"count":4,"type":"VEC3","min":[0.305978,0.49,-0.379973],"max":[0.448746,0.71,-0.185263]},{"bufferView":75,"componentType":5126,"count":4,"type":"VEC3"},{"bufferView":76,"componentType":5126,"count":4,"type":"VEC2"},{"bufferView":77,"componentType":5123,"count":18,"type":"SCALAR"},{"bufferView":78,"componentType":5126,"count":4,"type":"VEC3","min":[0.695,0.0,-0.866025],"max":[1.0,0.49,-0.433013]},{"bufferView":79,"componentType":5126,"count":4,"type":"VEC3"},{"bufferView":80,"componentType":5126,"count":4,"type":"VEC2"},{"bufferView":81,"componentType":5123,"count":18,"type":"SCALAR"},{"bufferView":82,"componentType":5126,"count":4,"type":"VEC3","min":[0.0,0.0,-0.433013],"max":[0.305,0.49,-1.80478E-16]},{"bufferView":83,"componentType":5126,"count":4,"type":"VEC3"},{"bufferView":84,"componentType":5126,"count":4,"type":"VEC2"},{"bufferView":85,"componentType":5123,"count":18,"type":"SCALAR"}],"bufferViews":[{"target":34962,"buffer":0,"byteLength":48,"byteOffset":0},{"target":34962,"buffer":0,"byteLength":48,"byteOffset":48},{"target":34962,"buffer":0,"byteLength":32,"byteOffset":96},{"target":34963,"buffer":0,"byteLength":36,"byteOffset":128},{"target":34962,"buffer":0,"byteLength":48,"byteOffset":164},{"target":34962,"buffer":0,"byteLength":48,"byteOffset":212},{"target":34962,"buffer":0,"byteLength":32,"byteOffset":260},{"target":34963,"buffer":0,"byteLength":36,"byteOffset":292},{"target":34962,"buffer":0,"byteLength":72,"byteOffset":328},{"target":34962,"buffer":0,"byteLength":72,"byteOffset":400},{"target":34962,"buffer":0,"byteLength":48,"byteOffset":472},{"target":34963,"buffer":0,"byteLength":72,"byteOffset":520},{"target":34962,"buffer":0,"byteLength":48,"byteOffset":592},{"target":34962,"buffer":0,"byteLength":48,"byteOffset":640},{"target":34962,"buffer":0,"byteLength":32,"byteOffset":688},{"target":34963,"buffer":0,"byteLength":36,"byteOffset":720},{"target":34962,"buffer":0,"byteLength":48,"byteOffset":756},{"target":34962,"buffer":0,"byteLength":48,"byteOffset":804},{"target":34962,"buffer":0,"byteLength":32,"byteOffset":852},{"target":34963,"buffer":0,"byteLength":36,"byteOffset":884},{"target":34962,"buffer":0,"byteLength":36,"byteOffset":920},{"target":34962,"buffer":0,"byteLength":36,"byteOffset":956},{"target":34962,"buffer":0,"byteLength":24,"byteOffset":992},{"target":34963,"buffer":0,"byteLength":18,"byteOffset":1016},{"target":34962,"buffer":0,"byteLength":36,"byteOffset":1036},{"target":34962,"buffer":0,"byteLength":24,"byteOffset":1072},{"target":34963,"buffer":0,"byteLength":18,"byteOffset":1096},{"target":34962,"buffer":0,"byteLength":36,"byteOffset":1116},{"target":34962,"buffer":0,"byteLength":24,"byteOffset":1152},{"target":34963,"buffer":0,"byteLength":18,"byteOffset":1176},{"target":34962,"buffer":0,"byteLength":36,"byteOffset":1196},{"target":34962,"buffer":0,"byteLength":24,"byteOffset":1232},{"target":34963,"buffer":0,"byteLength":18,"byteOffset":1256},{"target":34962,"buffer":0,"byteLength":36,"byteOffset":1276},{"target":34962,"buffer":0,"byteLength":24,"byteOffset":1312},{"target":34963,"buffer":0,"byteLength":18,"byteOffset":1336},{"target":34962,"buffer":0,"byteLength":36,"byteOffset":1356},{"target":34962,"buffer":0,"byteLength":24,"byteOffset":1392},{"target":34963,"buffer":0,"byteLength":18,"byteOffset":1416},{"target":34962,"buffer":0,"byteLength":36,"byteOffset":1436},{"target":34962,"buffer":0,"byteLength":24,"byteOffset":1472},{"target":34963,"buffer":0,"byteLength":18,"byteOffset":1496},{"target":34962,"buffer":0,"byteLength":36,"byteOffset":1516},{"target":34962,"buffer":0,"byteLength":24,"byteOffset":1552},{"target":34963,"buffer":0,"byteLength":18,"byteOffset":1576},{"target":34962,"buffer":0,"byteLength":36,"byteOffset":1596},{"target":34962,"buffer":0,"byteLength":24,"byteOffset":1632},{"target":34963,"buffer":0,"byteLength":18,"byteOffset":1656},{"target":34962,"buffer":0,"byteLength":60,"byteOffset":1676},{"target":34962,"buffer":0,"byteLength":40,"byteOffset":1736},{"target":34963,"buffer":0,"byteLength":54,"byteOffset":1776},{"target":34962,"buffer":0,"byteLength":48,"byteOffset":1832},{"target":34962,"buffer":0,"byteLength":48,"byteOffset":1880},{"target":34962,"buffer":0,"byteLength":32,"byteOffset":1928},{"target":34963,"buffer":0,"byteLength":36,"byteOffset":1960},{"target":34962,"buffer":0,"byteLength":72,"byteOffset":1996},{"target":34962,"buffer":0,"byteLength":48,"byteOffset":2068},{"target":34963,"buffer":0,"byteLength":72,"byteOffset":2116},{"target":34962,"buffer":0,"byteLength":48,"byteOffset":2188},{"target":34962,"buffer":0,"byteLength":48,"byteOffset":2236},{"target":34962,"buffer":0,"byteLength":32,"byteOffset":2284},{"target":34963,"buffer":0,"byteLength":36,"byteOffset":2316},{"target":34962,"buffer":0,"byteLength":48,"byteOffset":2352},{"target":34962,"buffer":0,"byteLength":48,"byteOffset":2400},{"target":34962,"buffer":0,"byteLength":32,"byteOffset":2448},{"target":34963,"buffer":0,"byteLength":36,"byteOffset":2480},{"target":34962,"buffer":0,"byteLength":48,"byteOffset":2516},{"target":34962,"buffer":0,"byteLength":48,"byteOffset":2564},{"target":34962,"buffer":0,"byteLength":32,"byteOffset":2612},{"target":34963,"buffer":0,"byteLength":36,"byteOffset":2644},{"target":34962,"buffer":0,"byteLength":48,"byteOffset":2680},{"target":34962,"buffer":0,"byteLength":48,"byteOffset":2728},{"target":34962,"buffer":0,"byteLength":32,"byteOffset":2776},{"target":34963,"buffer":0,"byteLength":36,"byteOffset":2808},{"target":34962,"buffer":0,"byteLength":48,"byteOffset":2844},{"target":34962,"buffer":0,"byteLength":48,"byteOffset":2892},{"target":34962,"buffer":0,"byteLength":32,"byteOffset":2940},{"target":34963,"buffer":0,"byteLength":36,"byteOffset":2972},{"target":34962,"buffer":0,"byteLength":48,"byteOffset":3008},{"target":34962,"buffer":0,"byteLength":48,"byteOffset":3056},{"target":34962,"buffer":0,"byteLength":32,"byteOffset":3104},{"target":34963,"buffer":0,"byteLength":36,"byteOffset":3136},{"target":34962,"buffer":0,"byteLength":48,"byteOffset":3172},{"target":34962,"buffer":0,"byteLength":48,"byteOffset":3220},{"target":34962,"buffer":0,"byteLength":32,"byteOffset":3268},{"target":34963,"buffer":0,"byteLength":36,"byteOffset":3300}],"buffers":[{"byteLength":3336,"uri":"data:application/octet-stream;base64,"}]}