{"scene":0,"asset":{"generator":"ImageToStl.com","version":"2.0"},"scenes":[{"name":"Scene","nodes":[0]}],"nodes":[{"name":"Node0","children":[1,2,3,4,5,6,7,8]},{"name":"Node1","mesh":0},{"name":"Node2","mesh":1},{"name":"Node3","mesh":2},{"name":"Node4","mesh":3},{"name":"Node5","mesh":4},{"name":"Node6","mesh":5},{"name":"Node7","mesh":6},{"name":"Node8","mesh":7}],"materials":[{"name":"Stone","pbrMetallicRoughness":{"baseColorFactor":[0.72549,0.752941,0.788235,1.0],"metallicFactor":0.33,"roughnessFactor":1.0},"doubleSided":true}],"meshes":[{"name":"Mesh0","primitives":[{"indices":3,"material":0,"attributes":{"POSITION":0,"NORMAL":1,"TEXCOORD_0":2}}]},{"name":"Mesh0","primitives":[{"indices":7,"material":0,"attributes":{"POSITION":4,"NORMAL":5,"TEXCOORD_0":6}}]},{"name":"Mesh0","primitives":[{"indices":11,"material":0,"attributes":{"POSITION":8,"NORMAL":9,"TEXCOORD_0":10}}]},{"name":"Mesh0","primitives":[{"indices":15,"material":0,"attributes":{"POSITION":12,"NORMAL":13,"TEXCOORD_0":14}}]},{"name":"Mesh0","primitives":[{"indices":19,"material":0,"attributes":{"POSITION":16,"NORMAL":17,"TEXCOORD_0":18}}]},{"name":"Mesh0","primitives":[{"indices":23,"material":0,"attributes":{"POSITION":20,"NORMAL":21,"TEXCOORD_0":22}}]},{"name":"Mesh0","primitives":[{"indices":27,"material":0,"attributes":{"POSITION":24,"NORMAL":25,"TEXCOORD_0":26}}]},{"name":"Mesh0","primitives":[{"indices":31,"material":0,"attributes":{"POSITION":28,"NORMAL":29,"TEXCOORD_0":30}}]}],"accessors":[{"bufferView":0,"componentType":5126,"count":6,"type":"VEC3","min":[0.2124,0.64,-0.837966],"max":[0.9676,0.64,-0.183944]},{"bufferView":1,"componentType":5126,"count":6,"type":"VEC3"},{"bufferView":2,"componentType":5126,"count":6,"type":"VEC2"},{"bufferView":3,"componentType":5123,"count":36,"type":"SCALAR"},{"bufferView":4,"componentType":5126,"count":4,"type":"VEC3","min":[0.0,0.0,-0.510955],"max":[0.4012,0.64,-1.80478E-16]},{"bufferView":5,"componentType":5126,"count":4,"type":"VEC3"},{"bufferView":6,"componentType":5126,"count":4,"type":"VEC2"},{"bufferView":7,"componentType":5123,"count":18,"type":"SCALAR"},{"bufferView":8,"componentType":5126,"count":4,"type":"VEC3","min":[0.0,0.0,-1.02191],"max":[0.4012,0.64,-0.510955]},{"bufferView":9,"componentType":5126,"count":4,"type":"VEC3"},{"bufferView":10,"componentType":5126,"count":4,"type":"VEC2"},{"bufferView":11,"componentType":5123,"count":18,"type":"SCALAR"},{"bufferView":12,"componentType":5126,"count":4,"type":"VEC3","min":[0.295,0.0,-1.02191],"max":[0.885,0.64,-0.837966]},{"bufferView":13,"componentType":5126,"count":4,"type":"VEC3"},{"bufferView":14,"componentType":5126,"count":4,"type":"VEC2"},{"bufferView":15,"componentType":5123,"count":18,"type":"SCALAR"},{"bufferView":16,"componentType":5126,"count":4,"type":"VEC3","min":[0.7788,0.0,-1.02191],"max":[1.18,0.64,-0.510955]},{"bufferView":17,"componentType":5126,"count":4,"type":"VEC3"},{"bufferView":18,"componentType":5126,"count":4,"type":"VEC2"},{"bufferView":19,"componentType":5123,"count":18,"type":"SCALAR"},{"bufferView":20,"componentType":5126,"count":6,"type":"VEC3","min":[0.0,0.0,-1.02191],"max":[1.18,0.0,0.0]},{"bufferView":21,"componentType":5126,"count":6,"type":"VEC3"},{"bufferView":22,"componentType":5126,"count":6,"type":"VEC2"},{"bufferView":23,"componentType":5123,"count":36,"type":"SCALAR"},{"bufferView":24,"componentType":5126,"count":4,"type":"VEC3","min":[0.7788,0.0,-0.510955],"max":[1.18,0.64,0.0]},{"bufferView":25,"componentType":5126,"count":4,"type":"VEC3"},{"bufferView":26,"componentType":5126,"count":4,"type":"VEC2"},{"bufferView":27,"componentType":5123,"count":18,"type":"SCALAR"},{"bufferView":28,"componentType":5126,"count":4,"type":"VEC3","min":[0.295,0.0,-0.183944],"max":[0.885,0.64,0.0]},{"bufferView":29,"componentType":5126,"count":4,"type":"VEC3"},{"bufferView":30,"componentType":5126,"count":4,"type":"VEC2"},{"bufferView":31,"componentType":5123,"count":18,"type":"SCALAR"}],"bufferViews":[{"target":34962,"buffer":0,"byteLength":72,"byteOffset":0},{"target":34962,"buffer":0,"byteLength":72,"byteOffset":72},{"target":34962,"buffer":0,"byteLength":48,"byteOffset":144},{"target":34963,"buffer":0,"byteLength":72,"byteOffset":192},{"target":34962,"buffer":0,"byteLength":48,"byteOffset":264},{"target":34962,"buffer":0,"byteLength":48,"byteOffset":312},{"target":34962,"buffer":0,"byteLength":32,"byteOffset":360},{"target":34963,"buffer":0,"byteLength":36,"byteOffset":392},{"target":34962,"buffer":0,"byteLength":48,"byteOffset":428},{"target":34962,"buffer":0,"byteLength":48,"byteOffset":476},{"target":34962,"buffer":0,"byteLength":32,"byteOffset":524},{"target":34963,"buffer":0,"byteLength":36,"byteOffset":556},{"target":34962,"buffer":0,"byteLength":48,"byteOffset":592},{"target":34962,"buffer":0,"byteLength":48,"byteOffset":640},{"target":34962,"buffer":0,"byteLength":32,"byteOffset":688},{"target":34963,"buffer":0,"byteLength":36,"byteOffset":720},{"target":34962,"buffer":0,"byteLength":48,"byteOffset":756},{"target":34962,"buffer":0,"byteLength":48,"byteOffset":804},{"target":34962,"buffer":0,"byteLength":32,"byteOffset":852},{"target":34963,"buffer":0,"byteLength":36,"byteOffset":884},{"target":34962,"buffer":0,"byteLength":72,"byteOffset":920},{"target":34962,"buffer":0,"byteLength":72,"byteOffset":992},{"target":34962,"buffer":0,"byteLength":48,"byteOffset":1064},{"target":34963,"buffer":0,"byteLength":72,"byteOffset":1112},{"target":34962,"buffer":0,"byteLength":48,"byteOffset":1184},{"target":34962,"buffer":0,"byteLength":48,"byteOffset":1232},{"target":34962,"buffer":0,"byteLength":32,"byteOffset":1280},{"target":34963,"buffer":0,"byteLength":36,"byteOffset":1312},{"target":34962,"buffer":0,"byteLength":48,"byteOffset":1348},{"target":34962,"buffer":0,"byteLength":48,"byteOffset":1396},{"target":34962,"buffer":0,"byteLength":32,"byteOffset":1444},{"target":34963,"buffer":0,"byteLength":36,"byteOffset":1476}],"buffers":[{"byteLength":1512,"uri":"data:application/octet-stream;base64,"}]}