{"scene":0,"asset":{"generator":"ImageToStl.com","version":"2.0"},"scenes":[{"name":"Scene","nodes":[0]}],"nodes":[{"name":"Node0","children":[1,2,3,4,5,6,7]},{"name":"Node1","mesh":0},{"name":"Node2","mesh":1},{"name":"Node3","mesh":2},{"name":"Node4","mesh":3},{"name":"Node5","mesh":4},{"name":"Node6","mesh":5},{"name":"Node7","mesh":6}],"materials":[{"name":"Stone","pbrMetallicRoughness":{"baseColorFactor":[0.72549,0.752941,0.788235,1.0],"metallicFactor":0.33,"roughnessFactor":1.0},"doubleSided":true}],"meshes":[{"name":"Mesh0","primitives":[{"indices":3,"material":0,"attributes":{"POSITION":0,"NORMAL":1,"TEXCOORD_0":2}}]},{"name":"Mesh0","primitives":[{"indices":7,"material":0,"attributes":{"POSITION":4,"NORMAL":5,"TEXCOORD_0":6}}]},{"name":"Mesh0","primitives":[{"indices":11,"material":0,"attributes":{"POSITION":8,"NORMAL":9,"TEXCOORD_0":10}}]},{"name":"Mesh0","primitives":[{"indices":15,"material":0,"attributes":{"POSITION":12,"NORMAL":13,"TEXCOORD_0":14}}]},{"name":"Mesh0","primitives":[{"indices":19,"material":0,"attributes":{"POSITION":16,"NORMAL":17,"TEXCOORD_0":18}}]},{"name":"Mesh0","primitives":[{"indices":23,"material":0,"attributes":{"POSITION":20,"NORMAL":21,"TEXCOORD_0":22}}]},{"name":"Mesh0","primitives":[{"indices":27,"material":0,"attributes":{"POSITION":24,"NORMAL":25,"TEXCOORD_0":26}}]}],"accessors":[{"bufferView":0,"componentType":5126,"count":4,"type":"VEC3","min":[0.0,0.0,-0.5],"max":[0.354523,0.53,0.0]},{"bufferView":1,"componentType":5126,"count":4,"type":"VEC3"},{"bufferView":2,"componentType":5126,"count":4,"type":"VEC2"},{"bufferView":3,"componentType":5123,"count":18,"type":"SCALAR"},{"bufferView":4,"componentType":5126,"count":5,"type":"VEC3","min":[0.0,0.0,-1.0],"max":[1.0,0.0,0.0]},{"bufferView":5,"componentType":5126,"count":5,"type":"VEC3"},{"bufferView":6,"componentType":5126,"count":5,"type":"VEC2"},{"bufferView":7,"componentType":5123,"count":27,"type":"SCALAR"},{"bufferView":8,"componentType":5126,"count":4,"type":"VEC3","min":[0.607476,0.0,-0.641226],"max":[1.0,0.53,0.0]},{"bufferView":9,"componentType":5126,"count":4,"type":"VEC3"},{"bufferView":10,"componentType":5126,"count":4,"type":"VEC2"},{"bufferView":11,"componentType":5123,"count":18,"type":"SCALAR"},{"bufferView":12,"componentType":5126,"count":4,"type":"VEC3","min":[0.5,0.0,-1.0],"max":[1.0,0.53,-0.529614]},{"bufferView":13,"componentType":5126,"count":4,"type":"VEC3"},{"bufferView":14,"componentType":5126,"count":4,"type":"VEC2"},{"bufferView":15,"componentType":5123,"count":18,"type":"SCALAR"},{"bufferView":16,"componentType":5126,"count":4,"type":"VEC3","min":[0.0,0.0,-1.0],"max":[0.529638,0.53,-0.420165]},{"bufferView":17,"componentType":5126,"count":4,"type":"VEC3"},{"bufferView":18,"componentType":5126,"count":4,"type":"VEC2"},{"bufferView":19,"componentType":5123,"count":18,"type":"SCALAR"},{"bufferView":20,"componentType":5126,"count":5,"type":"VEC3","min":[0.312675,0.53,-0.637128],"max":[0.679474,0.53,-0.277547]},{"bufferView":21,"componentType":5126,"count":5,"type":"VEC3"},{"bufferView":22,"componentType":5126,"count":5,"type":"VEC2"},{"bufferView":23,"componentType":5123,"count":27,"type":"SCALAR"},{"bufferView":24,"componentType":5126,"count":4,"type":"VEC3","min":[0.146715,0.0,-0.277547],"max":[0.816846,0.53,0.0]},{"bufferView":25,"componentType":5126,"count":4,"type":"VEC3"},{"bufferView":26,"componentType":5126,"count":4,"type":"VEC2"},{"bufferView":27,"componentType":5123,"count":18,"type":"SCALAR"}],"bufferViews":[{"target":34962,"buffer":0,"byteLength":48,"byteOffset":0},{"target":34962,"buffer":0,"byteLength":48,"byteOffset":48},{"target":34962,"buffer":0,"byteLength":32,"byteOffset":96},{"target":34963,"buffer":0,"byteLength":36,"byteOffset":128},{"target":34962,"buffer":0,"byteLength":60,"byteOffset":164},{"target":34962,"buffer":0,"byteLength":60,"byteOffset":224},{"target":34962,"buffer":0,"byteLength":40,"byteOffset":284},{"target":34963,"buffer":0,"byteLength":54,"byteOffset":324},{"target":34962,"buffer":0,"byteLength":48,"byteOffset":380},{"target":34962,"buffer":0,"byteLength":48,"byteOffset":428},{"target":34962,"buffer":0,"byteLength":32,"byteOffset":476},{"target":34963,"buffer":0,"byteLength":36,"byteOffset":508},{"target":34962,"buffer":0,"byteLength":48,"byteOffset":544},{"target":34962,"buffer":0,"byteLength":48,"byteOffset":592},{"target":34962,"buffer":0,"byteLength":32,"byteOffset":640},{"target":34963,"buffer":0,"byteLength":36,"byteOffset":672},{"target":34962,"buffer":0,"byteLength":48,"byteOffset":708},{"target":34962,"buffer":0,"byteLength":48,"byteOffset":756},{"target":34962,"buffer":0,"byteLength":32,"byteOffset":804},{"target":34963,"buffer":0,"byteLength":36,"byteOffset":836},{"target":34962,"buffer":0,"byteLength":60,"byteOffset":872},{"target":34962,"buffer":0,"byteLength":60,"byteOffset":932},{"target":34962,"buffer":0,"byteLength":40,"byteOffset":992},{"target":34963,"buffer":0,"byteLength":54,"byteOffset":1032},{"target":34962,"buffer":0,"byteLength":48,"byteOffset":1088},{"target":34962,"buffer":0,"byteLength":48,"byteOffset":1136},{"target":34962,"buffer":0,"byteLength":32,"byteOffset":1184},{"target":34963,"buffer":0,"byteLength":36,"byteOffset":1216}],"buffers":[{"byteLength":1252,"uri":"data:application/octet-stream;base64,"}]}