{"scene":0,"asset":{"generator":"ImageToStl.com","version":"2.0"},"scenes":[{"name":"Scene","nodes":[0]}],"nodes":[{"name":"Node0","children":[1,2,3,4,5,6,7,8,9]},{"name":"Node1","mesh":0},{"name":"Node2","mesh":1},{"name":"Node3","mesh":2},{"name":"Node4","mesh":3},{"name":"Node5","mesh":4},{"name":"Node6","mesh":5},{"name":"Node7","mesh":6},{"name":"Node8","mesh":7},{"name":"Node9","mesh":8}],"materials":[{"name":"Stone","pbrMetallicRoughness":{"baseColorFactor":[0.72549,0.752941,0.788235,1.0],"metallicFactor":0.33,"roughnessFactor":1.0},"doubleSided":true}],"meshes":[{"name":"Mesh0","primitives":[{"indices":3,"material":0,"attributes":{"POSITION":0,"NORMAL":1,"TEXCOORD_0":2}}]},{"name":"Mesh0","primitives":[{"indices":7,"material":0,"attributes":{"POSITION":4,"NORMAL":5,"TEXCOORD_0":6}}]},{"name":"Mesh0","primitives":[{"indices":11,"material":0,"attributes":{"POSITION":8,"NORMAL":9,"TEXCOORD_0":10}}]},{"name":"Mesh0","primitives":[{"indices":15,"material":0,"attributes":{"POSITION":12,"NORMAL":13,"TEXCOORD_0":14}}]},{"name":"Mesh0","primitives":[{"indices":19,"material":0,"attributes":{"POSITION":16,"NORMAL":17,"TEXCOORD_0":18}}]},{"name":"Mesh0","primitives":[{"indices":23,"material":0,"attributes":{"POSITION":20,"NORMAL":21,"TEXCOORD_0":22}}]},{"name":"Mesh0","primitives":[{"indices":27,"material":0,"attributes":{"POSITION":24,"NORMAL":25,"TEXCOORD_0":26}}]},{"name":"Mesh0","primitives":[{"indices":31,"material":0,"attributes":{"POSITION":28,"NORMAL":29,"TEXCOORD_0":30}}]},{"name":"Mesh0","primitives":[{"indices":35,"material":0,"attributes":{"POSITION":32,"NORMAL":33,"TEXCOORD_0":34}}]}],"accessors":[{"bufferView":0,"componentType":5126,"count":7,"type":"VEC3","min":[0.264719,0.49,-0.735281],"max":[0.735281,0.49,-0.264719]},{"bufferView":1,"componentType":5126,"count":7,"type":"VEC3"},{"bufferView":2,"componentType":5126,"count":7,"type":"VEC2"},{"bufferView":3,"componentType":5123,"count":45,"type":"SCALAR"},{"bufferView":4,"componentType":5126,"count":4,"type":"VEC3","min":[0.490166,0.0,-1.0],"max":[1.0,0.49,-0.411171]},{"bufferView":5,"componentType":5126,"count":4,"type":"VEC3"},{"bufferView":6,"componentType":5126,"count":4,"type":"VEC2"},{"bufferView":7,"componentType":5123,"count":18,"type":"SCALAR"},{"bufferView":8,"componentType":5126,"count":7,"type":"VEC3","min":[0.0,0.0,-1.0],"max":[1.0,0.0,0.0]},{"bufferView":9,"componentType":5126,"count":7,"type":"VEC3"},{"bufferView":10,"componentType":5126,"count":7,"type":"VEC2"},{"bufferView":11,"componentType":5123,"count":45,"type":"SCALAR"},{"bufferView":12,"componentType":5126,"count":4,"type":"VEC3","min":[0.0,0.0,-1.0],"max":[0.409184,0.49,-0.438916]},{"bufferView":13,"componentType":5126,"count":4,"type":"VEC3"},{"bufferView":14,"componentType":5126,"count":4,"type":"VEC2"},{"bufferView":15,"componentType":5123,"count":18,"type":"SCALAR"},{"bufferView":16,"componentType":5126,"count":4,"type":"VEC3","min":[0.0,0.0,-0.5],"max":[0.264719,0.49,-0.17965]},{"bufferView":17,"componentType":5126,"count":4,"type":"VEC3"},{"bufferView":18,"componentType":5126,"count":4,"type":"VEC2"},{"bufferView":19,"componentType":5123,"count":18,"type":"SCALAR"},{"bufferView":20,"componentType":5126,"count":4,"type":"VEC3","min":[0.0,0.0,-0.37872],"max":[0.659335,0.49,0.0]},{"bufferView":21,"componentType":5126,"count":4,"type":"VEC3"},{"bufferView":22,"componentType":5126,"count":4,"type":"VEC2"},{"bufferView":23,"componentType":5123,"count":18,"type":"SCALAR"},{"bufferView":24,"componentType":5126,"count":4,"type":"VEC3","min":[0.621864,0.0,-0.264719],"max":[1.0,0.49,0.0]},{"bufferView":25,"componentType":5126,"count":4,"type":"VEC3"},{"bufferView":26,"componentType":5126,"count":4,"type":"VEC2"},{"bufferView":27,"componentType":5123,"count":18,"type":"SCALAR"},{"bufferView":28,"componentType":5126,"count":4,"type":"VEC3","min":[0.735281,0.0,-0.5],"max":[1.0,0.49,0.0]},{"bufferView":29,"componentType":5126,"count":4,"type":"VEC3"},{"bufferView":30,"componentType":5126,"count":4,"type":"VEC2"},{"bufferView":31,"componentType":5123,"count":18,"type":"SCALAR"},{"bufferView":32,"componentType":5126,"count":4,"type":"VEC3","min":[0.243728,0.0,-1.0],"max":[0.621864,0.49,-0.735281]},{"bufferView":33,"componentType":5126,"count":4,"type":"VEC3"},{"bufferView":34,"componentType":5126,"count":4,"type":"VEC2"},{"bufferView":35,"componentType":5123,"count":18,"type":"SCALAR"}],"bufferViews":[{"target":34962,"buffer":0,"byteLength":84,"byteOffset":0},{"target":34962,"buffer":0,"byteLength":84,"byteOffset":84},{"target":34962,"buffer":0,"byteLength":56,"byteOffset":168},{"target":34963,"buffer":0,"byteLength":90,"byteOffset":224},{"target":34962,"buffer":0,"byteLength":48,"byteOffset":316},{"target":34962,"buffer":0,"byteLength":48,"byteOffset":364},{"target":34962,"buffer":0,"byteLength":32,"byteOffset":412},{"target":34963,"buffer":0,"byteLength":36,"byteOffset":444},{"target":34962,"buffer":0,"byteLength":84,"byteOffset":480},{"target":34962,"buffer":0,"byteLength":84,"byteOffset":564},{"target":34962,"buffer":0,"byteLength":56,"byteOffset":648},{"target":34963,"buffer":0,"byteLength":90,"byteOffset":704},{"target":34962,"buffer":0,"byteLength":48,"byteOffset":796},{"target":34962,"buffer":0,"byteLength":48,"byteOffset":844},{"target":34962,"buffer":0,"byteLength":32,"byteOffset":892},{"target":34963,"buffer":0,"byteLength":36,"byteOffset":924},{"target":34962,"buffer":0,"byteLength":48,"byteOffset":960},{"target":34962,"buffer":0,"byteLength":48,"byteOffset":1008},{"target":34962,"buffer":0,"byteLength":32,"byteOffset":1056},{"target":34963,"buffer":0,"byteLength":36,"byteOffset":1088},{"target":34962,"buffer":0,"byteLength":48,"byteOffset":1124},{"target":34962,"buffer":0,"byteLength":48,"byteOffset":1172},{"target":34962,"buffer":0,"byteLength":32,"byteOffset":1220},{"target":34963,"buffer":0,"byteLength":36,"byteOffset":1252},{"target":34962,"buffer":0,"byteLength":48,"byteOffset":1288},{"target":34962,"buffer":0,"byteLength":48,"byteOffset":1336},{"target":34962,"buffer":0,"byteLength":32,"byteOffset":1384},{"target":34963,"buffer":0,"byteLength":36,"byteOffset":1416},{"target":34962,"buffer":0,"byteLength":48,"byteOffset":1452},{"target":34962,"buffer":0,"byteLength":48,"byteOffset":1500},{"target":34962,"buffer":0,"byteLength":32,"byteOffset":1548},{"target":34963,"buffer":0,"byteLength":36,"byteOffset":1580},{"target":34962,"buffer":0,"byteLength":48,"byteOffset":1616},{"target":34962,"buffer":0,"byteLength":48,"byteOffset":1664},{"target":34962,"buffer":0,"byteLength":32,"byteOffset":1712},{"target":34963,"buffer":0,"byteLength":36,"byteOffset":1744}],"buffers":[{"byteLength":1780,"uri":"data:application/octet-stream;base64,"}]}