{"scene":0,"asset":{"generator":"ImageToStl.com","version":"2.0"},"scenes":[{"name":"Scene","nodes":[0]}],"nodes":[{"name":"Node0","children":[1,2,3,4,5,6,7,8,9,10,11,12,13,14,15,16,17,18,19,20,21,22,23,24]},{"name":"Node1","mesh":0},{"name":"Node2","mesh":1},{"name":"Node3","mesh":2},{"name":"Node4","mesh":3},{"name":"Node5","mesh":4},{"name":"Node6","mesh":5},{"name":"Node7","mesh":6},{"name":"Node8","mesh":7},{"name":"Node9","mesh":8},{"name":"Node10","mesh":9},{"name":"Node11","mesh":10},{"name":"Node12","mesh":11},{"name":"Node13","mesh":12},{"name":"Node14","mesh":13},{"name":"Node15","mesh":14},{"name":"Node16","mesh":15},{"name":"Node17","mesh":16},{"name":"Node18","mesh":17},{"name":"Node19","mesh":18},{"name":"Node20","mesh":19},{"name":"Node21","mesh":20},{"name":"Node22","mesh":21},{"name":"Node23","mesh":22},{"name":"Node24","mesh":23}],"materials":[{"name":"x1","pbrMetallicRoughness":{"baseColorFactor":[0.85,0.85,0.85,1.0],"metallicFactor":0.05,"roughnessFactor":0.5},"doubleSided":true}],"meshes":[{"name":"Mesh0","primitives":[{"indices":3,"material":0,"attributes":{"POSITION":0,"NORMAL":1,"TEXCOORD_0":2}}]},{"name":"Mesh0","primitives":[{"indices":7,"material":0,"attributes":{"POSITION":4,"NORMAL":5,"TEXCOORD_0":6}}]},{"name":"Mesh0","primitives":[{"indices":11,"material":0,"attributes":{"POSITION":8,"NORMAL":9,"TEXCOORD_0":10}}]},{"name":"Mesh0","primitives":[{"indices":15,"material":0,"attributes":{"POSITION":12,"NORMAL":13,"TEXCOORD_0":14}}]},{"name":"Mesh0","primitives":[{"indices":18,"material":0,"attributes":{"POSITION":16,"TEXCOORD_0":17}}]},{"name":"Mesh0","primitives":[{"indices":21,"material":0,"attributes":{"POSITION":19,"TEXCOORD_0":20}}]},{"name":"Mesh0","primitives":[{"indices":24,"material":0,"attributes":{"POSITION":22,"TEXCOORD_0":23}}]},{"name":"Mesh0","primitives":[{"indices":27,"material":0,"attributes":{"POSITION":25,"TEXCOORD_0":26}}]},{"name":"Mesh0","primitives":[{"indices":30,"material":0,"attributes":{"POSITION":28,"TEXCOORD_0":29}}]},{"name":"Mesh0","primitives":[{"indices":34,"material":0,"attributes":{"POSITION":31,"NORMAL":32,"TEXCOORD_0":33}}]},{"name":"Mesh0","primitives":[{"indices":38,"material":0,"attributes":{"POSITION":35,"NORMAL":36,"TEXCOORD_0":37}}]},{"name":"Mesh0","primitives":[{"indices":42,"material":0,"attributes":{"POSITION":39,"NORMAL":40,"TEXCOORD_0":41}}]},{"name":"Mesh0","primitives":[{"indices":46,"material":0,"attributes":{"POSITION":43,"NORMAL":44,"TEXCOORD_0":45}}]},{"name":"Mesh0","primitives":[{"indices":50,"material":0,"attributes":{"POSITION":47,"NORMAL":48,"TEXCOORD_0":49}}]},{"name":"Mesh0","primitives":[{"indices":53,"material":0,"attributes":{"POSITION":51,"TEXCOORD_0":52}}]},{"name":"Mesh0","primitives":[{"indices":56,"material":0,"attributes":{"POSITION":54,"TEXCOORD_0":55}}]},{"name":"Mesh0","primitives":[{"indices":59,"material":0,"attributes":{"POSITION":57,"TEXCOORD_0":58}}]},{"name":"Mesh0","primitives":[{"indices":63,"material":0,"attributes":{"POSITION":60,"NORMAL":61,"TEXCOORD_0":62}}]},{"name":"Mesh0","primitives":[{"indices":67,"material":0,"attributes":{"POSITION":64,"NORMAL":65,"TEXCOORD_0":66}}]},{"name":"Mesh0","primitives":[{"indices":70,"material":0,"attributes":{"POSITION":68,"TEXCOORD_0":69}}]},{"name":"Mesh0","primitives":[{"indices":73,"material":0,"attributes":{"POSITION":71,"TEXCOORD_0":72}}]},{"name":"Mesh0","primitives":[{"indices":77,"material":0,"attributes":{"POSITION":74,"NORMAL":75,"TEXCOORD_0":76}}]},{"name":"Mesh0","primitives":[{"indices":81,"material":0,"attributes":{"POSITION":78,"NORMAL":79,"TEXCOORD_0":80}}]},{"name":"Mesh0","primitives":[{"indices":85,"material":0,"attributes":{"POSITION":82,"NORMAL":83,"TEXCOORD_0":84}}]}],"accessors":[{"bufferView":0,"componentType":5126,"count":4,"type":"VEC3","min":[0.210336,0.32,-0.666549],"max":[0.376736,0.68,-0.424352]},{"bufferView":1,"componentType":5126,"count":4,"type":"VEC3"},{"bufferView":2,"componentType":5126,"count":4,"type":"VEC2"},{"bufferView":3,"componentType":5123,"count":18,"type":"SCALAR"},{"bufferView":4,"componentType":5126,"count":6,"type":"VEC3","min":[0.263472,0.68,-0.620532],"max":[0.716528,0.68,-0.228173]},{"bufferView":5,"componentType":5126,"count":6,"type":"VEC3"},{"bufferView":6,"componentType":5126,"count":6,"type":"VEC2"},{"bufferView":7,"componentType":5123,"count":36,"type":"SCALAR"},{"bufferView":8,"componentType":5126,"count":4,"type":"VEC3","min":[0.350168,0.32,-0.666549],"max":[0.629832,0.68,-0.620532]},{"bufferView":9,"componentType":5126,"count":4,"type":"VEC3"},{"bufferView":10,"componentType":5126,"count":4,"type":"VEC2"},{"bufferView":11,"componentType":5123,"count":18,"type":"SCALAR"},{"bufferView":12,"componentType":5126,"count":4,"type":"VEC3","min":[0.603264,0.32,-0.666549],"max":[0.769664,0.68,-0.424352]},{"bufferView":13,"componentType":5126,"count":4,"type":"VEC3"},{"bufferView":14,"componentType":5126,"count":4,"type":"VEC2"},{"bufferView":15,"componentType":5123,"count":18,"type":"SCALAR"},{"bufferView":16,"componentType":5126,"count":3,"type":"VEC3","min":[0.629832,0.32,-0.763834],"max":[0.769664,0.32,-0.424352]},{"bufferView":17,"componentType":5126,"count":3,"type":"VEC2"},{"bufferView":18,"componentType":5123,"count":9,"type":"SCALAR"},{"bufferView":19,"componentType":5126,"count":3,"type":"VEC3","min":[0.350168,0.32,-0.763834],"max":[0.686,0.32,-0.666549]},{"bufferView":20,"componentType":5126,"count":3,"type":"VEC2"},{"bufferView":21,"componentType":5123,"count":9,"type":"SCALAR"},{"bufferView":22,"componentType":5126,"count":3,"type":"VEC3","min":[0.294,0.32,-0.763834],"max":[0.686,0.32,-0.666549]},{"bufferView":23,"componentType":5126,"count":3,"type":"VEC2"},{"bufferView":24,"componentType":5123,"count":9,"type":"SCALAR"},{"bufferView":25,"componentType":5126,"count":3,"type":"VEC3","min":[0.210336,0.32,-0.763834],"max":[0.350168,0.32,-0.424352]},{"bufferView":26,"componentType":5126,"count":3,"type":"VEC2"},{"bufferView":27,"componentType":5123,"count":9,"type":"SCALAR"},{"bufferView":28,"componentType":5126,"count":3,"type":"VEC3","min":[0.098,0.32,-0.763834],"max":[0.294,0.32,-0.424352]},{"bufferView":29,"componentType":5126,"count":3,"type":"VEC2"},{"bufferView":30,"componentType":5123,"count":9,"type":"SCALAR"},{"bufferView":31,"componentType":5126,"count":4,"type":"VEC3","min":[0.0,0.0,-0.848705],"max":[0.294,0.32,-0.424352]},{"bufferView":32,"componentType":5126,"count":4,"type":"VEC3"},{"bufferView":33,"componentType":5126,"count":4,"type":"VEC2"},{"bufferView":34,"componentType":5123,"count":18,"type":"SCALAR"},{"bufferView":35,"componentType":5126,"count":4,"type":"VEC3","min":[0.245,0.0,-0.848705],"max":[0.735,0.32,-0.763834]},{"bufferView":36,"componentType":5126,"count":4,"type":"VEC3"},{"bufferView":37,"componentType":5126,"count":4,"type":"VEC2"},{"bufferView":38,"componentType":5123,"count":18,"type":"SCALAR"},{"bufferView":39,"componentType":5126,"count":4,"type":"VEC3","min":[0.686,0.0,-0.848705],"max":[0.98,0.32,-0.424352]},{"bufferView":40,"componentType":5126,"count":4,"type":"VEC3"},{"bufferView":41,"componentType":5126,"count":4,"type":"VEC2"},{"bufferView":42,"componentType":5123,"count":18,"type":"SCALAR"},{"bufferView":43,"componentType":5126,"count":6,"type":"VEC3","min":[0.0,0.0,-0.848705],"max":[0.98,0.0,0.0]},{"bufferView":44,"componentType":5126,"count":6,"type":"VEC3"},{"bufferView":45,"componentType":5126,"count":6,"type":"VEC2"},{"bufferView":46,"componentType":5123,"count":36,"type":"SCALAR"},{"bufferView":47,"componentType":5126,"count":4,"type":"VEC3","min":[0.0,0.0,-0.424352],"max":[0.294,0.32,-1.80478E-16]},{"bufferView":48,"componentType":5126,"count":4,"type":"VEC3"},{"bufferView":49,"componentType":5126,"count":4,"type":"VEC2"},{"bufferView":50,"componentType":5123,"count":18,"type":"SCALAR"},{"bufferView":51,"componentType":5126,"count":3,"type":"VEC3","min":[0.098,0.32,-0.424352],"max":[0.294,0.32,-0.0848705]},{"bufferView":52,"componentType":5126,"count":3,"type":"VEC2"},{"bufferView":53,"componentType":5123,"count":9,"type":"SCALAR"},{"bufferView":54,"componentType":5126,"count":3,"type":"VEC3","min":[0.210336,0.32,-0.424352],"max":[0.350168,0.32,-0.0848705]},{"bufferView":55,"componentType":5126,"count":3,"type":"VEC2"},{"bufferView":56,"componentType":5123,"count":9,"type":"SCALAR"},{"bufferView":57,"componentType":5126,"count":3,"type":"VEC3","min":[0.294,0.32,-0.182156],"max":[0.686,0.32,-0.0848705]},{"bufferView":58,"componentType":5126,"count":3,"type":"VEC2"},{"bufferView":59,"componentType":5123,"count":9,"type":"SCALAR"},{"bufferView":60,"componentType":5126,"count":4,"type":"VEC3","min":[0.245,0.0,-0.0848705],"max":[0.735,0.32,0.0]},{"bufferView":61,"componentType":5126,"count":4,"type":"VEC3"},{"bufferView":62,"componentType":5126,"count":4,"type":"VEC2"},{"bufferView":63,"componentType":5123,"count":18,"type":"SCALAR"},{"bufferView":64,"componentType":5126,"count":4,"type":"VEC3","min":[0.686,0.0,-0.424352],"max":[0.98,0.32,0.0]},{"bufferView":65,"componentType":5126,"count":4,"type":"VEC3"},{"bufferView":66,"componentType":5126,"count":4,"type":"VEC2"},{"bufferView":67,"componentType":5123,"count":18,"type":"SCALAR"},{"bufferView":68,"componentType":5126,"count":3,"type":"VEC3","min":[0.686,0.32,-0.424352],"max":[0.882,0.32,-0.0848705]},{"bufferView":69,"componentType":5126,"count":3,"type":"VEC2"},{"bufferView":70,"componentType":5123,"count":9,"type":"SCALAR"},{"bufferView":71,"componentType":5126,"count":4,"type":"VEC3","min":[0.350168,0.32,-0.424352],"max":[0.769664,0.32,-0.0848705]},{"bufferView":72,"componentType":5126,"count":4,"type":"VEC2"},{"bufferView":73,"componentType":5123,"count":18,"type":"SCALAR"},{"bufferView":74,"componentType":5126,"count":4,"type":"VEC3","min":[0.350168,0.32,-0.228173],"max":[0.629832,0.68,-0.182156]},{"bufferView":75,"componentType":5126,"count":4,"type":"VEC3"},{"bufferView":76,"componentType":5126,"count":4,"type":"VEC2"},{"bufferView":77,"componentType":5123,"count":18,"type":"SCALAR"},{"bufferView":78,"componentType":5126,"count":4,"type":"VEC3","min":[0.603264,0.32,-0.424352],"max":[0.769664,0.68,-0.182156]},{"bufferView":79,"componentType":5126,"count":4,"type":"VEC3"},{"bufferView":80,"componentType":5126,"count":4,"type":"VEC2"},{"bufferView":81,"componentType":5123,"count":18,"type":"SCALAR"},{"bufferView":82,"componentType":5126,"count":7,"type":"VEC3","min":[0.210336,0.32,-0.763834],"max":[0.882,0.68,-0.182156]},{"bufferView":83,"componentType":5126,"count":7,"type":"VEC3"},{"bufferView":84,"componentType":5126,"count":7,"type":"VEC2"},{"bufferView":85,"componentType":5123,"count":27,"type":"SCALAR"}],"bufferViews":[{"target":34962,"buffer":0,"byteLength":48,"byteOffset":0},{"target":34962,"buffer":0,"byteLength":48,"byteOffset":48},{"target":34962,"buffer":0,"byteLength":32,"byteOffset":96},{"target":34963,"buffer":0,"byteLength":36,"byteOffset":128},{"target":34962,"buffer":0,"byteLength":72,"byteOffset":164},{"target":34962,"buffer":0,"byteLength":72,"byteOffset":236},{"target":34962,"buffer":0,"byteLength":48,"byteOffset":308},{"target":34963,"buffer":0,"byteLength":72,"byteOffset":356},{"target":34962,"buffer":0,"byteLength":48,"byteOffset":428},{"target":34962,"buffer":0,"byteLength":48,"byteOffset":476},{"target":34962,"buffer":0,"byteLength":32,"byteOffset":524},{"target":34963,"buffer":0,"byteLength":36,"byteOffset":556},{"target":34962,"buffer":0,"byteLength":48,"byteOffset":592},{"target":34962,"buffer":0,"byteLength":48,"byteOffset":640},{"target":34962,"buffer":0,"byteLength":32,"byteOffset":688},{"target":34963,"buffer":0,"byteLength":36,"byteOffset":720},{"target":34962,"buffer":0,"byteLength":36,"byteOffset":756},{"target":34962,"buffer":0,"byteLength":24,"byteOffset":792},{"target":34963,"buffer":0,"byteLength":18,"byteOffset":816},{"target":34962,"buffer":0,"byteLength":36,"byteOffset":836},{"target":34962,"buffer":0,"byteLength":24,"byteOffset":872},{"target":34963,"buffer":0,"byteLength":18,"byteOffset":896},{"target":34962,"buffer":0,"byteLength":36,"byteOffset":916},{"target":34962,"buffer":0,"byteLength":24,"byteOffset":952},{"target":34963,"buffer":0,"byteLength":18,"byteOffset":976},{"target":34962,"buffer":0,"byteLength":36,"byteOffset":996},{"target":34962,"buffer":0,"byteLength":24,"byteOffset":1032},{"target":34963,"buffer":0,"byteLength":18,"byteOffset":1056},{"target":34962,"buffer":0,"byteLength":36,"byteOffset":1076},{"target":34962,"buffer":0,"byteLength":24,"byteOffset":1112},{"target":34963,"buffer":0,"byteLength":18,"byteOffset":1136},{"target":34962,"buffer":0,"byteLength":48,"byteOffset":1156},{"target":34962,"buffer":0,"byteLength":48,"byteOffset":1204},{"target":34962,"buffer":0,"byteLength":32,"byteOffset":1252},{"target":34963,"buffer":0,"byteLength":36,"byteOffset":1284},{"target":34962,"buffer":0,"byteLength":48,"byteOffset":1320},{"target":34962,"buffer":0,"byteLength":48,"byteOffset":1368},{"target":34962,"buffer":0,"byteLength":32,"byteOffset":1416},{"target":34963,"buffer":0,"byteLength":36,"byteOffset":1448},{"target":34962,"buffer":0,"byteLength":48,"byteOffset":1484},{"target":34962,"buffer":0,"byteLength":48,"byteOffset":1532},{"target":34962,"buffer":0,"byteLength":32,"byteOffset":1580},{"target":34963,"buffer":0,"byteLength":36,"byteOffset":1612},{"target":34962,"buffer":0,"byteLength":72,"byteOffset":1648},{"target":34962,"buffer":0,"byteLength":72,"byteOffset":1720},{"target":34962,"buffer":0,"byteLength":48,"byteOffset":1792},{"target":34963,"buffer":0,"byteLength":72,"byteOffset":1840},{"target":34962,"buffer":0,"byteLength":48,"byteOffset":1912},{"target":34962,"buffer":0,"byteLength":48,"byteOffset":1960},{"target":34962,"buffer":0,"byteLength":32,"byteOffset":2008},{"target":34963,"buffer":0,"byteLength":36,"byteOffset":2040},{"target":34962,"buffer":0,"byteLength":36,"byteOffset":2076},{"target":34962,"buffer":0,"byteLength":24,"byteOffset":2112},{"target":34963,"buffer":0,"byteLength":18,"byteOffset":2136},{"target":34962,"buffer":0,"byteLength":36,"byteOffset":2156},{"target":34962,"buffer":0,"byteLength":24,"byteOffset":2192},{"target":34963,"buffer":0,"byteLength":18,"byteOffset":2216},{"target":34962,"buffer":0,"byteLength":36,"byteOffset":2236},{"target":34962,"buffer":0,"byteLength":24,"byteOffset":2272},{"target":34963,"buffer":0,"byteLength":18,"byteOffset":2296},{"target":34962,"buffer":0,"byteLength":48,"byteOffset":2316},{"target":34962,"buffer":0,"byteLength":48,"byteOffset":2364},{"target":34962,"buffer":0,"byteLength":32,"byteOffset":2412},{"target":34963,"buffer":0,"byteLength":36,"byteOffset":2444},{"target":34962,"buffer":0,"byteLength":48,"byteOffset":2480},{"target":34962,"buffer":0,"byteLength":48,"byteOffset":2528},{"target":34962,"buffer":0,"byteLength":32,"byteOffset":2576},{"target":34963,"buffer":0,"byteLength":36,"byteOffset":2608},{"target":34962,"buffer":0,"byteLength":36,"byteOffset":2644},{"target":34962,"buffer":0,"byteLength":24,"byteOffset":2680},{"target":34963,"buffer":0,"byteLength":18,"byteOffset":2704},{"target":34962,"buffer":0,"byteLength":48,"byteOffset":2724},{"target":34962,"buffer":0,"byteLength":32,"byteOffset":2772},{"target":34963,"buffer":0,"byteLength":36,"byteOffset":2804},{"target":34962,"buffer":0,"byteLength":48,"byteOffset":2840},{"target":34962,"buffer":0,"byteLength":48,"byteOffset":2888},{"target":34962,"buffer":0,"byteLength":32,"byteOffset":2936},{"target":34963,"buffer":0,"byteLength":36,"byteOffset":2968},{"target":34962,"buffer":0,"byteLength":48,"byteOffset":3004},{"target":34962,"buffer":0,"byteLength":48,"byteOffset":3052},{"target":34962,"buffer":0,"byteLength":32,"byteOffset":3100},{"target":34963,"buffer":0,"byteLength":36,"byteOffset":3132},{"target":34962,"buffer":0,"byteLength":84,"byteOffset":3168},{"target":34962,"buffer":0,"byteLength":84,"byteOffset":3252},{"target":34962,"buffer":0,"byteLength":56,"byteOffset":3336},{"target":34963,"buffer":0,"byteLength":54,"byteOffset":3392}],"buffers":[{"byteLength":3448,"uri":"data:application/octet-stream;base64,"}]}