{"scene":0,"asset":{"generator":"ImageToStl.com","version":"2.0"},"scenes":[{"name":"Scene","nodes":[0]}],"nodes":[{"name":"Node0","children":[1,2,3,4,5,6,7,8,9,10,11,12,13,14,15,16,17,18,19,20,21,22,23,24,25,26]},{"name":"Node1","mesh":0},{"name":"Node2","mesh":1},{"name":"Node3","mesh":2},{"name":"Node4","mesh":3},{"name":"Node5","mesh":4},{"name":"Node6","mesh":5},{"name":"Node7","mesh":6},{"name":"Node8","mesh":7},{"name":"Node9","mesh":8},{"name":"Node10","mesh":9},{"name":"Node11","mesh":10},{"name":"Node12","mesh":11},{"name":"Node13","mesh":12},{"name":"Node14","mesh":13},{"name":"Node15","mesh":14},{"name":"Node16","mesh":15},{"name":"Node17","mesh":16},{"name":"Node18","mesh":17},{"name":"Node19","mesh":18},{"name":"Node20","mesh":19},{"name":"Node21","mesh":20},{"name":"Node22","mesh":21},{"name":"Node23","mesh":22},{"name":"Node24","mesh":23},{"name":"Node25","mesh":24},{"name":"Node26","mesh":25}],"materials":[{"name":"Stone","pbrMetallicRoughness":{"baseColorFactor":[0.72549,0.752941,0.788235,1.0],"metallicFactor":0.33,"roughnessFactor":1.0},"doubleSided":true}],"meshes":[{"name":"Mesh0","primitives":[{"indices":3,"material":0,"attributes":{"POSITION":0,"NORMAL":1,"TEXCOORD_0":2}}]},{"name":"Mesh0","primitives":[{"indices":7,"material":0,"attributes":{"POSITION":4,"NORMAL":5,"TEXCOORD_0":6}}]},{"name":"Mesh0","primitives":[{"indices":11,"material":0,"attributes":{"POSITION":8,"NORMAL":9,"TEXCOORD_0":10}}]},{"name":"Mesh0","primitives":[{"indices":15,"material":0,"attributes":{"POSITION":12,"NORMAL":13,"TEXCOORD_0":14}}]},{"name":"Mesh0","primitives":[{"indices":19,"material":0,"attributes":{"POSITION":16,"NORMAL":17,"TEXCOORD_0":18}}]},{"name":"Mesh0","primitives":[{"indices":23,"material":0,"attributes":{"POSITION":20,"NORMAL":21,"TEXCOORD_0":22}}]},{"name":"Mesh0","primitives":[{"indices":27,"material":0,"attributes":{"POSITION":24,"NORMAL":25,"TEXCOORD_0":26}}]},{"name":"Mesh0","primitives":[{"indices":31,"material":0,"attributes":{"POSITION":28,"NORMAL":29,"TEXCOORD_0":30}}]},{"name":"Mesh0","primitives":[{"indices":35,"material":0,"attributes":{"POSITION":32,"NORMAL":33,"TEXCOORD_0":34}}]},{"name":"Mesh0","primitives":[{"indices":39,"material":0,"attributes":{"POSITION":36,"NORMAL":37,"TEXCOORD_0":38}}]},{"name":"Mesh0","primitives":[{"indices":43,"material":0,"attributes":{"POSITION":40,"NORMAL":41,"TEXCOORD_0":42}}]},{"name":"Mesh0","primitives":[{"indices":47,"material":0,"attributes":{"POSITION":44,"NORMAL":45,"TEXCOORD_0":46}}]},{"name":"Mesh0","primitives":[{"indices":51,"material":0,"attributes":{"POSITION":48,"NORMAL":49,"TEXCOORD_0":50}}]},{"name":"Mesh0","primitives":[{"indices":55,"material":0,"attributes":{"POSITION":52,"NORMAL":53,"TEXCOORD_0":54}}]},{"name":"Mesh0","primitives":[{"indices":59,"material":0,"attributes":{"POSITION":56,"NORMAL":57,"TEXCOORD_0":58}}]},{"name":"Mesh0","primitives":[{"indices":63,"material":0,"attributes":{"POSITION":60,"NORMAL":61,"TEXCOORD_0":62}}]},{"name":"Mesh0","primitives":[{"indices":67,"material":0,"attributes":{"POSITION":64,"NORMAL":65,"TEXCOORD_0":66}}]},{"name":"Mesh0","primitives":[{"indices":71,"material":0,"attributes":{"POSITION":68,"NORMAL":69,"TEXCOORD_0":70}}]},{"name":"Mesh0","primitives":[{"indices":75,"material":0,"attributes":{"POSITION":72,"NORMAL":73,"TEXCOORD_0":74}}]},{"name":"Mesh0","primitives":[{"indices":79,"material":0,"attributes":{"POSITION":76,"NORMAL":77,"TEXCOORD_0":78}}]},{"name":"Mesh0","primitives":[{"indices":83,"material":0,"attributes":{"POSITION":80,"NORMAL":81,"TEXCOORD_0":82}}]},{"name":"Mesh0","primitives":[{"indices":87,"material":0,"attributes":{"POSITION":84,"NORMAL":85,"TEXCOORD_0":86}}]},{"name":"Mesh0","primitives":[{"indices":91,"material":0,"attributes":{"POSITION":88,"NORMAL":89,"TEXCOORD_0":90}}]},{"name":"Mesh0","primitives":[{"indices":95,"material":0,"attributes":{"POSITION":92,"NORMAL":93,"TEXCOORD_0":94}}]},{"name":"Mesh0","primitives":[{"indices":99,"material":0,"attributes":{"POSITION":96,"NORMAL":97,"TEXCOORD_0":98}}]},{"name":"Mesh0","primitives":[{"indices":103,"material":0,"attributes":{"POSITION":100,"NORMAL":101,"TEXCOORD_0":102}}]}],"accessors":[{"bufferView":0,"componentType":5126,"count":4,"type":"VEC3","min":[0.796743,0.0,-0.552],"max":[1.59349,0.56,0.0]},{"bufferView":1,"componentType":5126,"count":4,"type":"VEC3"},{"bufferView":2,"componentType":5126,"count":4,"type":"VEC2"},{"bufferView":3,"componentType":5123,"count":18,"type":"SCALAR"},{"bufferView":4,"componentType":5126,"count":4,"type":"VEC3","min":[1.43414,0.0,-1.38],"max":[1.59349,0.56,-0.46]},{"bufferView":5,"componentType":5126,"count":4,"type":"VEC3"},{"bufferView":6,"componentType":5126,"count":4,"type":"VEC2"},{"bufferView":7,"componentType":5123,"count":18,"type":"SCALAR"},{"bufferView":8,"componentType":5126,"count":6,"type":"VEC3","min":[0.0,0.0,-1.84],"max":[1.59349,0.0,0.0]},{"bufferView":9,"componentType":5126,"count":6,"type":"VEC3"},{"bufferView":10,"componentType":5126,"count":6,"type":"VEC2"},{"bufferView":11,"componentType":5123,"count":36,"type":"SCALAR"},{"bufferView":12,"componentType":5126,"count":4,"type":"VEC3","min":[0.0,0.0,-1.84],"max":[0.796743,0.56,-1.288]},{"bufferView":13,"componentType":5126,"count":4,"type":"VEC3"},{"bufferView":14,"componentType":5126,"count":4,"type":"VEC2"},{"bufferView":15,"componentType":5123,"count":18,"type":"SCALAR"},{"bufferView":16,"componentType":5126,"count":5,"type":"VEC3","min":[0.0,0.0,-1.38],"max":[0.159349,0.56,-0.46]},{"bufferView":17,"componentType":5126,"count":5,"type":"VEC3"},{"bufferView":18,"componentType":5126,"count":5,"type":"VEC2"},{"bufferView":19,"componentType":5123,"count":27,"type":"SCALAR"},{"bufferView":20,"componentType":5126,"count":6,"type":"VEC3","min":[0.159349,0.56,-1.656],"max":[1.11544,0.56,-0.761934]},{"bufferView":21,"componentType":5126,"count":6,"type":"VEC3"},{"bufferView":22,"componentType":5126,"count":6,"type":"VEC2"},{"bufferView":23,"componentType":5123,"count":36,"type":"SCALAR"},{"bufferView":24,"componentType":5126,"count":4,"type":"VEC3","min":[0.159349,0.56,-0.772504],"max":[0.755492,0.92,-0.761934]},{"bufferView":25,"componentType":5126,"count":4,"type":"VEC3"},{"bufferView":26,"componentType":5126,"count":4,"type":"VEC2"},{"bufferView":27,"componentType":5123,"count":18,"type":"SCALAR"},{"bufferView":28,"componentType":5126,"count":4,"type":"VEC3","min":[0.159349,0.56,-0.772504],"max":[0.261332,0.92,-0.552]},{"bufferView":29,"componentType":5126,"count":4,"type":"VEC3"},{"bufferView":30,"componentType":5126,"count":4,"type":"VEC2"},{"bufferView":31,"componentType":5123,"count":18,"type":"SCALAR"},{"bufferView":32,"componentType":5126,"count":4,"type":"VEC3","min":[0.261332,0.92,-0.772504],"max":[0.421955,1.97,-0.59616]},{"bufferView":33,"componentType":5126,"count":4,"type":"VEC3"},{"bufferView":34,"componentType":5126,"count":4,"type":"VEC2"},{"bufferView":35,"componentType":5123,"count":18,"type":"SCALAR"},{"bufferView":36,"componentType":5126,"count":8,"type":"VEC3","min":[0.421955,1.97,-0.998049],"max":[1.17153,1.97,-0.412512]},{"bufferView":37,"componentType":5126,"count":8,"type":"VEC3"},{"bufferView":38,"componentType":5126,"count":8,"type":"VEC2"},{"bufferView":39,"componentType":5123,"count":54,"type":"SCALAR"},{"bufferView":40,"componentType":5126,"count":4,"type":"VEC3","min":[1.17153,0.92,-0.896416],"max":[1.33215,1.97,-0.59616]},{"bufferView":41,"componentType":5126,"count":4,"type":"VEC3"},{"bufferView":42,"componentType":5126,"count":4,"type":"VEC2"},{"bufferView":43,"componentType":5123,"count":18,"type":"SCALAR"},{"bufferView":44,"componentType":5126,"count":5,"type":"VEC3","min":[1.33215,0.56,-1.288],"max":[1.43414,0.92,-0.552]},{"bufferView":45,"componentType":5126,"count":5,"type":"VEC3"},{"bufferView":46,"componentType":5126,"count":5,"type":"VEC2"},{"bufferView":47,"componentType":5123,"count":27,"type":"SCALAR"},{"bufferView":48,"componentType":5126,"count":4,"type":"VEC3","min":[1.06445,0.56,-1.472],"max":[1.43414,0.92,-1.2144]},{"bufferView":49,"componentType":5126,"count":4,"type":"VEC3"},{"bufferView":50,"componentType":5126,"count":4,"type":"VEC2"},{"bufferView":51,"componentType":5123,"count":18,"type":"SCALAR"},{"bufferView":52,"componentType":5126,"count":4,"type":"VEC3","min":[0.659291,0.56,-1.472],"max":[1.11544,0.92,-1.17736]},{"bufferView":53,"componentType":5126,"count":4,"type":"VEC3"},{"bufferView":54,"componentType":5126,"count":4,"type":"VEC2"},{"bufferView":55,"componentType":5123,"count":18,"type":"SCALAR"},{"bufferView":56,"componentType":5126,"count":5,"type":"VEC3","min":[0.659291,0.56,-1.2439],"max":[0.755492,0.92,-0.761934]},{"bufferView":57,"componentType":5126,"count":5,"type":"VEC3"},{"bufferView":58,"componentType":5126,"count":5,"type":"VEC2"},{"bufferView":59,"componentType":5123,"count":27,"type":"SCALAR"},{"bufferView":60,"componentType":5126,"count":6,"type":"VEC3","min":[0.681284,0.92,-1.36896],"max":[1.33215,0.92,-0.896416]},{"bufferView":61,"componentType":5126,"count":6,"type":"VEC3"},{"bufferView":62,"componentType":5126,"count":6,"type":"VEC2"},{"bufferView":63,"componentType":5123,"count":36,"type":"SCALAR"},{"bufferView":64,"componentType":5126,"count":4,"type":"VEC3","min":[0.718388,0.92,-1.12352],"max":[1.04005,1.97,-0.894036]},{"bufferView":65,"componentType":5126,"count":4,"type":"VEC3"},{"bufferView":66,"componentType":5126,"count":4,"type":"VEC2"},{"bufferView":67,"componentType":5123,"count":18,"type":"SCALAR"},{"bufferView":68,"componentType":5126,"count":4,"type":"VEC3","min":[0.718388,0.92,-0.974932],"max":[0.767868,1.97,-0.752337]},{"bufferView":69,"componentType":5126,"count":4,"type":"VEC3"},{"bufferView":70,"componentType":5126,"count":4,"type":"VEC2"},{"bufferView":71,"componentType":5123,"count":18,"type":"SCALAR"},{"bufferView":72,"componentType":5126,"count":4,"type":"VEC3","min":[0.261332,0.92,-0.772504],"max":[0.767868,1.97,-0.752337]},{"bufferView":73,"componentType":5126,"count":4,"type":"VEC3"},{"bufferView":74,"componentType":5126,"count":4,"type":"VEC2"},{"bufferView":75,"componentType":5123,"count":18,"type":"SCALAR"},{"bufferView":76,"componentType":5126,"count":4,"type":"VEC3","min":[0.967061,0.92,-1.12352],"max":[1.33215,1.97,-0.839075]},{"bufferView":77,"componentType":5126,"count":4,"type":"VEC3"},{"bufferView":78,"componentType":5126,"count":4,"type":"VEC2"},{"bufferView":79,"componentType":5123,"count":18,"type":"SCALAR"},{"bufferView":80,"componentType":5126,"count":5,"type":"VEC3","min":[0.796743,0.0,-1.84],"max":[1.59349,0.56,-1.288]},{"bufferView":81,"componentType":5126,"count":5,"type":"VEC3"},{"bufferView":82,"componentType":5126,"count":5,"type":"VEC2"},{"bufferView":83,"componentType":5123,"count":27,"type":"SCALAR"},{"bufferView":84,"componentType":5126,"count":4,"type":"VEC3","min":[0.796743,0.56,-0.59616],"max":[1.43414,0.92,-0.184]},{"bufferView":85,"componentType":5126,"count":4,"type":"VEC3"},{"bufferView":86,"componentType":5126,"count":4,"type":"VEC2"},{"bufferView":87,"componentType":5123,"count":18,"type":"SCALAR"},{"bufferView":88,"componentType":5126,"count":4,"type":"VEC3","min":[0.796743,0.92,-0.628896],"max":[1.33215,1.97,-0.28704]},{"bufferView":89,"componentType":5126,"count":4,"type":"VEC3"},{"bufferView":90,"componentType":5126,"count":4,"type":"VEC2"},{"bufferView":91,"componentType":5123,"count":18,"type":"SCALAR"},{"bufferView":92,"componentType":5126,"count":4,"type":"VEC3","min":[0.261332,0.92,-0.628896],"max":[0.796743,1.97,-0.28704]},{"bufferView":93,"componentType":5126,"count":4,"type":"VEC3"},{"bufferView":94,"componentType":5126,"count":4,"type":"VEC2"},{"bufferView":95,"componentType":5123,"count":18,"type":"SCALAR"},{"bufferView":96,"componentType":5126,"count":4,"type":"VEC3","min":[0.159349,0.56,-0.59616],"max":[0.796743,0.92,-0.184]},{"bufferView":97,"componentType":5126,"count":4,"type":"VEC3"},{"bufferView":98,"componentType":5126,"count":4,"type":"VEC2"},{"bufferView":99,"componentType":5123,"count":18,"type":"SCALAR"},{"bufferView":100,"componentType":5126,"count":4,"type":"VEC3","min":[0.0,0.0,-0.552],"max":[0.796743,0.56,0.0]},{"bufferView":101,"componentType":5126,"count":4,"type":"VEC3"},{"bufferView":102,"componentType":5126,"count":4,"type":"VEC2"},{"bufferView":103,"componentType":5123,"count":18,"type":"SCALAR"}],"bufferViews":[{"target":34962,"buffer":0,"byteLength":48,"byteOffset":0},{"target":34962,"buffer":0,"byteLength":48,"byteOffset":48},{"target":34962,"buffer":0,"byteLength":32,"byteOffset":96},{"target":34963,"buffer":0,"byteLength":36,"byteOffset":128},{"target":34962,"buffer":0,"byteLength":48,"byteOffset":164},{"target":34962,"buffer":0,"byteLength":48,"byteOffset":212},{"target":34962,"buffer":0,"byteLength":32,"byteOffset":260},{"target":34963,"buffer":0,"byteLength":36,"byteOffset":292},{"target":34962,"buffer":0,"byteLength":72,"byteOffset":328},{"target":34962,"buffer":0,"byteLength":72,"byteOffset":400},{"target":34962,"buffer":0,"byteLength":48,"byteOffset":472},{"target":34963,"buffer":0,"byteLength":72,"byteOffset":520},{"target":34962,"buffer":0,"byteLength":48,"byteOffset":592},{"target":34962,"buffer":0,"byteLength":48,"byteOffset":640},{"target":34962,"buffer":0,"byteLength":32,"byteOffset":688},{"target":34963,"buffer":0,"byteLength":36,"byteOffset":720},{"target":34962,"buffer":0,"byteLength":60,"byteOffset":756},{"target":34962,"buffer":0,"byteLength":60,"byteOffset":816},{"target":34962,"buffer":0,"byteLength":40,"byteOffset":876},{"target":34963,"buffer":0,"byteLength":54,"byteOffset":916},{"target":34962,"buffer":0,"byteLength":72,"byteOffset":972},{"target":34962,"buffer":0,"byteLength":72,"byteOffset":1044},{"target":34962,"buffer":0,"byteLength":48,"byteOffset":1116},{"target":34963,"buffer":0,"byteLength":72,"byteOffset":1164},{"target":34962,"buffer":0,"byteLength":48,"byteOffset":1236},{"target":34962,"buffer":0,"byteLength":48,"byteOffset":1284},{"target":34962,"buffer":0,"byteLength":32,"byteOffset":1332},{"target":34963,"buffer":0,"byteLength":36,"byteOffset":1364},{"target":34962,"buffer":0,"byteLength":48,"byteOffset":1400},{"target":34962,"buffer":0,"byteLength":48,"byteOffset":1448},{"target":34962,"buffer":0,"byteLength":32,"byteOffset":1496},{"target":34963,"buffer":0,"byteLength":36,"byteOffset":1528},{"target":34962,"buffer":0,"byteLength":48,"byteOffset":1564},{"target":34962,"buffer":0,"byteLength":48,"byteOffset":1612},{"target":34962,"buffer":0,"byteLength":32,"byteOffset":1660},{"target":34963,"buffer":0,"byteLength":36,"byteOffset":1692},{"target":34962,"buffer":0,"byteLength":96,"byteOffset":1728},{"target":34962,"buffer":0,"byteLength":96,"byteOffset":1824},{"target":34962,"buffer":0,"byteLength":64,"byteOffset":1920},{"target":34963,"buffer":0,"byteLength":108,"byteOffset":1984},{"target":34962,"buffer":0,"byteLength":48,"byteOffset":2092},{"target":34962,"buffer":0,"byteLength":48,"byteOffset":2140},{"target":34962,"buffer":0,"byteLength":32,"byteOffset":2188},{"target":34963,"buffer":0,"byteLength":36,"byteOffset":2220},{"target":34962,"buffer":0,"byteLength":60,"byteOffset":2256},{"target":34962,"buffer":0,"byteLength":60,"byteOffset":2316},{"target":34962,"buffer":0,"byteLength":40,"byteOffset":2376},{"target":34963,"buffer":0,"byteLength":54,"byteOffset":2416},{"target":34962,"buffer":0,"byteLength":48,"byteOffset":2472},{"target":34962,"buffer":0,"byteLength":48,"byteOffset":2520},{"target":34962,"buffer":0,"byteLength":32,"byteOffset":2568},{"target":34963,"buffer":0,"byteLength":36,"byteOffset":2600},{"target":34962,"buffer":0,"byteLength":48,"byteOffset":2636},{"target":34962,"buffer":0,"byteLength":48,"byteOffset":2684},{"target":34962,"buffer":0,"byteLength":32,"byteOffset":2732},{"target":34963,"buffer":0,"byteLength":36,"byteOffset":2764},{"target":34962,"buffer":0,"byteLength":60,"byteOffset":2800},{"target":34962,"buffer":0,"byteLength":60,"byteOffset":2860},{"target":34962,"buffer":0,"byteLength":40,"byteOffset":2920},{"target":34963,"buffer":0,"byteLength":54,"byteOffset":2960},{"target":34962,"buffer":0,"byteLength":72,"byteOffset":3016},{"target":34962,"buffer":0,"byteLength":72,"byteOffset":3088},{"target":34962,"buffer":0,"byteLength":48,"byteOffset":3160},{"target":34963,"buffer":0,"byteLength":72,"byteOffset":3208},{"target":34962,"buffer":0,"byteLength":48,"byteOffset":3280},{"target":34962,"buffer":0,"byteLength":48,"byteOffset":3328},{"target":34962,"buffer":0,"byteLength":32,"byteOffset":3376},{"target":34963,"buffer":0,"byteLength":36,"byteOffset":3408},{"target":34962,"buffer":0,"byteLength":48,"byteOffset":3444},{"target":34962,"buffer":0,"byteLength":48,"byteOffset":3492},{"target":34962,"buffer":0,"byteLength":32,"byteOffset":3540},{"target":34963,"buffer":0,"byteLength":36,"byteOffset":3572},{"target":34962,"buffer":0,"byteLength":48,"byteOffset":3608},{"target":34962,"buffer":0,"byteLength":48,"byteOffset":3656},{"target":34962,"buffer":0,"byteLength":32,"byteOffset":3704},{"target":34963,"buffer":0,"byteLength":36,"byteOffset":3736},{"target":34962,"buffer":0,"byteLength":48,"byteOffset":3772},{"target":34962,"buffer":0,"byteLength":48,"byteOffset":3820},{"target":34962,"buffer":0,"byteLength":32,"byteOffset":3868},{"target":34963,"buffer":0,"byteLength":36,"byteOffset":3900},{"target":34962,"buffer":0,"byteLength":60,"byteOffset":3936},{"target":34962,"buffer":0,"byteLength":60,"byteOffset":3996},{"target":34962,"buffer":0,"byteLength":40,"byteOffset":4056},{"target":34963,"buffer":0,"byteLength":54,"byteOffset":4096},{"target":34962,"buffer":0,"byteLength":48,"byteOffset":4152},{"target":34962,"buffer":0,"byteLength":48,"byteOffset":4200},{"target":34962,"buffer":0,"byteLength":32,"byteOffset":4248},{"target":34963,"buffer":0,"byteLength":36,"byteOffset":4280},{"target":34962,"buffer":0,"byteLength":48,"byteOffset":4316},{"target":34962,"buffer":0,"byteLength":48,"byteOffset":4364},{"target":34962,"buffer":0,"byteLength":32,"byteOffset":4412},{"target":34963,"buffer":0,"byteLength":36,"byteOffset":4444},{"target":34962,"buffer":0,"byteLength":48,"byteOffset":4480},{"target":34962,"buffer":0,"byteLength":48,"byteOffset":4528},{"target":34962,"buffer":0,"byteLength":32,"byteOffset":4576},{"target":34963,"buffer":0,"byteLength":36,"byteOffset":4608},{"target":34962,"buffer":0,"byteLength":48,"byteOffset":4644},{"target":34962,"buffer":0,"byteLength":48,"byteOffset":4692},{"target":34962,"buffer":0,"byteLength":32,"byteOffset":4740},{"target":34963,"buffer":0,"byteLength":36,"byteOffset":4772},{"target":34962,"buffer":0,"byteLength":48,"byteOffset":4808},{"target":34962,"buffer":0,"byteLength":48,"byteOffset":4856},{"target":34962,"buffer":0,"byteLength":32,"byteOffset":4904},{"target":34963,"buffer":0,"byteLength":36,"byteOffset":4936}],"buffers":[{"byteLength":4972,"uri":"data:application/octet-stream;base64,"}]}