{"scene":0,"asset":{"generator":"ImageToStl.com","version":"2.0"},"scenes":[{"name":"Scene","nodes":[0]}],"nodes":[{"name":"Node0","children":[1,2,3,4,5,6,7,8,9,10,11,12,13,14,15,16,17,18,19,20,21]},{"name":"Node1","mesh":0},{"name":"Node2","mesh":1},{"name":"Node3","mesh":2},{"name":"Node4","mesh":3},{"name":"Node5","mesh":4},{"name":"Node6","mesh":5},{"name":"Node7","mesh":6},{"name":"Node8","mesh":7},{"name":"Node9","mesh":8},{"name":"Node10","mesh":9},{"name":"Node11","mesh":10},{"name":"Node12","mesh":11},{"name":"Node13","mesh":12},{"name":"Node14","mesh":13},{"name":"Node15","mesh":14},{"name":"Node16","mesh":15},{"name":"Node17","mesh":16},{"name":"Node18","mesh":17},{"name":"Node19","mesh":18},{"name":"Node20","mesh":19},{"name":"Node21","mesh":20}],"materials":[{"name":"Stone","pbrMetallicRoughness":{"baseColorFactor":[0.72549,0.752941,0.788235,1.0],"metallicFactor":0.33,"roughnessFactor":1.0},"doubleSided":true}],"meshes":[{"name":"Mesh0","primitives":[{"indices":3,"material":0,"attributes":{"POSITION":0,"NORMAL":1,"TEXCOORD_0":2}}]},{"name":"Mesh0","primitives":[{"indices":7,"material":0,"attributes":{"POSITION":4,"NORMAL":5,"TEXCOORD_0":6}}]},{"name":"Mesh0","primitives":[{"indices":11,"material":0,"attributes":{"POSITION":8,"NORMAL":9,"TEXCOORD_0":10}}]},{"name":"Mesh0","primitives":[{"indices":15,"material":0,"attributes":{"POSITION":12,"NORMAL":13,"TEXCOORD_0":14}}]},{"name":"Mesh0","primitives":[{"indices":19,"material":0,"attributes":{"POSITION":16,"NORMAL":17,"TEXCOORD_0":18}}]},{"name":"Mesh0","primitives":[{"indices":23,"material":0,"attributes":{"POSITION":20,"NORMAL":21,"TEXCOORD_0":22}}]},{"name":"Mesh0","primitives":[{"indices":27,"material":0,"attributes":{"POSITION":24,"NORMAL":25,"TEXCOORD_0":26}}]},{"name":"Mesh0","primitives":[{"indices":31,"material":0,"attributes":{"POSITION":28,"NORMAL":29,"TEXCOORD_0":30}}]},{"name":"Mesh0","primitives":[{"indices":35,"material":0,"attributes":{"POSITION":32,"NORMAL":33,"TEXCOORD_0":34}}]},{"name":"Mesh0","primitives":[{"indices":38,"material":0,"attributes":{"POSITION":36,"TEXCOORD_0":37}}]},{"name":"Mesh0","primitives":[{"indices":42,"material":0,"attributes":{"POSITION":39,"NORMAL":40,"TEXCOORD_0":41}}]},{"name":"Mesh0","primitives":[{"indices":46,"material":0,"attributes":{"POSITION":43,"NORMAL":44,"TEXCOORD_0":45}}]},{"name":"Mesh0","primitives":[{"indices":50,"material":0,"attributes":{"POSITION":47,"NORMAL":48,"TEXCOORD_0":49}}]},{"name":"Mesh0","primitives":[{"indices":54,"material":0,"attributes":{"POSITION":51,"NORMAL":52,"TEXCOORD_0":53}}]},{"name":"Mesh0","primitives":[{"indices":58,"material":0,"attributes":{"POSITION":55,"NORMAL":56,"TEXCOORD_0":57}}]},{"name":"Mesh0","primitives":[{"indices":62,"material":0,"attributes":{"POSITION":59,"NORMAL":60,"TEXCOORD_0":61}}]},{"name":"Mesh0","primitives":[{"indices":65,"material":0,"attributes":{"POSITION":63,"TEXCOORD_0":64}}]},{"name":"Mesh0","primitives":[{"indices":69,"material":0,"attributes":{"POSITION":66,"NORMAL":67,"TEXCOORD_0":68}}]},{"name":"Mesh0","primitives":[{"indices":73,"material":0,"attributes":{"POSITION":70,"NORMAL":71,"TEXCOORD_0":72}}]},{"name":"Mesh0","primitives":[{"indices":77,"material":0,"attributes":{"POSITION":74,"NORMAL":75,"TEXCOORD_0":76}}]},{"name":"Mesh0","primitives":[{"indices":81,"material":0,"attributes":{"POSITION":78,"NORMAL":79,"TEXCOORD_0":80}}]}],"accessors":[{"bufferView":0,"componentType":5126,"count":6,"type":"VEC3","min":[0.0,0.0,-1.36],"max":[1.17779,0.0,0.0]},{"bufferView":1,"componentType":5126,"count":6,"type":"VEC3"},{"bufferView":2,"componentType":5126,"count":6,"type":"VEC2"},{"bufferView":3,"componentType":5123,"count":36,"type":"SCALAR"},{"bufferView":4,"componentType":5126,"count":4,"type":"VEC3","min":[0.588897,0.0,-0.3876],"max":[1.17779,1.06,0.0]},{"bufferView":5,"componentType":5126,"count":4,"type":"VEC3"},{"bufferView":6,"componentType":5126,"count":4,"type":"VEC2"},{"bufferView":7,"componentType":5123,"count":18,"type":"SCALAR"},{"bufferView":8,"componentType":5126,"count":5,"type":"VEC3","min":[1.09535,0.0,-1.02],"max":[1.17779,1.06,-0.34]},{"bufferView":9,"componentType":5126,"count":5,"type":"VEC3"},{"bufferView":10,"componentType":5126,"count":5,"type":"VEC2"},{"bufferView":11,"componentType":5123,"count":27,"type":"SCALAR"},{"bufferView":12,"componentType":5126,"count":4,"type":"VEC3","min":[0.588897,0.0,-1.36],"max":[1.17779,1.06,-0.9724]},{"bufferView":13,"componentType":5126,"count":4,"type":"VEC3"},{"bufferView":14,"componentType":5126,"count":4,"type":"VEC2"},{"bufferView":15,"componentType":5123,"count":18,"type":"SCALAR"},{"bufferView":16,"componentType":5126,"count":4,"type":"VEC3","min":[1.44382E-15,0.0,-1.36],"max":[0.588897,1.06,-0.9724]},{"bufferView":17,"componentType":5126,"count":4,"type":"VEC3"},{"bufferView":18,"componentType":5126,"count":4,"type":"VEC2"},{"bufferView":19,"componentType":5123,"count":18,"type":"SCALAR"},{"bufferView":20,"componentType":5126,"count":5,"type":"VEC3","min":[0.0,0.0,-1.02],"max":[0.0824456,1.06,-0.34]},{"bufferView":21,"componentType":5126,"count":5,"type":"VEC3"},{"bufferView":22,"componentType":5126,"count":5,"type":"VEC2"},{"bufferView":23,"componentType":5123,"count":27,"type":"SCALAR"},{"bufferView":24,"componentType":5126,"count":6,"type":"VEC3","min":[0.0824456,1.06,-1.2648],"max":[1.09535,1.06,-0.68]},{"bufferView":25,"componentType":5126,"count":6,"type":"VEC3"},{"bufferView":26,"componentType":5126,"count":6,"type":"VEC2"},{"bufferView":27,"componentType":5123,"count":36,"type":"SCALAR"},{"bufferView":28,"componentType":5126,"count":4,"type":"VEC3","min":[0.0824456,1.06,-0.847446],"max":[0.546885,1.48,-0.650785]},{"bufferView":29,"componentType":5126,"count":4,"type":"VEC3"},{"bufferView":30,"componentType":5126,"count":4,"type":"VEC2"},{"bufferView":31,"componentType":5123,"count":18,"type":"SCALAR"},{"bufferView":32,"componentType":5126,"count":4,"type":"VEC3","min":[0.0824456,1.06,-0.68],"max":[0.153349,1.48,-0.3876]},{"bufferView":33,"componentType":5126,"count":4,"type":"VEC3"},{"bufferView":34,"componentType":5126,"count":4,"type":"VEC2"},{"bufferView":35,"componentType":5123,"count":18,"type":"SCALAR"},{"bufferView":36,"componentType":5126,"count":4,"type":"VEC3","min":[0.153349,1.48,-0.794789],"max":[0.546885,1.48,-0.260952]},{"bufferView":37,"componentType":5126,"count":4,"type":"VEC2"},{"bufferView":38,"componentType":5123,"count":18,"type":"SCALAR"},{"bufferView":39,"componentType":5126,"count":5,"type":"VEC3","min":[0.0824456,1.06,-0.399321],"max":[0.588897,1.48,-0.0952]},{"bufferView":40,"componentType":5126,"count":5,"type":"VEC3"},{"bufferView":41,"componentType":5126,"count":5,"type":"VEC2"},{"bufferView":42,"componentType":5123,"count":27,"type":"SCALAR"},{"bufferView":43,"componentType":5126,"count":4,"type":"VEC3","min":[0.588897,1.06,-0.399321],"max":[1.09535,1.48,-0.0952]},{"bufferView":44,"componentType":5126,"count":4,"type":"VEC3"},{"bufferView":45,"componentType":5126,"count":4,"type":"VEC2"},{"bufferView":46,"componentType":5123,"count":18,"type":"SCALAR"},{"bufferView":47,"componentType":5126,"count":4,"type":"VEC3","min":[1.02445,1.06,-0.68],"max":[1.09535,1.48,-0.3876]},{"bufferView":48,"componentType":5126,"count":4,"type":"VEC3"},{"bufferView":49,"componentType":5126,"count":4,"type":"VEC2"},{"bufferView":50,"componentType":5123,"count":18,"type":"SCALAR"},{"bufferView":51,"componentType":5126,"count":4,"type":"VEC3","min":[0.540045,1.06,-0.847446],"max":[1.09535,1.48,-0.650785]},{"bufferView":52,"componentType":5126,"count":4,"type":"VEC3"},{"bufferView":53,"componentType":5126,"count":4,"type":"VEC2"},{"bufferView":54,"componentType":5123,"count":18,"type":"SCALAR"},{"bufferView":55,"componentType":5126,"count":4,"type":"VEC3","min":[0.546885,1.48,-0.794789],"max":[1.02445,2.17,-0.620277]},{"bufferView":56,"componentType":5126,"count":4,"type":"VEC3"},{"bufferView":57,"componentType":5126,"count":4,"type":"VEC2"},{"bufferView":58,"componentType":5123,"count":18,"type":"SCALAR"},{"bufferView":59,"componentType":5126,"count":4,"type":"VEC3","min":[0.393011,1.48,-0.794789],"max":[0.574398,2.17,-0.260952]},{"bufferView":60,"componentType":5126,"count":4,"type":"VEC3"},{"bufferView":61,"componentType":5126,"count":4,"type":"VEC2"},{"bufferView":62,"componentType":5123,"count":18,"type":"SCALAR"},{"bufferView":63,"componentType":5126,"count":5,"type":"VEC3","min":[0.446683,2.17,-0.739799],"max":[0.970774,2.17,-0.202846]},{"bufferView":64,"componentType":5126,"count":5,"type":"VEC2"},{"bufferView":65,"componentType":5123,"count":27,"type":"SCALAR"},{"bufferView":66,"componentType":5126,"count":4,"type":"VEC3","min":[0.393011,1.48,-0.296715],"max":[0.609269,2.17,-0.147857]},{"bufferView":67,"componentType":5126,"count":4,"type":"VEC3"},{"bufferView":68,"componentType":5126,"count":4,"type":"VEC2"},{"bufferView":69,"componentType":5123,"count":18,"type":"SCALAR"},{"bufferView":70,"componentType":5126,"count":4,"type":"VEC3","min":[0.588897,1.48,-0.411561],"max":[1.02445,2.17,-0.147857]},{"bufferView":71,"componentType":5126,"count":4,"type":"VEC3"},{"bufferView":72,"componentType":5126,"count":4,"type":"VEC2"},{"bufferView":73,"componentType":5123,"count":18,"type":"SCALAR"},{"bufferView":74,"componentType":5126,"count":4,"type":"VEC3","min":[0.970774,1.48,-0.650785],"max":[1.02445,2.17,-0.399321]},{"bufferView":75,"componentType":5126,"count":4,"type":"VEC3"},{"bufferView":76,"componentType":5126,"count":4,"type":"VEC2"},{"bufferView":77,"componentType":5123,"count":18,"type":"SCALAR"},{"bufferView":78,"componentType":5126,"count":4,"type":"VEC3","min":[0.0,0.0,-0.3876],"max":[0.588897,1.06,0.0]},{"bufferView":79,"componentType":5126,"count":4,"type":"VEC3"},{"bufferView":80,"componentType":5126,"count":4,"type":"VEC2"},{"bufferView":81,"componentType":5123,"count":18,"type":"SCALAR"}],"bufferViews":[{"target":34962,"buffer":0,"byteLength":72,"byteOffset":0},{"target":34962,"buffer":0,"byteLength":72,"byteOffset":72},{"target":34962,"buffer":0,"byteLength":48,"byteOffset":144},{"target":34963,"buffer":0,"byteLength":72,"byteOffset":192},{"target":34962,"buffer":0,"byteLength":48,"byteOffset":264},{"target":34962,"buffer":0,"byteLength":48,"byteOffset":312},{"target":34962,"buffer":0,"byteLength":32,"byteOffset":360},{"target":34963,"buffer":0,"byteLength":36,"byteOffset":392},{"target":34962,"buffer":0,"byteLength":60,"byteOffset":428},{"target":34962,"buffer":0,"byteLength":60,"byteOffset":488},{"target":34962,"buffer":0,"byteLength":40,"byteOffset":548},{"target":34963,"buffer":0,"byteLength":54,"byteOffset":588},{"target":34962,"buffer":0,"byteLength":48,"byteOffset":644},{"target":34962,"buffer":0,"byteLength":48,"byteOffset":692},{"target":34962,"buffer":0,"byteLength":32,"byteOffset":740},{"target":34963,"buffer":0,"byteLength":36,"byteOffset":772},{"target":34962,"buffer":0,"byteLength":48,"byteOffset":808},{"target":34962,"buffer":0,"byteLength":48,"byteOffset":856},{"target":34962,"buffer":0,"byteLength":32,"byteOffset":904},{"target":34963,"buffer":0,"byteLength":36,"byteOffset":936},{"target":34962,"buffer":0,"byteLength":60,"byteOffset":972},{"target":34962,"buffer":0,"byteLength":60,"byteOffset":1032},{"target":34962,"buffer":0,"byteLength":40,"byteOffset":1092},{"target":34963,"buffer":0,"byteLength":54,"byteOffset":1132},{"target":34962,"buffer":0,"byteLength":72,"byteOffset":1188},{"target":34962,"buffer":0,"byteLength":72,"byteOffset":1260},{"target":34962,"buffer":0,"byteLength":48,"byteOffset":1332},{"target":34963,"buffer":0,"byteLength":72,"byteOffset":1380},{"target":34962,"buffer":0,"byteLength":48,"byteOffset":1452},{"target":34962,"buffer":0,"byteLength":48,"byteOffset":1500},{"target":34962,"buffer":0,"byteLength":32,"byteOffset":1548},{"target":34963,"buffer":0,"byteLength":36,"byteOffset":1580},{"target":34962,"buffer":0,"byteLength":48,"byteOffset":1616},{"target":34962,"buffer":0,"byteLength":48,"byteOffset":1664},{"target":34962,"buffer":0,"byteLength":32,"byteOffset":1712},{"target":34963,"buffer":0,"byteLength":36,"byteOffset":1744},{"target":34962,"buffer":0,"byteLength":48,"byteOffset":1780},{"target":34962,"buffer":0,"byteLength":32,"byteOffset":1828},{"target":34963,"buffer":0,"byteLength":36,"byteOffset":1860},{"target":34962,"buffer":0,"byteLength":60,"byteOffset":1896},{"target":34962,"buffer":0,"byteLength":60,"byteOffset":1956},{"target":34962,"buffer":0,"byteLength":40,"byteOffset":2016},{"target":34963,"buffer":0,"byteLength":54,"byteOffset":2056},{"target":34962,"buffer":0,"byteLength":48,"byteOffset":2112},{"target":34962,"buffer":0,"byteLength":48,"byteOffset":2160},{"target":34962,"buffer":0,"byteLength":32,"byteOffset":2208},{"target":34963,"buffer":0,"byteLength":36,"byteOffset":2240},{"target":34962,"buffer":0,"byteLength":48,"byteOffset":2276},{"target":34962,"buffer":0,"byteLength":48,"byteOffset":2324},{"target":34962,"buffer":0,"byteLength":32,"byteOffset":2372},{"target":34963,"buffer":0,"byteLength":36,"byteOffset":2404},{"target":34962,"buffer":0,"byteLength":48,"byteOffset":2440},{"target":34962,"buffer":0,"byteLength":48,"byteOffset":2488},{"target":34962,"buffer":0,"byteLength":32,"byteOffset":2536},{"target":34963,"buffer":0,"byteLength":36,"byteOffset":2568},{"target":34962,"buffer":0,"byteLength":48,"byteOffset":2604},{"target":34962,"buffer":0,"byteLength":48,"byteOffset":2652},{"target":34962,"buffer":0,"byteLength":32,"byteOffset":2700},{"target":34963,"buffer":0,"byteLength":36,"byteOffset":2732},{"target":34962,"buffer":0,"byteLength":48,"byteOffset":2768},{"target":34962,"buffer":0,"byteLength":48,"byteOffset":2816},{"target":34962,"buffer":0,"byteLength":32,"byteOffset":2864},{"target":34963,"buffer":0,"byteLength":36,"byteOffset":2896},{"target":34962,"buffer":0,"byteLength":60,"byteOffset":2932},{"target":34962,"buffer":0,"byteLength":40,"byteOffset":2992},{"target":34963,"buffer":0,"byteLength":54,"byteOffset":3032},{"target":34962,"buffer":0,"byteLength":48,"byteOffset":3088},{"target":34962,"buffer":0,"byteLength":48,"byteOffset":3136},{"target":34962,"buffer":0,"byteLength":32,"byteOffset":3184},{"target":34963,"buffer":0,"byteLength":36,"byteOffset":3216},{"target":34962,"buffer":0,"byteLength":48,"byteOffset":3252},{"target":34962,"buffer":0,"byteLength":48,"byteOffset":3300},{"target":34962,"buffer":0,"byteLength":32,"byteOffset":3348},{"target":34963,"buffer":0,"byteLength":36,"byteOffset":3380},{"target":34962,"buffer":0,"byteLength":48,"byteOffset":3416},{"target":34962,"buffer":0,"byteLength":48,"byteOffset":3464},{"target":34962,"buffer":0,"byteLength":32,"byteOffset":3512},{"target":34963,"buffer":0,"byteLength":36,"byteOffset":3544},{"target":34962,"buffer":0,"byteLength":48,"byteOffset":3580},{"target":34962,"buffer":0,"byteLength":48,"byteOffset":3628},{"target":34962,"buffer":0,"byteLength":32,"byteOffset":3676},{"target":34963,"buffer":0,"byteLength":36,"byteOffset":3708}],"buffers":[{"byteLength":3744,"uri":"data:application/octet-stream;base64,"}]}