{"scene":0,"asset":{"generator":"ImageToStl.com","version":"2.0"},"scenes":[{"name":"Scene","nodes":[0]}],"nodes":[{"name":"Node0","children":[1,2,3,4,5,6,7,8,9,10,11,12,13,14,15]},{"name":"Node1","mesh":0},{"name":"Node2","mesh":1},{"name":"Node3","mesh":2},{"name":"Node4","mesh":3},{"name":"Node5","mesh":4},{"name":"Node6","mesh":5},{"name":"Node7","mesh":6},{"name":"Node8","mesh":7},{"name":"Node9","mesh":8},{"name":"Node10","mesh":9},{"name":"Node11","mesh":10},{"name":"Node12","mesh":11},{"name":"Node13","mesh":12},{"name":"Node14","mesh":13},{"name":"Node15","mesh":14}],"materials":[{"name":"Stone","pbrMetallicRoughness":{"baseColorFactor":[0.72549,0.752941,0.788235,1.0],"metallicFactor":0.33,"roughnessFactor":1.0},"doubleSided":true}],"meshes":[{"name":"Mesh0","primitives":[{"indices":3,"material":0,"attributes":{"POSITION":0,"NORMAL":1,"TEXCOORD_0":2}}]},{"name":"Mesh0","primitives":[{"indices":7,"material":0,"attributes":{"POSITION":4,"NORMAL":5,"TEXCOORD_0":6}}]},{"name":"Mesh0","primitives":[{"indices":11,"material":0,"attributes":{"POSITION":8,"NORMAL":9,"TEXCOORD_0":10}}]},{"name":"Mesh0","primitives":[{"indices":15,"material":0,"attributes":{"POSITION":12,"NORMAL":13,"TEXCOORD_0":14}}]},{"name":"Mesh0","primitives":[{"indices":19,"material":0,"attributes":{"POSITION":16,"NORMAL":17,"TEXCOORD_0":18}}]},{"name":"Mesh0","primitives":[{"indices":23,"material":0,"attributes":{"POSITION":20,"NORMAL":21,"TEXCOORD_0":22}}]},{"name":"Mesh0","primitives":[{"indices":27,"material":0,"attributes":{"POSITION":24,"NORMAL":25,"TEXCOORD_0":26}}]},{"name":"Mesh0","primitives":[{"indices":31,"material":0,"attributes":{"POSITION":28,"NORMAL":29,"TEXCOORD_0":30}}]},{"name":"Mesh0","primitives":[{"indices":35,"material":0,"attributes":{"POSITION":32,"NORMAL":33,"TEXCOORD_0":34}}]},{"name":"Mesh0","primitives":[{"indices":39,"material":0,"attributes":{"POSITION":36,"NORMAL":37,"TEXCOORD_0":38}}]},{"name":"Mesh0","primitives":[{"indices":43,"material":0,"attributes":{"POSITION":40,"NORMAL":41,"TEXCOORD_0":42}}]},{"name":"Mesh0","primitives":[{"indices":47,"material":0,"attributes":{"POSITION":44,"NORMAL":45,"TEXCOORD_0":46}}]},{"name":"Mesh0","primitives":[{"indices":51,"material":0,"attributes":{"POSITION":48,"NORMAL":49,"TEXCOORD_0":50}}]},{"name":"Mesh0","primitives":[{"indices":55,"material":0,"attributes":{"POSITION":52,"NORMAL":53,"TEXCOORD_0":54}}]},{"name":"Mesh0","primitives":[{"indices":59,"material":0,"attributes":{"POSITION":56,"NORMAL":57,"TEXCOORD_0":58}}]}],"accessors":[{"bufferView":0,"componentType":5126,"count":6,"type":"VEC3","min":[0.259786,1.59,-0.811308],"max":[0.96997,1.59,-0.259859]},{"bufferView":1,"componentType":5126,"count":6,"type":"VEC3"},{"bufferView":2,"componentType":5126,"count":6,"type":"VEC2"},{"bufferView":3,"componentType":5123,"count":36,"type":"SCALAR"},{"bufferView":4,"componentType":5126,"count":4,"type":"VEC3","min":[0.96997,0.74,-0.71],"max":[1.07604,1.59,-0.44375]},{"bufferView":5,"componentType":5126,"count":4,"type":"VEC3"},{"bufferView":6,"componentType":5126,"count":4,"type":"VEC2"},{"bufferView":7,"componentType":5123,"count":18,"type":"SCALAR"},{"bufferView":8,"componentType":5126,"count":5,"type":"VEC3","min":[1.07604,0.0,-1.065],"max":[1.22976,0.74,-0.355]},{"bufferView":9,"componentType":5126,"count":5,"type":"VEC3"},{"bufferView":10,"componentType":5126,"count":5,"type":"VEC2"},{"bufferView":11,"componentType":5123,"count":27,"type":"SCALAR"},{"bufferView":12,"componentType":5126,"count":6,"type":"VEC3","min":[0.0,0.0,-1.42],"max":[1.22976,0.0,0.0]},{"bufferView":13,"componentType":5126,"count":6,"type":"VEC3"},{"bufferView":14,"componentType":5126,"count":6,"type":"VEC2"},{"bufferView":15,"componentType":5123,"count":36,"type":"SCALAR"},{"bufferView":16,"componentType":5126,"count":4,"type":"VEC3","min":[0.614878,0.0,-0.44375],"max":[1.22976,0.74,0.0]},{"bufferView":17,"componentType":5126,"count":4,"type":"VEC3"},{"bufferView":18,"componentType":5126,"count":4,"type":"VEC2"},{"bufferView":19,"componentType":5123,"count":18,"type":"SCALAR"},{"bufferView":20,"componentType":5126,"count":4,"type":"VEC3","min":[0.614878,0.74,-0.464872],"max":[1.07604,1.59,-0.1775]},{"bufferView":21,"componentType":5126,"count":4,"type":"VEC3"},{"bufferView":22,"componentType":5126,"count":4,"type":"VEC2"},{"bufferView":23,"componentType":5123,"count":18,"type":"SCALAR"},{"bufferView":24,"componentType":5126,"count":4,"type":"VEC3","min":[0.15372,0.74,-0.464872],"max":[0.614878,1.59,-0.1775]},{"bufferView":25,"componentType":5126,"count":4,"type":"VEC3"},{"bufferView":26,"componentType":5126,"count":4,"type":"VEC2"},{"bufferView":27,"componentType":5123,"count":18,"type":"SCALAR"},{"bufferView":28,"componentType":5126,"count":4,"type":"VEC3","min":[0.15372,0.74,-0.71],"max":[0.259786,1.59,-0.44375]},{"bufferView":29,"componentType":5126,"count":4,"type":"VEC3"},{"bufferView":30,"componentType":5126,"count":4,"type":"VEC2"},{"bufferView":31,"componentType":5123,"count":18,"type":"SCALAR"},{"bufferView":32,"componentType":5126,"count":4,"type":"VEC3","min":[0.15372,0.74,-0.893667],"max":[0.538243,1.59,-0.669884]},{"bufferView":33,"componentType":5126,"count":4,"type":"VEC3"},{"bufferView":34,"componentType":5126,"count":4,"type":"VEC2"},{"bufferView":35,"componentType":5123,"count":18,"type":"SCALAR"},{"bufferView":36,"componentType":5126,"count":4,"type":"VEC3","min":[0.515353,0.74,-0.893667],"max":[1.07604,1.59,-0.669884]},{"bufferView":37,"componentType":5126,"count":4,"type":"VEC3"},{"bufferView":38,"componentType":5126,"count":4,"type":"VEC2"},{"bufferView":39,"componentType":5123,"count":18,"type":"SCALAR"},{"bufferView":40,"componentType":5126,"count":6,"type":"VEC3","min":[0.15372,0.74,-1.2425],"max":[1.07604,0.74,-0.71]},{"bufferView":41,"componentType":5126,"count":6,"type":"VEC3"},{"bufferView":42,"componentType":5126,"count":6,"type":"VEC2"},{"bufferView":43,"componentType":5123,"count":36,"type":"SCALAR"},{"bufferView":44,"componentType":5126,"count":5,"type":"VEC3","min":[0.0,0.0,-1.065],"max":[0.15372,0.74,-0.355]},{"bufferView":45,"componentType":5126,"count":5,"type":"VEC3"},{"bufferView":46,"componentType":5126,"count":5,"type":"VEC2"},{"bufferView":47,"componentType":5123,"count":27,"type":"SCALAR"},{"bufferView":48,"componentType":5126,"count":4,"type":"VEC3","min":[0.0,0.0,-1.42],"max":[0.614878,0.74,-0.97625]},{"bufferView":49,"componentType":5126,"count":4,"type":"VEC3"},{"bufferView":50,"componentType":5126,"count":4,"type":"VEC2"},{"bufferView":51,"componentType":5123,"count":18,"type":"SCALAR"},{"bufferView":52,"componentType":5126,"count":4,"type":"VEC3","min":[0.614878,0.0,-1.42],"max":[1.22976,0.74,-0.97625]},{"bufferView":53,"componentType":5126,"count":4,"type":"VEC3"},{"bufferView":54,"componentType":5126,"count":4,"type":"VEC2"},{"bufferView":55,"componentType":5123,"count":18,"type":"SCALAR"},{"bufferView":56,"componentType":5126,"count":4,"type":"VEC3","min":[0.0,0.0,-0.44375],"max":[0.614878,0.74,0.0]},{"bufferView":57,"componentType":5126,"count":4,"type":"VEC3"},{"bufferView":58,"componentType":5126,"count":4,"type":"VEC2"},{"bufferView":59,"componentType":5123,"count":18,"type":"SCALAR"}],"bufferViews":[{"target":34962,"buffer":0,"byteLength":72,"byteOffset":0},{"target":34962,"buffer":0,"byteLength":72,"byteOffset":72},{"target":34962,"buffer":0,"byteLength":48,"byteOffset":144},{"target":34963,"buffer":0,"byteLength":72,"byteOffset":192},{"target":34962,"buffer":0,"byteLength":48,"byteOffset":264},{"target":34962,"buffer":0,"byteLength":48,"byteOffset":312},{"target":34962,"buffer":0,"byteLength":32,"byteOffset":360},{"target":34963,"buffer":0,"byteLength":36,"byteOffset":392},{"target":34962,"buffer":0,"byteLength":60,"byteOffset":428},{"target":34962,"buffer":0,"byteLength":60,"byteOffset":488},{"target":34962,"buffer":0,"byteLength":40,"byteOffset":548},{"target":34963,"buffer":0,"byteLength":54,"byteOffset":588},{"target":34962,"buffer":0,"byteLength":72,"byteOffset":644},{"target":34962,"buffer":0,"byteLength":72,"byteOffset":716},{"target":34962,"buffer":0,"byteLength":48,"byteOffset":788},{"target":34963,"buffer":0,"byteLength":72,"byteOffset":836},{"target":34962,"buffer":0,"byteLength":48,"byteOffset":908},{"target":34962,"buffer":0,"byteLength":48,"byteOffset":956},{"target":34962,"buffer":0,"byteLength":32,"byteOffset":1004},{"target":34963,"buffer":0,"byteLength":36,"byteOffset":1036},{"target":34962,"buffer":0,"byteLength":48,"byteOffset":1072},{"target":34962,"buffer":0,"byteLength":48,"byteOffset":1120},{"target":34962,"buffer":0,"byteLength":32,"byteOffset":1168},{"target":34963,"buffer":0,"byteLength":36,"byteOffset":1200},{"target":34962,"buffer":0,"byteLength":48,"byteOffset":1236},{"target":34962,"buffer":0,"byteLength":48,"byteOffset":1284},{"target":34962,"buffer":0,"byteLength":32,"byteOffset":1332},{"target":34963,"buffer":0,"byteLength":36,"byteOffset":1364},{"target":34962,"buffer":0,"byteLength":48,"byteOffset":1400},{"target":34962,"buffer":0,"byteLength":48,"byteOffset":1448},{"target":34962,"buffer":0,"byteLength":32,"byteOffset":1496},{"target":34963,"buffer":0,"byteLength":36,"byteOffset":1528},{"target":34962,"buffer":0,"byteLength":48,"byteOffset":1564},{"target":34962,"buffer":0,"byteLength":48,"byteOffset":1612},{"target":34962,"buffer":0,"byteLength":32,"byteOffset":1660},{"target":34963,"buffer":0,"byteLength":36,"byteOffset":1692},{"target":34962,"buffer":0,"byteLength":48,"byteOffset":1728},{"target":34962,"buffer":0,"byteLength":48,"byteOffset":1776},{"target":34962,"buffer":0,"byteLength":32,"byteOffset":1824},{"target":34963,"buffer":0,"byteLength":36,"byteOffset":1856},{"target":34962,"buffer":0,"byteLength":72,"byteOffset":1892},{"target":34962,"buffer":0,"byteLength":72,"byteOffset":1964},{"target":34962,"buffer":0,"byteLength":48,"byteOffset":2036},{"target":34963,"buffer":0,"byteLength":72,"byteOffset":2084},{"target":34962,"buffer":0,"byteLength":60,"byteOffset":2156},{"target":34962,"buffer":0,"byteLength":60,"byteOffset":2216},{"target":34962,"buffer":0,"byteLength":40,"byteOffset":2276},{"target":34963,"buffer":0,"byteLength":54,"byteOffset":2316},{"target":34962,"buffer":0,"byteLength":48,"byteOffset":2372},{"target":34962,"buffer":0,"byteLength":48,"byteOffset":2420},{"target":34962,"buffer":0,"byteLength":32,"byteOffset":2468},{"target":34963,"buffer":0,"byteLength":36,"byteOffset":2500},{"target":34962,"buffer":0,"byteLength":48,"byteOffset":2536},{"target":34962,"buffer":0,"byteLength":48,"byteOffset":2584},{"target":34962,"buffer":0,"byteLength":32,"byteOffset":2632},{"target":34963,"buffer":0,"byteLength":36,"byteOffset":2664},{"target":34962,"buffer":0,"byteLength":48,"byteOffset":2700},{"target":34962,"buffer":0,"byteLength":48,"byteOffset":2748},{"target":34962,"buffer":0,"byteLength":32,"byteOffset":2796},{"target":34963,"buffer":0,"byteLength":36,"byteOffset":2828}],"buffers":[{"byteLength":2864,"uri":"data:application/octet-stream;base64,"}]}