{"scene":0,"asset":{"generator":"ImageToStl.com","version":"2.0"},"scenes":[{"name":"Scene","nodes":[0]}],"nodes":[{"name":"Node0","children":[1,2,3,4,5,6,7,8,9,10,11,12,13,14,15,16,17,18,19,20,21]},{"name":"Node1","mesh":0},{"name":"Node2","mesh":1},{"name":"Node3","mesh":2},{"name":"Node4","mesh":3},{"name":"Node5","mesh":4},{"name":"Node6","mesh":5},{"name":"Node7","mesh":6},{"name":"Node8","mesh":7},{"name":"Node9","mesh":8},{"name":"Node10","mesh":9},{"name":"Node11","mesh":10},{"name":"Node12","mesh":11},{"name":"Node13","mesh":12},{"name":"Node14","mesh":13},{"name":"Node15","mesh":14},{"name":"Node16","mesh":15},{"name":"Node17","mesh":16},{"name":"Node18","mesh":17},{"name":"Node19","mesh":18},{"name":"Node20","mesh":19},{"name":"Node21","mesh":20}],"materials":[{"name":"Green_Roof","pbrMetallicRoughness":{"baseColorFactor":[0.309804,0.466667,0.458824,1.0],"metallicFactor":0.33,"roughnessFactor":1.0},"doubleSided":true},{"name":"Leafs","pbrMetallicRoughness":{"baseColorFactor":[0.270588,0.407843,0.4,1.0],"metallicFactor":0.33,"roughnessFactor":1.0},"doubleSided":true}],"meshes":[{"name":"Mesh0","primitives":[{"indices":3,"material":0,"attributes":{"POSITION":0,"NORMAL":1,"TEXCOORD_0":2}}]},{"name":"Mesh0","primitives":[{"indices":7,"material":0,"attributes":{"POSITION":4,"NORMAL":5,"TEXCOORD_0":6}}]},{"name":"Mesh0","primitives":[{"indices":11,"material":0,"attributes":{"POSITION":8,"NORMAL":9,"TEXCOORD_0":10}}]},{"name":"Mesh0","primitives":[{"indices":15,"material":0,"attributes":{"POSITION":12,"NORMAL":13,"TEXCOORD_0":14}}]},{"name":"Mesh0","primitives":[{"indices":19,"material":0,"attributes":{"POSITION":16,"NORMAL":17,"TEXCOORD_0":18}}]},{"name":"Mesh0","primitives":[{"indices":22,"material":0,"attributes":{"POSITION":20,"TEXCOORD_0":21}}]},{"name":"Mesh0","primitives":[{"indices":25,"material":0,"attributes":{"POSITION":23,"TEXCOORD_0":24}}]},{"name":"Mesh0","primitives":[{"indices":28,"material":0,"attributes":{"POSITION":26,"TEXCOORD_0":27}}]},{"name":"Mesh0","primitives":[{"indices":31,"material":0,"attributes":{"POSITION":29,"TEXCOORD_0":30}}]},{"name":"Mesh0","primitives":[{"indices":34,"material":0,"attributes":{"POSITION":32,"TEXCOORD_0":33}}]},{"name":"Mesh0","primitives":[{"indices":37,"material":0,"attributes":{"POSITION":35,"TEXCOORD_0":36}}]},{"name":"Mesh0","primitives":[{"indices":40,"material":0,"attributes":{"POSITION":38,"TEXCOORD_0":39}}]},{"name":"Mesh0","primitives":[{"indices":43,"material":0,"attributes":{"POSITION":41,"TEXCOORD_0":42}}]},{"name":"Mesh0","primitives":[{"indices":46,"material":0,"attributes":{"POSITION":44,"NORMAL":45}},{"indices":47,"material":1,"attributes":{"POSITION":44,"NORMAL":45}}]},{"name":"Mesh0","primitives":[{"indices":51,"material":0,"attributes":{"POSITION":48,"NORMAL":49,"TEXCOORD_0":50}},{"indices":52,"material":1,"attributes":{"POSITION":48,"NORMAL":49,"TEXCOORD_0":50}}]},{"name":"Mesh0","primitives":[{"indices":56,"material":0,"attributes":{"POSITION":53,"NORMAL":54,"TEXCOORD_0":55}}]},{"name":"Mesh0","primitives":[{"indices":60,"material":0,"attributes":{"POSITION":57,"NORMAL":58,"TEXCOORD_0":59}}]},{"name":"Mesh0","primitives":[{"indices":64,"material":0,"attributes":{"POSITION":61,"NORMAL":62,"TEXCOORD_0":63}}]},{"name":"Mesh0","primitives":[{"indices":68,"material":0,"attributes":{"POSITION":65,"NORMAL":66,"TEXCOORD_0":67}}]},{"name":"Mesh0","primitives":[{"indices":72,"material":0,"attributes":{"POSITION":69,"NORMAL":70,"TEXCOORD_0":71}}]},{"name":"Mesh0","primitives":[{"indices":76,"material":0,"attributes":{"POSITION":73,"NORMAL":74,"TEXCOORD_0":75}}]}],"accessors":[{"bufferView":0,"componentType":5126,"count":4,"type":"VEC3","min":[0.196596,1.00933E-17,-2.8],"max":[1.5,2.48084,-0.2]},{"bufferView":1,"componentType":5126,"count":4,"type":"VEC3"},{"bufferView":2,"componentType":5126,"count":4,"type":"VEC2"},{"bufferView":3,"componentType":5123,"count":18,"type":"SCALAR"},{"bufferView":4,"componentType":5126,"count":6,"type":"VEC3","min":[0.196596,1.13224E-15,-2.8],"max":[2.8034,2.48084,-2.8]},{"bufferView":5,"componentType":5126,"count":6,"type":"VEC3"},{"bufferView":6,"componentType":5126,"count":6,"type":"VEC2"},{"bufferView":7,"componentType":5123,"count":36,"type":"SCALAR"},{"bufferView":8,"componentType":5126,"count":4,"type":"VEC3","min":[0.75,3.38396E-17,-3.0],"max":[1.5,2.00503,-2.8]},{"bufferView":9,"componentType":5126,"count":4,"type":"VEC3"},{"bufferView":10,"componentType":5126,"count":4,"type":"VEC2"},{"bufferView":11,"componentType":5123,"count":18,"type":"SCALAR"},{"bufferView":12,"componentType":5126,"count":6,"type":"VEC3","min":[0.0,3.38396E-17,-3.0],"max":[3.0,2.85503,-3.0]},{"bufferView":13,"componentType":5126,"count":6,"type":"VEC3"},{"bufferView":14,"componentType":5126,"count":6,"type":"VEC2"},{"bufferView":15,"componentType":5123,"count":36,"type":"SCALAR"},{"bufferView":16,"componentType":5126,"count":3,"type":"VEC3","min":[0.0,3.38396E-17,-3.0],"max":[1.5,2.85503,-2.2522]},{"bufferView":17,"componentType":5126,"count":3,"type":"VEC3"},{"bufferView":18,"componentType":5126,"count":3,"type":"VEC2"},{"bufferView":19,"componentType":5123,"count":9,"type":"SCALAR"},{"bufferView":20,"componentType":5126,"count":3,"type":"VEC3","min":[0.895448,1.70435,-3.0],"max":[1.5,2.85503,-1.78672]},{"bufferView":21,"componentType":5126,"count":3,"type":"VEC2"},{"bufferView":22,"componentType":5123,"count":9,"type":"SCALAR"},{"bufferView":23,"componentType":5126,"count":3,"type":"VEC3","min":[0.966335,1.83928,-3.0],"max":[1.5,2.85503,-1.39353]},{"bufferView":24,"componentType":5126,"count":3,"type":"VEC2"},{"bufferView":25,"componentType":5123,"count":9,"type":"SCALAR"},{"bufferView":26,"componentType":5126,"count":3,"type":"VEC3","min":[0.966335,1.83928,-3.0],"max":[1.5,2.85503,-1.29532]},{"bufferView":27,"componentType":5126,"count":3,"type":"VEC2"},{"bufferView":28,"componentType":5123,"count":9,"type":"SCALAR"},{"bufferView":29,"componentType":5126,"count":3,"type":"VEC3","min":[1.17382,2.23419,-3.0],"max":[1.5,2.85503,-0.704621]},{"bufferView":30,"componentType":5126,"count":3,"type":"VEC2"},{"bufferView":31,"componentType":5123,"count":9,"type":"SCALAR"},{"bufferView":32,"componentType":5126,"count":3,"type":"VEC3","min":[1.17382,2.23419,-3.0],"max":[1.5,2.85503,0.0]},{"bufferView":33,"componentType":5126,"count":3,"type":"VEC2"},{"bufferView":34,"componentType":5123,"count":9,"type":"SCALAR"},{"bufferView":35,"componentType":5126,"count":3,"type":"VEC3","min":[0.0,3.38396E-17,-0.704621],"max":[1.5,2.85503,0.0]},{"bufferView":36,"componentType":5126,"count":3,"type":"VEC2"},{"bufferView":37,"componentType":5123,"count":9,"type":"SCALAR"},{"bufferView":38,"componentType":5126,"count":4,"type":"VEC3","min":[0.0,3.38396E-17,-3.0],"max":[1.17382,2.23419,0.0]},{"bufferView":39,"componentType":5126,"count":4,"type":"VEC2"},{"bufferView":40,"componentType":5123,"count":18,"type":"SCALAR"},{"bufferView":41,"componentType":5126,"count":4,"type":"VEC3","min":[0.0,3.38396E-17,-3.0],"max":[0.966335,1.83928,-0.802826]},{"bufferView":42,"componentType":5126,"count":4,"type":"VEC2"},{"bufferView":43,"componentType":5123,"count":18,"type":"SCALAR"},{"bufferView":44,"componentType":5126,"count":7,"type":"VEC3","min":[0.75013,1.42776,-1.78672],"max":[1.22276,2.32734,-0.704621]},{"bufferView":45,"componentType":5126,"count":7,"type":"VEC3"},{"bufferView":46,"componentType":5123,"count":3,"type":"SCALAR"},{"bufferView":47,"componentType":5123,"count":6,"type":"SCALAR"},{"bufferView":48,"componentType":5126,"count":8,"type":"VEC3","min":[0.0,3.38396E-17,-3.0],"max":[0.966629,1.83984,-1.63367]},{"bufferView":49,"componentType":5126,"count":8,"type":"VEC3"},{"bufferView":50,"componentType":5126,"count":8,"type":"VEC2"},{"bufferView":51,"componentType":5123,"count":18,"type":"SCALAR"},{"bufferView":52,"componentType":5123,"count":18,"type":"SCALAR"},{"bufferView":53,"componentType":5126,"count":12,"type":"VEC3","min":[0.0,0.0,-3.0],"max":[3.0,1.16608E-15,0.0]},{"bufferView":54,"componentType":5126,"count":12,"type":"VEC3"},{"bufferView":55,"componentType":5126,"count":12,"type":"VEC2"},{"bufferView":56,"componentType":5123,"count":90,"type":"SCALAR"},{"bufferView":57,"componentType":5126,"count":3,"type":"VEC3","min":[0.196596,0.0,-0.2],"max":[2.8034,2.48084,-0.2]},{"bufferView":58,"componentType":5126,"count":3,"type":"VEC3"},{"bufferView":59,"componentType":5126,"count":3,"type":"VEC2"},{"bufferView":60,"componentType":5123,"count":9,"type":"SCALAR"},{"bufferView":61,"componentType":5126,"count":4,"type":"VEC3","min":[1.5,0.0,-2.8],"max":[2.8034,2.48084,-0.2]},{"bufferView":62,"componentType":5126,"count":4,"type":"VEC3"},{"bufferView":63,"componentType":5126,"count":4,"type":"VEC2"},{"bufferView":64,"componentType":5123,"count":18,"type":"SCALAR"},{"bufferView":65,"componentType":5126,"count":4,"type":"VEC3","min":[1.5,3.38396E-17,-3.0],"max":[2.25,2.00503,-2.8]},{"bufferView":66,"componentType":5126,"count":4,"type":"VEC3"},{"bufferView":67,"componentType":5126,"count":4,"type":"VEC2"},{"bufferView":68,"componentType":5123,"count":18,"type":"SCALAR"},{"bufferView":69,"componentType":5126,"count":4,"type":"VEC3","min":[1.5,3.38396E-17,-3.0],"max":[3.0,2.85503,0.0]},{"bufferView":70,"componentType":5126,"count":4,"type":"VEC3"},{"bufferView":71,"componentType":5126,"count":4,"type":"VEC2"},{"bufferView":72,"componentType":5123,"count":18,"type":"SCALAR"},{"bufferView":73,"componentType":5126,"count":3,"type":"VEC3","min":[0.0,3.38396E-17,0.0],"max":[3.0,2.85503,0.0]},{"bufferView":74,"componentType":5126,"count":3,"type":"VEC3"},{"bufferView":75,"componentType":5126,"count":3,"type":"VEC2"},{"bufferView":76,"componentType":5123,"count":9,"type":"SCALAR"}],"bufferViews":[{"target":34962,"buffer":0,"byteLength":48,"byteOffset":0},{"target":34962,"buffer":0,"byteLength":48,"byteOffset":48},{"target":34962,"buffer":0,"byteLength":32,"byteOffset":96},{"target":34963,"buffer":0,"byteLength":36,"byteOffset":128},{"target":34962,"buffer":0,"byteLength":72,"byteOffset":164},{"target":34962,"buffer":0,"byteLength":72,"byteOffset":236},{"target":34962,"buffer":0,"byteLength":48,"byteOffset":308},{"target":34963,"buffer":0,"byteLength":72,"byteOffset":356},{"target":34962,"buffer":0,"byteLength":48,"byteOffset":428},{"target":34962,"buffer":0,"byteLength":48,"byteOffset":476},{"target":34962,"buffer":0,"byteLength":32,"byteOffset":524},{"target":34963,"buffer":0,"byteLength":36,"byteOffset":556},{"target":34962,"buffer":0,"byteLength":72,"byteOffset":592},{"target":34962,"buffer":0,"byteLength":72,"byteOffset":664},{"target":34962,"buffer":0,"byteLength":48,"byteOffset":736},{"target":34963,"buffer":0,"byteLength":72,"byteOffset":784},{"target":34962,"buffer":0,"byteLength":36,"byteOffset":856},{"target":34962,"buffer":0,"byteLength":36,"byteOffset":892},{"target":34962,"buffer":0,"byteLength":24,"byteOffset":928},{"target":34963,"buffer":0,"byteLength":18,"byteOffset":952},{"target":34962,"buffer":0,"byteLength":36,"byteOffset":972},{"target":34962,"buffer":0,"byteLength":24,"byteOffset":1008},{"target":34963,"buffer":0,"byteLength":18,"byteOffset":1032},{"target":34962,"buffer":0,"byteLength":36,"byteOffset":1052},{"target":34962,"buffer":0,"byteLength":24,"byteOffset":1088},{"target":34963,"buffer":0,"byteLength":18,"byteOffset":1112},{"target":34962,"buffer":0,"byteLength":36,"byteOffset":1132},{"target":34962,"buffer":0,"byteLength":24,"byteOffset":1168},{"target":34963,"buffer":0,"byteLength":18,"byteOffset":1192},{"target":34962,"buffer":0,"byteLength":36,"byteOffset":1212},{"target":34962,"buffer":0,"byteLength":24,"byteOffset":1248},{"target":34963,"buffer":0,"byteLength":18,"byteOffset":1272},{"target":34962,"buffer":0,"byteLength":36,"byteOffset":1292},{"target":34962,"buffer":0,"byteLength":24,"byteOffset":1328},{"target":34963,"buffer":0,"byteLength":18,"byteOffset":1352},{"target":34962,"buffer":0,"byteLength":36,"byteOffset":1372},{"target":34962,"buffer":0,"byteLength":24,"byteOffset":1408},{"target":34963,"buffer":0,"byteLength":18,"byteOffset":1432},{"target":34962,"buffer":0,"byteLength":48,"byteOffset":1452},{"target":34962,"buffer":0,"byteLength":32,"byteOffset":1500},{"target":34963,"buffer":0,"byteLength":36,"byteOffset":1532},{"target":34962,"buffer":0,"byteLength":48,"byteOffset":1568},{"target":34962,"buffer":0,"byteLength":32,"byteOffset":1616},{"target":34963,"buffer":0,"byteLength":36,"byteOffset":1648},{"target":34962,"buffer":0,"byteLength":84,"byteOffset":1684},{"target":34962,"buffer":0,"byteLength":84,"byteOffset":1768},{"target":34963,"buffer":0,"byteLength":6,"byteOffset":1852},{"target":34963,"buffer":0,"byteLength":12,"byteOffset":1860},{"target":34962,"buffer":0,"byteLength":96,"byteOffset":1872},{"target":34962,"buffer":0,"byteLength":96,"byteOffset":1968},{"target":34962,"buffer":0,"byteLength":64,"byteOffset":2064},{"target":34963,"buffer":0,"byteLength":36,"byteOffset":2128},{"target":34963,"buffer":0,"byteLength":36,"byteOffset":2164},{"target":34962,"buffer":0,"byteLength":144,"byteOffset":2200},{"target":34962,"buffer":0,"byteLength":144,"byteOffset":2344},{"target":34962,"buffer":0,"byteLength":96,"byteOffset":2488},{"target":34963,"buffer":0,"byteLength":180,"byteOffset":2584},{"target":34962,"buffer":0,"byteLength":36,"byteOffset":2764},{"target":34962,"buffer":0,"byteLength":36,"byteOffset":2800},{"target":34962,"buffer":0,"byteLength":24,"byteOffset":2836},{"target":34963,"buffer":0,"byteLength":18,"byteOffset":2860},{"target":34962,"buffer":0,"byteLength":48,"byteOffset":2880},{"target":34962,"buffer":0,"byteLength":48,"byteOffset":2928},{"target":34962,"buffer":0,"byteLength":32,"byteOffset":2976},{"target":34963,"buffer":0,"byteLength":36,"byteOffset":3008},{"target":34962,"buffer":0,"byteLength":48,"byteOffset":3044},{"target":34962,"buffer":0,"byteLength":48,"byteOffset":3092},{"target":34962,"buffer":0,"byteLength":32,"byteOffset":3140},{"target":34963,"buffer":0,"byteLength":36,"byteOffset":3172},{"target":34962,"buffer":0,"byteLength":48,"byteOffset":3208},{"target":34962,"buffer":0,"byteLength":48,"byteOffset":3256},{"target":34962,"buffer":0,"byteLength":32,"byteOffset":3304},{"target":34963,"buffer":0,"byteLength":36,"byteOffset":3336},{"target":34962,"buffer":0,"byteLength":36,"byteOffset":3372},{"target":34962,"buffer":0,"byteLength":36,"byteOffset":3408},{"target":34962,"buffer":0,"byteLength":24,"byteOffset":3444},{"target":34963,"buffer":0,"byteLength":18,"byteOffset":3468}],"buffers":[{"byteLength":3488,"uri":"data:application/octet-stream;base64,"}]}