{"scene":0,"asset":{"generator":"ImageToStl.com","version":"2.0"},"scenes":[{"name":"Scene","nodes":[0]}],"nodes":[{"name":"Node0","children":[1,2,3,4,5,6,7,8,9,10,11,12,13,14,15,16,17,18,19,20,21,22,23,24,25,26,27,28,29,30,31,32]},{"name":"Node1","mesh":0},{"name":"Node2","mesh":1},{"name":"Node3","mesh":2},{"name":"Node4","mesh":3},{"name":"Node5","mesh":4},{"name":"Node6","mesh":5},{"name":"Node7","mesh":6},{"name":"Node8","mesh":7},{"name":"Node9","mesh":8},{"name":"Node10","mesh":9},{"name":"Node11","mesh":10},{"name":"Node12","mesh":11},{"name":"Node13","mesh":12},{"name":"Node14","mesh":13},{"name":"Node15","mesh":14},{"name":"Node16","mesh":15},{"name":"Node17","mesh":16},{"name":"Node18","mesh":17},{"name":"Node19","mesh":18},{"name":"Node20","mesh":19},{"name":"Node21","mesh":20},{"name":"Node22","mesh":21},{"name":"Node23","mesh":22},{"name":"Node24","mesh":23},{"name":"Node25","mesh":24},{"name":"Node26","mesh":25},{"name":"Node27","mesh":26},{"name":"Node28","mesh":27},{"name":"Node29","mesh":28},{"name":"Node30","mesh":29},{"name":"Node31","mesh":30},{"name":"Node32","mesh":31}],"materials":[{"name":"Leafs","pbrMetallicRoughness":{"baseColorFactor":[0.270588,0.407843,0.4,1.0],"metallicFactor":0.33,"roughnessFactor":1.0},"doubleSided":true},{"name":"Wood","pbrMetallicRoughness":{"baseColorFactor":[0.666667,0.545098,0.356863,1.0],"metallicFactor":0.33,"roughnessFactor":1.0},"doubleSided":true}],"meshes":[{"name":"Mesh0","primitives":[{"indices":3,"material":0,"attributes":{"POSITION":0,"NORMAL":1,"TEXCOORD_0":2}}]},{"name":"Mesh0","primitives":[{"indices":7,"material":0,"attributes":{"POSITION":4,"NORMAL":5,"TEXCOORD_0":6}}]},{"name":"Mesh0","primitives":[{"indices":11,"material":0,"attributes":{"POSITION":8,"NORMAL":9,"TEXCOORD_0":10}}]},{"name":"Mesh0","primitives":[{"indices":14,"material":0,"attributes":{"POSITION":12,"TEXCOORD_0":13}}]},{"name":"Mesh0","primitives":[{"indices":17,"material":0,"attributes":{"POSITION":15,"TEXCOORD_0":16}}]},{"name":"Mesh0","primitives":[{"indices":21,"material":0,"attributes":{"POSITION":18,"NORMAL":19,"TEXCOORD_0":20}}]},{"name":"Mesh0","primitives":[{"indices":25,"material":0,"attributes":{"POSITION":22,"NORMAL":23,"TEXCOORD_0":24}}]},{"name":"Mesh0","primitives":[{"indices":28,"material":0,"attributes":{"POSITION":26,"TEXCOORD_0":27}}]},{"name":"Mesh0","primitives":[{"indices":31,"material":0,"attributes":{"POSITION":29,"TEXCOORD_0":30}}]},{"name":"Mesh0","primitives":[{"indices":34,"material":0,"attributes":{"POSITION":32,"TEXCOORD_0":33}}]},{"name":"Mesh0","primitives":[{"indices":37,"material":0,"attributes":{"POSITION":35,"TEXCOORD_0":36}}]},{"name":"Mesh0","primitives":[{"indices":40,"material":0,"attributes":{"POSITION":38,"TEXCOORD_0":39}}]},{"name":"Mesh0","primitives":[{"indices":44,"material":1,"attributes":{"POSITION":41,"NORMAL":42,"TEXCOORD_0":43}}]},{"name":"Mesh0","primitives":[{"indices":47,"material":1,"attributes":{"POSITION":45,"TEXCOORD_0":46}}]},{"name":"Mesh0","primitives":[{"indices":51,"material":0,"attributes":{"POSITION":48,"NORMAL":49,"TEXCOORD_0":50}},{"indices":52,"material":1,"attributes":{"POSITION":48,"NORMAL":49,"TEXCOORD_0":50}}]},{"name":"Mesh0","primitives":[{"indices":56,"material":1,"attributes":{"POSITION":53,"NORMAL":54,"TEXCOORD_0":55}}]},{"name":"Mesh0","primitives":[{"indices":60,"material":1,"attributes":{"POSITION":57,"NORMAL":58,"TEXCOORD_0":59}}]},{"name":"Mesh0","primitives":[{"indices":63,"material":0,"attributes":{"POSITION":61,"TEXCOORD_0":62}}]},{"name":"Mesh0","primitives":[{"indices":66,"material":0,"attributes":{"POSITION":64,"TEXCOORD_0":65}}]},{"name":"Mesh0","primitives":[{"indices":70,"material":0,"attributes":{"POSITION":67,"NORMAL":68,"TEXCOORD_0":69}}]},{"name":"Mesh0","primitives":[{"indices":73,"material":0,"attributes":{"POSITION":71,"TEXCOORD_0":72}}]},{"name":"Mesh0","primitives":[{"indices":76,"material":0,"attributes":{"POSITION":74,"TEXCOORD_0":75}}]},{"name":"Mesh0","primitives":[{"indices":79,"material":0,"attributes":{"POSITION":77,"TEXCOORD_0":78}}]},{"name":"Mesh0","primitives":[{"indices":83,"material":0,"attributes":{"POSITION":80,"NORMAL":81,"TEXCOORD_0":82}}]},{"name":"Mesh0","primitives":[{"indices":87,"material":0,"attributes":{"POSITION":84,"NORMAL":85,"TEXCOORD_0":86}}]},{"name":"Mesh0","primitives":[{"indices":91,"material":0,"attributes":{"POSITION":88,"NORMAL":89,"TEXCOORD_0":90}}]},{"name":"Mesh0","primitives":[{"indices":94,"material":0,"attributes":{"POSITION":92,"TEXCOORD_0":93}}]},{"name":"Mesh0","primitives":[{"indices":97,"material":0,"attributes":{"POSITION":95,"TEXCOORD_0":96}}]},{"name":"Mesh0","primitives":[{"indices":101,"material":0,"attributes":{"POSITION":98,"NORMAL":99,"TEXCOORD_0":100}}]},{"name":"Mesh0","primitives":[{"indices":105,"material":0,"attributes":{"POSITION":102,"NORMAL":103,"TEXCOORD_0":104}}]},{"name":"Mesh0","primitives":[{"indices":109,"material":0,"attributes":{"POSITION":106,"NORMAL":107,"TEXCOORD_0":108}}]},{"name":"Mesh0","primitives":[{"indices":113,"material":0,"attributes":{"POSITION":110,"NORMAL":111,"TEXCOORD_0":112}}]}],"accessors":[{"bufferView":0,"componentType":5126,"count":4,"type":"VEC3","min":[0.0,0.0,-1.2957],"max":[1.18,0.6,-1.003]},{"bufferView":1,"componentType":5126,"count":4,"type":"VEC3"},{"bufferView":2,"componentType":5126,"count":4,"type":"VEC2"},{"bufferView":3,"componentType":5123,"count":18,"type":"SCALAR"},{"bufferView":4,"componentType":5126,"count":4,"type":"VEC3","min":[0.0,0.0,-1.2957],"max":[0.177,0.6,0.0]},{"bufferView":5,"componentType":5126,"count":4,"type":"VEC3"},{"bufferView":6,"componentType":5126,"count":4,"type":"VEC2"},{"bufferView":7,"componentType":5123,"count":18,"type":"SCALAR"},{"bufferView":8,"componentType":5126,"count":3,"type":"VEC3","min":[-0.0969352,0.6,-1.003],"max":[0.177,0.6,-0.0826]},{"bufferView":9,"componentType":5126,"count":3,"type":"VEC3"},{"bufferView":10,"componentType":5126,"count":3,"type":"VEC2"},{"bufferView":11,"componentType":5123,"count":9,"type":"SCALAR"},{"bufferView":12,"componentType":5126,"count":3,"type":"VEC3","min":[-0.0969352,0.6,-0.177],"max":[1.0974,0.6,-0.0826]},{"bufferView":13,"componentType":5126,"count":3,"type":"VEC2"},{"bufferView":14,"componentType":5123,"count":9,"type":"SCALAR"},{"bufferView":15,"componentType":5126,"count":3,"type":"VEC3","min":[0.177,0.6,-0.177],"max":[1.0974,0.6,-0.0826]},{"bufferView":16,"componentType":5126,"count":3,"type":"VEC2"},{"bufferView":17,"componentType":5123,"count":9,"type":"SCALAR"},{"bufferView":18,"componentType":5126,"count":4,"type":"VEC3","min":[0.0,0.0,-0.177],"max":[1.18,0.6,0.0]},{"bufferView":19,"componentType":5126,"count":4,"type":"VEC3"},{"bufferView":20,"componentType":5126,"count":4,"type":"VEC2"},{"bufferView":21,"componentType":5123,"count":18,"type":"SCALAR"},{"bufferView":22,"componentType":5126,"count":4,"type":"VEC3","min":[1.003,0.0,-1.2957],"max":[1.18,0.6,0.0]},{"bufferView":23,"componentType":5126,"count":4,"type":"VEC3"},{"bufferView":24,"componentType":5126,"count":4,"type":"VEC2"},{"bufferView":25,"componentType":5123,"count":18,"type":"SCALAR"},{"bufferView":26,"componentType":5126,"count":3,"type":"VEC3","min":[0.786697,0.0,-1.2957],"max":[1.18,0.0,0.0]},{"bufferView":27,"componentType":5126,"count":3,"type":"VEC2"},{"bufferView":28,"componentType":5123,"count":9,"type":"SCALAR"},{"bufferView":29,"componentType":5126,"count":4,"type":"VEC3","min":[0.0,0.0,-0.393303],"max":[1.18,0.0,0.0]},{"bufferView":30,"componentType":5126,"count":4,"type":"VEC2"},{"bufferView":31,"componentType":5123,"count":18,"type":"SCALAR"},{"bufferView":32,"componentType":5126,"count":3,"type":"VEC3","min":[0.0,0.0,-0.786697],"max":[0.393303,0.0,0.0]},{"bufferView":33,"componentType":5126,"count":3,"type":"VEC2"},{"bufferView":34,"componentType":5123,"count":9,"type":"SCALAR"},{"bufferView":35,"componentType":5126,"count":4,"type":"VEC3","min":[0.0,0.0,-1.2957],"max":[1.18,0.0,0.0]},{"bufferView":36,"componentType":5126,"count":4,"type":"VEC2"},{"bufferView":37,"componentType":5123,"count":18,"type":"SCALAR"},{"bufferView":38,"componentType":5126,"count":4,"type":"VEC3","min":[0.393303,0.0,-1.2957],"max":[1.18,0.0,-0.393303]},{"bufferView":39,"componentType":5126,"count":4,"type":"VEC2"},{"bufferView":40,"componentType":5123,"count":18,"type":"SCALAR"},{"bufferView":41,"componentType":5126,"count":4,"type":"VEC3","min":[0.786697,-0.495868,-0.837838],"max":[0.837838,0.0,-0.342162]},{"bufferView":42,"componentType":5126,"count":4,"type":"VEC3"},{"bufferView":43,"componentType":5126,"count":4,"type":"VEC2"},{"bufferView":44,"componentType":5123,"count":18,"type":"SCALAR"},{"bufferView":45,"componentType":5126,"count":4,"type":"VEC3","min":[0.342162,-0.495868,-0.837838],"max":[0.837838,-0.495868,-0.342162]},{"bufferView":46,"componentType":5126,"count":4,"type":"VEC2"},{"bufferView":47,"componentType":5123,"count":18,"type":"SCALAR"},{"bufferView":48,"componentType":5126,"count":8,"type":"VEC3","min":[0.342162,-0.495868,-0.837838],"max":[0.786697,0.0,-0.342162]},{"bufferView":49,"componentType":5126,"count":8,"type":"VEC3"},{"bufferView":50,"componentType":5126,"count":8,"type":"VEC2"},{"bufferView":51,"componentType":5123,"count":18,"type":"SCALAR"},{"bufferView":52,"componentType":5123,"count":18,"type":"SCALAR"},{"bufferView":53,"componentType":5126,"count":4,"type":"VEC3","min":[0.342162,-0.495868,-0.837838],"max":[0.837838,0.0,-0.786697]},{"bufferView":54,"componentType":5126,"count":4,"type":"VEC3"},{"bufferView":55,"componentType":5126,"count":4,"type":"VEC2"},{"bufferView":56,"componentType":5123,"count":18,"type":"SCALAR"},{"bufferView":57,"componentType":5126,"count":4,"type":"VEC3","min":[0.342162,-0.495868,-0.393303],"max":[0.837838,0.0,-0.342162]},{"bufferView":58,"componentType":5126,"count":4,"type":"VEC3"},{"bufferView":59,"componentType":5126,"count":4,"type":"VEC2"},{"bufferView":60,"componentType":5123,"count":18,"type":"SCALAR"},{"bufferView":61,"componentType":5126,"count":4,"type":"VEC3","min":[0.177,0.6,-1.0974],"max":[1.0974,0.6,-0.177]},{"bufferView":62,"componentType":5126,"count":4,"type":"VEC2"},{"bufferView":63,"componentType":5123,"count":18,"type":"SCALAR"},{"bufferView":64,"componentType":5126,"count":4,"type":"VEC3","min":[-0.0969352,0.6,-1.0974],"max":[1.0974,0.6,-0.0826]},{"bufferView":65,"componentType":5126,"count":4,"type":"VEC2"},{"bufferView":66,"componentType":5123,"count":18,"type":"SCALAR"},{"bufferView":67,"componentType":5126,"count":4,"type":"VEC3","min":[-0.0969352,0.6,-1.0974],"max":[0.23482,1.34304,-0.0826]},{"bufferView":68,"componentType":5126,"count":4,"type":"VEC3"},{"bufferView":69,"componentType":5126,"count":4,"type":"VEC2"},{"bufferView":70,"componentType":5123,"count":18,"type":"SCALAR"},{"bufferView":71,"componentType":5126,"count":3,"type":"VEC3","min":[0.153636,1.34304,-0.94518],"max":[0.23482,1.34304,-0.153636]},{"bufferView":72,"componentType":5126,"count":3,"type":"VEC2"},{"bufferView":73,"componentType":5123,"count":9,"type":"SCALAR"},{"bufferView":74,"componentType":5126,"count":3,"type":"VEC3","min":[0.153636,1.34304,-0.23482],"max":[1.14207,1.34304,-0.153636]},{"bufferView":75,"componentType":5126,"count":3,"type":"VEC2"},{"bufferView":76,"componentType":5123,"count":9,"type":"SCALAR"},{"bufferView":77,"componentType":5126,"count":3,"type":"VEC3","min":[0.23482,1.34304,-0.23482],"max":[1.14207,1.34304,-0.153636]},{"bufferView":78,"componentType":5126,"count":3,"type":"VEC2"},{"bufferView":79,"componentType":5123,"count":9,"type":"SCALAR"},{"bufferView":80,"componentType":5126,"count":4,"type":"VEC3","min":[-0.0969352,0.6,-0.23482],"max":[1.0974,1.34304,-0.0826]},{"bufferView":81,"componentType":5126,"count":4,"type":"VEC3"},{"bufferView":82,"componentType":5126,"count":4,"type":"VEC2"},{"bufferView":83,"componentType":5123,"count":18,"type":"SCALAR"},{"bufferView":84,"componentType":5126,"count":7,"type":"VEC3","min":[0.94518,0.6,-1.0974],"max":[1.0974,1.34304,-0.0826]},{"bufferView":85,"componentType":5126,"count":7,"type":"VEC3"},{"bufferView":86,"componentType":5126,"count":7,"type":"VEC2"},{"bufferView":87,"componentType":5123,"count":27,"type":"SCALAR"},{"bufferView":88,"componentType":5126,"count":4,"type":"VEC3","min":[-0.0969352,0.6,-1.0974],"max":[1.0974,1.34304,-0.94518]},{"bufferView":89,"componentType":5126,"count":4,"type":"VEC3"},{"bufferView":90,"componentType":5126,"count":4,"type":"VEC2"},{"bufferView":91,"componentType":5123,"count":18,"type":"SCALAR"},{"bufferView":92,"componentType":5126,"count":3,"type":"VEC3","min":[0.23482,1.34304,-1.02636],"max":[1.14207,1.34304,-0.94518]},{"bufferView":93,"componentType":5126,"count":3,"type":"VEC2"},{"bufferView":94,"componentType":5123,"count":9,"type":"SCALAR"},{"bufferView":95,"componentType":5126,"count":4,"type":"VEC3","min":[0.153636,1.34304,-1.02636],"max":[1.14207,1.34304,-0.153636]},{"bufferView":96,"componentType":5126,"count":4,"type":"VEC2"},{"bufferView":97,"componentType":5123,"count":18,"type":"SCALAR"},{"bufferView":98,"componentType":5126,"count":3,"type":"VEC3","min":[0.153636,1.34304,-1.02636],"max":[0.383388,3.21676,-0.153636]},{"bufferView":99,"componentType":5126,"count":3,"type":"VEC3"},{"bufferView":100,"componentType":5126,"count":3,"type":"VEC2"},{"bufferView":101,"componentType":5123,"count":9,"type":"SCALAR"},{"bufferView":102,"componentType":5126,"count":3,"type":"VEC3","min":[0.153636,1.34304,-1.02636],"max":[1.14207,3.21676,-0.59]},{"bufferView":103,"componentType":5126,"count":3,"type":"VEC3"},{"bufferView":104,"componentType":5126,"count":3,"type":"VEC2"},{"bufferView":105,"componentType":5123,"count":9,"type":"SCALAR"},{"bufferView":106,"componentType":5126,"count":3,"type":"VEC3","min":[0.383388,1.34304,-1.02636],"max":[1.14207,3.21676,-0.153636]},{"bufferView":107,"componentType":5126,"count":3,"type":"VEC3"},{"bufferView":108,"componentType":5126,"count":3,"type":"VEC2"},{"bufferView":109,"componentType":5123,"count":9,"type":"SCALAR"},{"bufferView":110,"componentType":5126,"count":7,"type":"VEC3","min":[0.153636,1.34304,-1.02636],"max":[1.14207,3.21676,-0.153636]},{"bufferView":111,"componentType":5126,"count":7,"type":"VEC3"},{"bufferView":112,"componentType":5126,"count":7,"type":"VEC2"},{"bufferView":113,"componentType":5123,"count":27,"type":"SCALAR"}],"bufferViews":[{"target":34962,"buffer":0,"byteLength":48,"byteOffset":0},{"target":34962,"buffer":0,"byteLength":48,"byteOffset":48},{"target":34962,"buffer":0,"byteLength":32,"byteOffset":96},{"target":34963,"buffer":0,"byteLength":36,"byteOffset":128},{"target":34962,"buffer":0,"byteLength":48,"byteOffset":164},{"target":34962,"buffer":0,"byteLength":48,"byteOffset":212},{"target":34962,"buffer":0,"byteLength":32,"byteOffset":260},{"target":34963,"buffer":0,"byteLength":36,"byteOffset":292},{"target":34962,"buffer":0,"byteLength":36,"byteOffset":328},{"target":34962,"buffer":0,"byteLength":36,"byteOffset":364},{"target":34962,"buffer":0,"byteLength":24,"byteOffset":400},{"target":34963,"buffer":0,"byteLength":18,"byteOffset":424},{"target":34962,"buffer":0,"byteLength":36,"byteOffset":444},{"target":34962,"buffer":0,"byteLength":24,"byteOffset":480},{"target":34963,"buffer":0,"byteLength":18,"byteOffset":504},{"target":34962,"buffer":0,"byteLength":36,"byteOffset":524},{"target":34962,"buffer":0,"byteLength":24,"byteOffset":560},{"target":34963,"buffer":0,"byteLength":18,"byteOffset":584},{"target":34962,"buffer":0,"byteLength":48,"byteOffset":604},{"target":34962,"buffer":0,"byteLength":48,"byteOffset":652},{"target":34962,"buffer":0,"byteLength":32,"byteOffset":700},{"target":34963,"buffer":0,"byteLength":36,"byteOffset":732},{"target":34962,"buffer":0,"byteLength":48,"byteOffset":768},{"target":34962,"buffer":0,"byteLength":48,"byteOffset":816},{"target":34962,"buffer":0,"byteLength":32,"byteOffset":864},{"target":34963,"buffer":0,"byteLength":36,"byteOffset":896},{"target":34962,"buffer":0,"byteLength":36,"byteOffset":932},{"target":34962,"buffer":0,"byteLength":24,"byteOffset":968},{"target":34963,"buffer":0,"byteLength":18,"byteOffset":992},{"target":34962,"buffer":0,"byteLength":48,"byteOffset":1012},{"target":34962,"buffer":0,"byteLength":32,"byteOffset":1060},{"target":34963,"buffer":0,"byteLength":36,"byteOffset":1092},{"target":34962,"buffer":0,"byteLength":36,"byteOffset":1128},{"target":34962,"buffer":0,"byteLength":24,"byteOffset":1164},{"target":34963,"buffer":0,"byteLength":18,"byteOffset":1188},{"target":34962,"buffer":0,"byteLength":48,"byteOffset":1208},{"target":34962,"buffer":0,"byteLength":32,"byteOffset":1256},{"target":34963,"buffer":0,"byteLength":36,"byteOffset":1288},{"target":34962,"buffer":0,"byteLength":48,"byteOffset":1324},{"target":34962,"buffer":0,"byteLength":32,"byteOffset":1372},{"target":34963,"buffer":0,"byteLength":36,"byteOffset":1404},{"target":34962,"buffer":0,"byteLength":48,"byteOffset":1440},{"target":34962,"buffer":0,"byteLength":48,"byteOffset":1488},{"target":34962,"buffer":0,"byteLength":32,"byteOffset":1536},{"target":34963,"buffer":0,"byteLength":36,"byteOffset":1568},{"target":34962,"buffer":0,"byteLength":48,"byteOffset":1604},{"target":34962,"buffer":0,"byteLength":32,"byteOffset":1652},{"target":34963,"buffer":0,"byteLength":36,"byteOffset":1684},{"target":34962,"buffer":0,"byteLength":96,"byteOffset":1720},{"target":34962,"buffer":0,"byteLength":96,"byteOffset":1816},{"target":34962,"buffer":0,"byteLength":64,"byteOffset":1912},{"target":34963,"buffer":0,"byteLength":36,"byteOffset":1976},{"target":34963,"buffer":0,"byteLength":36,"byteOffset":2012},{"target":34962,"buffer":0,"byteLength":48,"byteOffset":2048},{"target":34962,"buffer":0,"byteLength":48,"byteOffset":2096},{"target":34962,"buffer":0,"byteLength":32,"byteOffset":2144},{"target":34963,"buffer":0,"byteLength":36,"byteOffset":2176},{"target":34962,"buffer":0,"byteLength":48,"byteOffset":2212},{"target":34962,"buffer":0,"byteLength":48,"byteOffset":2260},{"target":34962,"buffer":0,"byteLength":32,"byteOffset":2308},{"target":34963,"buffer":0,"byteLength":36,"byteOffset":2340},{"target":34962,"buffer":0,"byteLength":48,"byteOffset":2376},{"target":34962,"buffer":0,"byteLength":32,"byteOffset":2424},{"target":34963,"buffer":0,"byteLength":36,"byteOffset":2456},{"target":34962,"buffer":0,"byteLength":48,"byteOffset":2492},{"target":34962,"buffer":0,"byteLength":32,"byteOffset":2540},{"target":34963,"buffer":0,"byteLength":36,"byteOffset":2572},{"target":34962,"buffer":0,"byteLength":48,"byteOffset":2608},{"target":34962,"buffer":0,"byteLength":48,"byteOffset":2656},{"target":34962,"buffer":0,"byteLength":32,"byteOffset":2704},{"target":34963,"buffer":0,"byteLength":36,"byteOffset":2736},{"target":34962,"buffer":0,"byteLength":36,"byteOffset":2772},{"target":34962,"buffer":0,"byteLength":24,"byteOffset":2808},{"target":34963,"buffer":0,"byteLength":18,"byteOffset":2832},{"target":34962,"buffer":0,"byteLength":36,"byteOffset":2852},{"target":34962,"buffer":0,"byteLength":24,"byteOffset":2888},{"target":34963,"buffer":0,"byteLength":18,"byteOffset":2912},{"target":34962,"buffer":0,"byteLength":36,"byteOffset":2932},{"target":34962,"buffer":0,"byteLength":24,"byteOffset":2968},{"target":34963,"buffer":0,"byteLength":18,"byteOffset":2992},{"target":34962,"buffer":0,"byteLength":48,"byteOffset":3012},{"target":34962,"buffer":0,"byteLength":48,"byteOffset":3060},{"target":34962,"buffer":0,"byteLength":32,"byteOffset":3108},{"target":34963,"buffer":0,"byteLength":36,"byteOffset":3140},{"target":34962,"buffer":0,"byteLength":84,"byteOffset":3176},{"target":34962,"buffer":0,"byteLength":84,"byteOffset":3260},{"target":34962,"buffer":0,"byteLength":56,"byteOffset":3344},{"target":34963,"buffer":0,"byteLength":54,"byteOffset":3400},{"target":34962,"buffer":0,"byteLength":48,"byteOffset":3456},{"target":34962,"buffer":0,"byteLength":48,"byteOffset":3504},{"target":34962,"buffer":0,"byteLength":32,"byteOffset":3552},{"target":34963,"buffer":0,"byteLength":36,"byteOffset":3584},{"target":34962,"buffer":0,"byteLength":36,"byteOffset":3620},{"target":34962,"buffer":0,"byteLength":24,"byteOffset":3656},{"target":34963,"buffer":0,"byteLength":18,"byteOffset":3680},{"target":34962,"buffer":0,"byteLength":48,"byteOffset":3700},{"target":34962,"buffer":0,"byteLength":32,"byteOffset":3748},{"target":34963,"buffer":0,"byteLength":36,"byteOffset":3780},{"target":34962,"buffer":0,"byteLength":36,"byteOffset":3816},{"target":34962,"buffer":0,"byteLength":36,"byteOffset":3852},{"target":34962,"buffer":0,"byteLength":24,"byteOffset":3888},{"target":34963,"buffer":0,"byteLength":18,"byteOffset":3912},{"target":34962,"buffer":0,"byteLength":36,"byteOffset":3932},{"target":34962,"buffer":0,"byteLength":36,"byteOffset":3968},{"target":34962,"buffer":0,"byteLength":24,"byteOffset":4004},{"target":34963,"buffer":0,"byteLength":18,"byteOffset":4028},{"target":34962,"buffer":0,"byteLength":36,"byteOffset":4048},{"target":34962,"buffer":0,"byteLength":36,"byteOffset":4084},{"target":34962,"buffer":0,"byteLength":24,"byteOffset":4120},{"target":34963,"buffer":0,"byteLength":18,"byteOffset":4144},{"target":34962,"buffer":0,"byteLength":84,"byteOffset":4164},{"target":34962,"buffer":0,"byteLength":84,"byteOffset":4248},{"target":34962,"buffer":0,"byteLength":56,"byteOffset":4332},{"target":34963,"buffer":0,"byteLength":54,"byteOffset":4388}],"buffers":[{"byteLength":4444,"uri":"data:application/octet-stream;base64,"}]}