{"scene":0,"asset":{"generator":"ImageToStl.com","version":"2.0"},"scenes":[{"name":"Scene","nodes":[0]}],"nodes":[{"name":"Node0","children":[1,2,3,4,5,6,7,8,9,10,11,12,13,14,15,16,17,18,19,20,21,22,23,24,25,26,27,28,29,30,31,32,33,34,35]},{"name":"Node1","mesh":0},{"name":"Node2","mesh":1},{"name":"Node3","mesh":2},{"name":"Node4","mesh":3},{"name":"Node5","mesh":4},{"name":"Node6","mesh":5},{"name":"Node7","mesh":6},{"name":"Node8","mesh":7},{"name":"Node9","mesh":8},{"name":"Node10","mesh":9},{"name":"Node11","mesh":10},{"name":"Node12","mesh":11},{"name":"Node13","mesh":12},{"name":"Node14","mesh":13},{"name":"Node15","mesh":14},{"name":"Node16","mesh":15},{"name":"Node17","mesh":16},{"name":"Node18","mesh":17},{"name":"Node19","mesh":18},{"name":"Node20","mesh":19},{"name":"Node21","mesh":20},{"name":"Node22","mesh":21},{"name":"Node23","mesh":22},{"name":"Node24","mesh":23},{"name":"Node25","mesh":24},{"name":"Node26","mesh":25},{"name":"Node27","mesh":26},{"name":"Node28","mesh":27},{"name":"Node29","mesh":28},{"name":"Node30","mesh":29},{"name":"Node31","mesh":30},{"name":"Node32","mesh":31},{"name":"Node33","mesh":32},{"name":"Node34","mesh":33},{"name":"Node35","mesh":34}],"materials":[{"name":"Wood","pbrMetallicRoughness":{"baseColorFactor":[0.666667,0.545098,0.356863,1.0],"metallicFactor":0.33,"roughnessFactor":1.0},"doubleSided":true},{"name":"Light_Wood","pbrMetallicRoughness":{"baseColorFactor":[0.937255,0.764706,0.501961,1.0],"metallicFactor":0.33,"roughnessFactor":1.0},"doubleSided":true}],"meshes":[{"name":"Mesh0","primitives":[{"indices":3,"material":0,"attributes":{"POSITION":0,"NORMAL":1,"TEXCOORD_0":2}}]},{"name":"Mesh0","primitives":[{"indices":7,"material":0,"attributes":{"POSITION":4,"NORMAL":5,"TEXCOORD_0":6}}]},{"name":"Mesh0","primitives":[{"indices":11,"material":0,"attributes":{"POSITION":8,"NORMAL":9,"TEXCOORD_0":10}}]},{"name":"Mesh0","primitives":[{"indices":15,"material":0,"attributes":{"POSITION":12,"NORMAL":13,"TEXCOORD_0":14}}]},{"name":"Mesh0","primitives":[{"indices":18,"material":0,"attributes":{"POSITION":16,"TEXCOORD_0":17}}]},{"name":"Mesh0","primitives":[{"indices":22,"material":0,"attributes":{"POSITION":19,"NORMAL":20,"TEXCOORD_0":21}}]},{"name":"Mesh0","primitives":[{"indices":25,"material":0,"attributes":{"POSITION":23,"NORMAL":24}}]},{"name":"Mesh0","primitives":[{"indices":28,"material":0,"attributes":{"POSITION":26,"TEXCOORD_0":27}}]},{"name":"Mesh0","primitives":[{"indices":31,"material":0,"attributes":{"POSITION":29,"TEXCOORD_0":30}}]},{"name":"Mesh0","primitives":[{"indices":34,"material":0,"attributes":{"POSITION":32,"TEXCOORD_0":33}}]},{"name":"Mesh0","primitives":[{"indices":37,"material":0,"attributes":{"POSITION":35,"TEXCOORD_0":36}}]},{"name":"Mesh0","primitives":[{"indices":41,"material":1,"attributes":{"POSITION":38,"NORMAL":39,"TEXCOORD_0":40}}]},{"name":"Mesh0","primitives":[{"indices":45,"material":0,"attributes":{"POSITION":42,"NORMAL":43,"TEXCOORD_0":44}}]},{"name":"Mesh0","primitives":[{"indices":48,"material":0,"attributes":{"POSITION":46,"TEXCOORD_0":47}}]},{"name":"Mesh0","primitives":[{"indices":52,"material":0,"attributes":{"POSITION":49,"NORMAL":50,"TEXCOORD_0":51}}]},{"name":"Mesh0","primitives":[{"indices":56,"material":1,"attributes":{"POSITION":53,"NORMAL":54,"TEXCOORD_0":55}}]},{"name":"Mesh0","primitives":[{"indices":60,"material":1,"attributes":{"POSITION":57,"NORMAL":58,"TEXCOORD_0":59}}]},{"name":"Mesh0","primitives":[{"indices":64,"material":1,"attributes":{"POSITION":61,"NORMAL":62,"TEXCOORD_0":63}}]},{"name":"Mesh0","primitives":[{"indices":66,"material":0,"attributes":{"POSITION":65}}]},{"name":"Mesh0","primitives":[{"indices":69,"material":0,"attributes":{"POSITION":67,"TEXCOORD_0":68}}]},{"name":"Mesh0","primitives":[{"indices":72,"material":0,"attributes":{"POSITION":70,"TEXCOORD_0":71}}]},{"name":"Mesh0","primitives":[{"indices":74,"material":0,"attributes":{"POSITION":73}}]},{"name":"Mesh0","primitives":[{"indices":77,"material":0,"attributes":{"POSITION":75,"TEXCOORD_0":76}}]},{"name":"Mesh0","primitives":[{"indices":80,"material":0,"attributes":{"POSITION":78,"TEXCOORD_0":79}}]},{"name":"Mesh0","primitives":[{"indices":83,"material":0,"attributes":{"POSITION":81,"TEXCOORD_0":82}}]},{"name":"Mesh0","primitives":[{"indices":86,"material":0,"attributes":{"POSITION":84,"TEXCOORD_0":85}}]},{"name":"Mesh0","primitives":[{"indices":90,"material":0,"attributes":{"POSITION":87,"NORMAL":88,"TEXCOORD_0":89}}]},{"name":"Mesh0","primitives":[{"indices":94,"material":0,"attributes":{"POSITION":91,"NORMAL":92,"TEXCOORD_0":93}}]},{"name":"Mesh0","primitives":[{"indices":98,"material":1,"attributes":{"POSITION":95,"NORMAL":96,"TEXCOORD_0":97}}]},{"name":"Mesh0","primitives":[{"indices":102,"material":1,"attributes":{"POSITION":99,"NORMAL":100,"TEXCOORD_0":101}}]},{"name":"Mesh0","primitives":[{"indices":106,"material":1,"attributes":{"POSITION":103,"NORMAL":104,"TEXCOORD_0":105}}]},{"name":"Mesh0","primitives":[{"indices":110,"material":0,"attributes":{"POSITION":107,"NORMAL":108,"TEXCOORD_0":109}}]},{"name":"Mesh0","primitives":[{"indices":114,"material":0,"attributes":{"POSITION":111,"NORMAL":112,"TEXCOORD_0":113}}]},{"name":"Mesh0","primitives":[{"indices":118,"material":1,"attributes":{"POSITION":115,"NORMAL":116,"TEXCOORD_0":117}}]},{"name":"Mesh0","primitives":[{"indices":121,"material":0,"attributes":{"POSITION":119,"TEXCOORD_0":120}}]}],"accessors":[{"bufferView":0,"componentType":5126,"count":4,"type":"VEC3","min":[0.0,1.1,-0.5],"max":[0.5,1.1,4.33147E-15]},{"bufferView":1,"componentType":5126,"count":4,"type":"VEC3"},{"bufferView":2,"componentType":5126,"count":4,"type":"VEC2"},{"bufferView":3,"componentType":5123,"count":18,"type":"SCALAR"},{"bufferView":4,"componentType":5126,"count":4,"type":"VEC3","min":[0.5,0.0,-0.5],"max":[0.5,1.1,4.33147E-15]},{"bufferView":5,"componentType":5126,"count":4,"type":"VEC3"},{"bufferView":6,"componentType":5126,"count":4,"type":"VEC2"},{"bufferView":7,"componentType":5123,"count":18,"type":"SCALAR"},{"bufferView":8,"componentType":5126,"count":4,"type":"VEC3","min":[0.0,0.0,-0.5],"max":[0.5,0.0,4.33147E-15]},{"bufferView":9,"componentType":5126,"count":4,"type":"VEC3"},{"bufferView":10,"componentType":5126,"count":4,"type":"VEC2"},{"bufferView":11,"componentType":5123,"count":18,"type":"SCALAR"},{"bufferView":12,"componentType":5126,"count":3,"type":"VEC3","min":[0.0,0.0,-0.5],"max":[0.5,0.5,-0.5]},{"bufferView":13,"componentType":5126,"count":3,"type":"VEC3"},{"bufferView":14,"componentType":5126,"count":3,"type":"VEC2"},{"bufferView":15,"componentType":5123,"count":9,"type":"SCALAR"},{"bufferView":16,"componentType":5126,"count":3,"type":"VEC3","min":[0.0,0.0,-0.5],"max":[0.1,1.1,-0.5]},{"bufferView":17,"componentType":5126,"count":3,"type":"VEC2"},{"bufferView":18,"componentType":5123,"count":9,"type":"SCALAR"},{"bufferView":19,"componentType":5126,"count":4,"type":"VEC3","min":[0.0,0.0,-0.5],"max":[0.0,1.1,0.0]},{"bufferView":20,"componentType":5126,"count":4,"type":"VEC3"},{"bufferView":21,"componentType":5126,"count":4,"type":"VEC2"},{"bufferView":22,"componentType":5123,"count":18,"type":"SCALAR"},{"bufferView":23,"componentType":5126,"count":4,"type":"VEC3","min":[0.0,0.0,0.0],"max":[0.5,1.1,4.33147E-15]},{"bufferView":24,"componentType":5126,"count":4,"type":"VEC3"},{"bufferView":25,"componentType":5123,"count":6,"type":"SCALAR"},{"bufferView":26,"componentType":5126,"count":3,"type":"VEC3","min":[0.0,0.5,-0.5],"max":[0.1,1.1,-0.5]},{"bufferView":27,"componentType":5126,"count":3,"type":"VEC2"},{"bufferView":28,"componentType":5123,"count":9,"type":"SCALAR"},{"bufferView":29,"componentType":5126,"count":4,"type":"VEC3","min":[0.0,1.0,-0.5],"max":[0.5,1.1,-0.5]},{"bufferView":30,"componentType":5126,"count":4,"type":"VEC2"},{"bufferView":31,"componentType":5123,"count":18,"type":"SCALAR"},{"bufferView":32,"componentType":5126,"count":5,"type":"VEC3","min":[0.1,0.0,-0.5],"max":[0.5,1.1,-0.5]},{"bufferView":33,"componentType":5126,"count":5,"type":"VEC2"},{"bufferView":34,"componentType":5123,"count":27,"type":"SCALAR"},{"bufferView":35,"componentType":5126,"count":4,"type":"VEC3","min":[0.1,0.5,-0.682889],"max":[0.4,0.5,-0.5]},{"bufferView":36,"componentType":5126,"count":4,"type":"VEC2"},{"bufferView":37,"componentType":5123,"count":18,"type":"SCALAR"},{"bufferView":38,"componentType":5126,"count":4,"type":"VEC3","min":[0.1,0.5,-0.744879],"max":[0.4,0.625,-0.682889]},{"bufferView":39,"componentType":5126,"count":4,"type":"VEC3"},{"bufferView":40,"componentType":5126,"count":4,"type":"VEC2"},{"bufferView":41,"componentType":5123,"count":18,"type":"SCALAR"},{"bufferView":42,"componentType":5126,"count":7,"type":"VEC3","min":[0.1,0.5,-0.791959],"max":[0.1,1.0,-0.5]},{"bufferView":43,"componentType":5126,"count":7,"type":"VEC3"},{"bufferView":44,"componentType":5126,"count":7,"type":"VEC2"},{"bufferView":45,"componentType":5123,"count":45,"type":"SCALAR"},{"bufferView":46,"componentType":5126,"count":4,"type":"VEC3","min":[0.1,1.0,-0.682889],"max":[0.4,1.0,-0.5]},{"bufferView":47,"componentType":5126,"count":4,"type":"VEC2"},{"bufferView":48,"componentType":5123,"count":18,"type":"SCALAR"},{"bufferView":49,"componentType":5126,"count":7,"type":"VEC3","min":[0.4,0.5,-0.791959],"max":[0.4,1.0,-0.5]},{"bufferView":50,"componentType":5126,"count":7,"type":"VEC3"},{"bufferView":51,"componentType":5126,"count":7,"type":"VEC2"},{"bufferView":52,"componentType":5123,"count":45,"type":"SCALAR"},{"bufferView":53,"componentType":5126,"count":4,"type":"VEC3","min":[0.1,0.625,-0.744879],"max":[0.4,0.75,-0.682889]},{"bufferView":54,"componentType":5126,"count":4,"type":"VEC3"},{"bufferView":55,"componentType":5126,"count":4,"type":"VEC2"},{"bufferView":56,"componentType":5123,"count":18,"type":"SCALAR"},{"bufferView":57,"componentType":5126,"count":4,"type":"VEC3","min":[0.1,0.75,-0.791959],"max":[0.4,0.875,-0.682889]},{"bufferView":58,"componentType":5126,"count":4,"type":"VEC3"},{"bufferView":59,"componentType":5126,"count":4,"type":"VEC2"},{"bufferView":60,"componentType":5123,"count":18,"type":"SCALAR"},{"bufferView":61,"componentType":5126,"count":4,"type":"VEC3","min":[0.1,0.875,-0.791959],"max":[0.4,1.0,-0.682889]},{"bufferView":62,"componentType":5126,"count":4,"type":"VEC3"},{"bufferView":63,"componentType":5126,"count":4,"type":"VEC2"},{"bufferView":64,"componentType":5123,"count":18,"type":"SCALAR"},{"bufferView":65,"componentType":5126,"count":4,"type":"VEC3","min":[0.0,0.0,-3.0],"max":[0.5,1.1,-3.0]},{"bufferView":66,"componentType":5123,"count":6,"type":"SCALAR"},{"bufferView":67,"componentType":5126,"count":4,"type":"VEC3","min":[0.0,0.0,-3.0],"max":[0.5,0.0,-2.5]},{"bufferView":68,"componentType":5126,"count":4,"type":"VEC2"},{"bufferView":69,"componentType":5123,"count":18,"type":"SCALAR"},{"bufferView":70,"componentType":5126,"count":3,"type":"VEC3","min":[8.66294E-15,0.0,-2.5],"max":[0.5,0.5,-2.5]},{"bufferView":71,"componentType":5126,"count":3,"type":"VEC2"},{"bufferView":72,"componentType":5123,"count":9,"type":"SCALAR"},{"bufferView":73,"componentType":5126,"count":3,"type":"VEC3","min":[0.4,0.0,-2.5],"max":[0.5,1.1,-2.5]},{"bufferView":74,"componentType":5123,"count":3,"type":"SCALAR"},{"bufferView":75,"componentType":5126,"count":4,"type":"VEC3","min":[0.5,0.0,-3.0],"max":[0.5,1.1,-2.5]},{"bufferView":76,"componentType":5126,"count":4,"type":"VEC2"},{"bufferView":77,"componentType":5123,"count":18,"type":"SCALAR"},{"bufferView":78,"componentType":5126,"count":4,"type":"VEC3","min":[0.0,1.1,-3.0],"max":[0.5,1.1,-2.5]},{"bufferView":79,"componentType":5126,"count":4,"type":"VEC2"},{"bufferView":80,"componentType":5123,"count":18,"type":"SCALAR"},{"bufferView":81,"componentType":5126,"count":4,"type":"VEC3","min":[0.0,0.0,-3.0],"max":[8.66294E-15,1.1,-2.5]},{"bufferView":82,"componentType":5126,"count":4,"type":"VEC2"},{"bufferView":83,"componentType":5123,"count":18,"type":"SCALAR"},{"bufferView":84,"componentType":5126,"count":4,"type":"VEC3","min":[8.66294E-15,0.0,-2.5],"max":[0.4,1.1,-2.5]},{"bufferView":85,"componentType":5126,"count":4,"type":"VEC2"},{"bufferView":86,"componentType":5123,"count":18,"type":"SCALAR"},{"bufferView":87,"componentType":5126,"count":4,"type":"VEC3","min":[0.1,0.113494,-2.5],"max":[0.4,0.5,-1.60273]},{"bufferView":88,"componentType":5126,"count":4,"type":"VEC3"},{"bufferView":89,"componentType":5126,"count":4,"type":"VEC2"},{"bufferView":90,"componentType":5123,"count":18,"type":"SCALAR"},{"bufferView":91,"componentType":5126,"count":7,"type":"VEC3","min":[0.1,0.113494,-2.5],"max":[0.1,1.0,-1.23609]},{"bufferView":92,"componentType":5126,"count":7,"type":"VEC3"},{"bufferView":93,"componentType":5126,"count":7,"type":"VEC2"},{"bufferView":94,"componentType":5123,"count":45,"type":"SCALAR"},{"bufferView":95,"componentType":5126,"count":4,"type":"VEC3","min":[0.1,0.33,-1.47773],"max":[0.4,0.351109,-1.23609]},{"bufferView":96,"componentType":5126,"count":4,"type":"VEC3"},{"bufferView":97,"componentType":5126,"count":4,"type":"VEC2"},{"bufferView":98,"componentType":5123,"count":18,"type":"SCALAR"},{"bufferView":99,"componentType":5126,"count":4,"type":"VEC3","min":[0.1,0.169417,-1.47773],"max":[0.4,0.33,-1.4496]},{"bufferView":100,"componentType":5126,"count":4,"type":"VEC3"},{"bufferView":101,"componentType":5126,"count":4,"type":"VEC2"},{"bufferView":102,"componentType":5123,"count":18,"type":"SCALAR"},{"bufferView":103,"componentType":5126,"count":4,"type":"VEC3","min":[0.1,0.113494,-1.60273],"max":[0.4,0.169417,-1.4496]},{"bufferView":104,"componentType":5126,"count":4,"type":"VEC3"},{"bufferView":105,"componentType":5126,"count":4,"type":"VEC2"},{"bufferView":106,"componentType":5123,"count":18,"type":"SCALAR"},{"bufferView":107,"componentType":5126,"count":7,"type":"VEC3","min":[0.4,0.113494,-2.5],"max":[0.4,1.0,-1.23609]},{"bufferView":108,"componentType":5126,"count":7,"type":"VEC3"},{"bufferView":109,"componentType":5126,"count":7,"type":"VEC2"},{"bufferView":110,"componentType":5123,"count":45,"type":"SCALAR"},{"bufferView":111,"componentType":5126,"count":4,"type":"VEC3","min":[0.1,0.546506,-2.5],"max":[0.4,1.0,-1.35273]},{"bufferView":112,"componentType":5126,"count":4,"type":"VEC3"},{"bufferView":113,"componentType":5126,"count":4,"type":"VEC2"},{"bufferView":114,"componentType":5123,"count":18,"type":"SCALAR"},{"bufferView":115,"componentType":5126,"count":4,"type":"VEC3","min":[0.1,0.351109,-1.35273],"max":[0.4,0.546506,-1.23609]},{"bufferView":116,"componentType":5126,"count":4,"type":"VEC3"},{"bufferView":117,"componentType":5126,"count":4,"type":"VEC2"},{"bufferView":118,"componentType":5123,"count":18,"type":"SCALAR"},{"bufferView":119,"componentType":5126,"count":6,"type":"VEC3","min":[8.66294E-15,0.5,-2.5],"max":[0.5,1.1,-2.5]},{"bufferView":120,"componentType":5126,"count":6,"type":"VEC2"},{"bufferView":121,"componentType":5123,"count":36,"type":"SCALAR"}],"bufferViews":[{"target":34962,"buffer":0,"byteLength":48,"byteOffset":0},{"target":34962,"buffer":0,"byteLength":48,"byteOffset":48},{"target":34962,"buffer":0,"byteLength":32,"byteOffset":96},{"target":34963,"buffer":0,"byteLength":36,"byteOffset":128},{"target":34962,"buffer":0,"byteLength":48,"byteOffset":164},{"target":34962,"buffer":0,"byteLength":48,"byteOffset":212},{"target":34962,"buffer":0,"byteLength":32,"byteOffset":260},{"target":34963,"buffer":0,"byteLength":36,"byteOffset":292},{"target":34962,"buffer":0,"byteLength":48,"byteOffset":328},{"target":34962,"buffer":0,"byteLength":48,"byteOffset":376},{"target":34962,"buffer":0,"byteLength":32,"byteOffset":424},{"target":34963,"buffer":0,"byteLength":36,"byteOffset":456},{"target":34962,"buffer":0,"byteLength":36,"byteOffset":492},{"target":34962,"buffer":0,"byteLength":36,"byteOffset":528},{"target":34962,"buffer":0,"byteLength":24,"byteOffset":564},{"target":34963,"buffer":0,"byteLength":18,"byteOffset":588},{"target":34962,"buffer":0,"byteLength":36,"byteOffset":608},{"target":34962,"buffer":0,"byteLength":24,"byteOffset":644},{"target":34963,"buffer":0,"byteLength":18,"byteOffset":668},{"target":34962,"buffer":0,"byteLength":48,"byteOffset":688},{"target":34962,"buffer":0,"byteLength":48,"byteOffset":736},{"target":34962,"buffer":0,"byteLength":32,"byteOffset":784},{"target":34963,"buffer":0,"byteLength":36,"byteOffset":816},{"target":34962,"buffer":0,"byteLength":48,"byteOffset":852},{"target":34962,"buffer":0,"byteLength":48,"byteOffset":900},{"target":34963,"buffer":0,"byteLength":12,"byteOffset":948},{"target":34962,"buffer":0,"byteLength":36,"byteOffset":960},{"target":34962,"buffer":0,"byteLength":24,"byteOffset":996},{"target":34963,"buffer":0,"byteLength":18,"byteOffset":1020},{"target":34962,"buffer":0,"byteLength":48,"byteOffset":1040},{"target":34962,"buffer":0,"byteLength":32,"byteOffset":1088},{"target":34963,"buffer":0,"byteLength":36,"byteOffset":1120},{"target":34962,"buffer":0,"byteLength":60,"byteOffset":1156},{"target":34962,"buffer":0,"byteLength":40,"byteOffset":1216},{"target":34963,"buffer":0,"byteLength":54,"byteOffset":1256},{"target":34962,"buffer":0,"byteLength":48,"byteOffset":1312},{"target":34962,"buffer":0,"byteLength":32,"byteOffset":1360},{"target":34963,"buffer":0,"byteLength":36,"byteOffset":1392},{"target":34962,"buffer":0,"byteLength":48,"byteOffset":1428},{"target":34962,"buffer":0,"byteLength":48,"byteOffset":1476},{"target":34962,"buffer":0,"byteLength":32,"byteOffset":1524},{"target":34963,"buffer":0,"byteLength":36,"byteOffset":1556},{"target":34962,"buffer":0,"byteLength":84,"byteOffset":1592},{"target":34962,"buffer":0,"byteLength":84,"byteOffset":1676},{"target":34962,"buffer":0,"byteLength":56,"byteOffset":1760},{"target":34963,"buffer":0,"byteLength":90,"byteOffset":1816},{"target":34962,"buffer":0,"byteLength":48,"byteOffset":1908},{"target":34962,"buffer":0,"byteLength":32,"byteOffset":1956},{"target":34963,"buffer":0,"byteLength":36,"byteOffset":1988},{"target":34962,"buffer":0,"byteLength":84,"byteOffset":2024},{"target":34962,"buffer":0,"byteLength":84,"byteOffset":2108},{"target":34962,"buffer":0,"byteLength":56,"byteOffset":2192},{"target":34963,"buffer":0,"byteLength":90,"byteOffset":2248},{"target":34962,"buffer":0,"byteLength":48,"byteOffset":2340},{"target":34962,"buffer":0,"byteLength":48,"byteOffset":2388},{"target":34962,"buffer":0,"byteLength":32,"byteOffset":2436},{"target":34963,"buffer":0,"byteLength":36,"byteOffset":2468},{"target":34962,"buffer":0,"byteLength":48,"byteOffset":2504},{"target":34962,"buffer":0,"byteLength":48,"byteOffset":2552},{"target":34962,"buffer":0,"byteLength":32,"byteOffset":2600},{"target":34963,"buffer":0,"byteLength":36,"byteOffset":2632},{"target":34962,"buffer":0,"byteLength":48,"byteOffset":2668},{"target":34962,"buffer":0,"byteLength":48,"byteOffset":2716},{"target":34962,"buffer":0,"byteLength":32,"byteOffset":2764},{"target":34963,"buffer":0,"byteLength":36,"byteOffset":2796},{"target":34962,"buffer":0,"byteLength":48,"byteOffset":2832},{"target":34963,"buffer":0,"byteLength":12,"byteOffset":2880},{"target":34962,"buffer":0,"byteLength":48,"byteOffset":2892},{"target":34962,"buffer":0,"byteLength":32,"byteOffset":2940},{"target":34963,"buffer":0,"byteLength":36,"byteOffset":2972},{"target":34962,"buffer":0,"byteLength":36,"byteOffset":3008},{"target":34962,"buffer":0,"byteLength":24,"byteOffset":3044},{"target":34963,"buffer":0,"byteLength":18,"byteOffset":3068},{"target":34962,"buffer":0,"byteLength":36,"byteOffset":3088},{"target":34963,"buffer":0,"byteLength":6,"byteOffset":3124},{"target":34962,"buffer":0,"byteLength":48,"byteOffset":3132},{"target":34962,"buffer":0,"byteLength":32,"byteOffset":3180},{"target":34963,"buffer":0,"byteLength":36,"byteOffset":3212},{"target":34962,"buffer":0,"byteLength":48,"byteOffset":3248},{"target":34962,"buffer":0,"byteLength":32,"byteOffset":3296},{"target":34963,"buffer":0,"byteLength":36,"byteOffset":3328},{"target":34962,"buffer":0,"byteLength":48,"byteOffset":3364},{"target":34962,"buffer":0,"byteLength":32,"byteOffset":3412},{"target":34963,"buffer":0,"byteLength":36,"byteOffset":3444},{"target":34962,"buffer":0,"byteLength":48,"byteOffset":3480},{"target":34962,"buffer":0,"byteLength":32,"byteOffset":3528},{"target":34963,"buffer":0,"byteLength":36,"byteOffset":3560},{"target":34962,"buffer":0,"byteLength":48,"byteOffset":3596},{"target":34962,"buffer":0,"byteLength":48,"byteOffset":3644},{"target":34962,"buffer":0,"byteLength":32,"byteOffset":3692},{"target":34963,"buffer":0,"byteLength":36,"byteOffset":3724},{"target":34962,"buffer":0,"byteLength":84,"byteOffset":3760},{"target":34962,"buffer":0,"byteLength":84,"byteOffset":3844},{"target":34962,"buffer":0,"byteLength":56,"byteOffset":3928},{"target":34963,"buffer":0,"byteLength":90,"byteOffset":3984},{"target":34962,"buffer":0,"byteLength":48,"byteOffset":4076},{"target":34962,"buffer":0,"byteLength":48,"byteOffset":4124},{"target":34962,"buffer":0,"byteLength":32,"byteOffset":4172},{"target":34963,"buffer":0,"byteLength":36,"byteOffset":4204},{"target":34962,"buffer":0,"byteLength":48,"byteOffset":4240},{"target":34962,"buffer":0,"byteLength":48,"byteOffset":4288},{"target":34962,"buffer":0,"byteLength":32,"byteOffset":4336},{"target":34963,"buffer":0,"byteLength":36,"byteOffset":4368},{"target":34962,"buffer":0,"byteLength":48,"byteOffset":4404},{"target":34962,"buffer":0,"byteLength":48,"byteOffset":4452},{"target":34962,"buffer":0,"byteLength":32,"byteOffset":4500},{"target":34963,"buffer":0,"byteLength":36,"byteOffset":4532},{"target":34962,"buffer":0,"byteLength":84,"byteOffset":4568},{"target":34962,"buffer":0,"byteLength":84,"byteOffset":4652},{"target":34962,"buffer":0,"byteLength":56,"byteOffset":4736},{"target":34963,"buffer":0,"byteLength":90,"byteOffset":4792},{"target":34962,"buffer":0,"byteLength":48,"byteOffset":4884},{"target":34962,"buffer":0,"byteLength":48,"byteOffset":4932},{"target":34962,"buffer":0,"byteLength":32,"byteOffset":4980},{"target":34963,"buffer":0,"byteLength":36,"byteOffset":5012},{"target":34962,"buffer":0,"byteLength":48,"byteOffset":5048},{"target":34962,"buffer":0,"byteLength":48,"byteOffset":5096},{"target":34962,"buffer":0,"byteLength":32,"byteOffset":5144},{"target":34963,"buffer":0,"byteLength":36,"byteOffset":5176},{"target":34962,"buffer":0,"byteLength":72,"byteOffset":5212},{"target":34962,"buffer":0,"byteLength":48,"byteOffset":5284},{"target":34963,"buffer":0,"byteLength":72,"byteOffset":5332}],"buffers":[{"byteLength":5404,"uri":"data:application/octet-stream;base64,"}]}