{"scene":0,"asset":{"generator":"ImageToStl.com","version":"2.0"},"scenes":[{"name":"Scene","nodes":[0]}],"nodes":[{"name":"Node0","children":[1,2,3,4,5,6,7,8,9,10,11,12,13,14,15,16,17,18,19,20,21,22,23,24]},{"name":"Node1","mesh":0},{"name":"Node2","mesh":1},{"name":"Node3","mesh":2},{"name":"Node4","mesh":3},{"name":"Node5","mesh":4},{"name":"Node6","mesh":5},{"name":"Node7","mesh":6},{"name":"Node8","mesh":7},{"name":"Node9","mesh":8},{"name":"Node10","mesh":9},{"name":"Node11","mesh":10},{"name":"Node12","mesh":11},{"name":"Node13","mesh":12},{"name":"Node14","mesh":13},{"name":"Node15","mesh":14},{"name":"Node16","mesh":15},{"name":"Node17","mesh":16},{"name":"Node18","mesh":17},{"name":"Node19","mesh":18},{"name":"Node20","mesh":19},{"name":"Node21","mesh":20},{"name":"Node22","mesh":21},{"name":"Node23","mesh":22},{"name":"Node24","mesh":23}],"materials":[{"name":"Wood","pbrMetallicRoughness":{"baseColorFactor":[0.666667,0.545098,0.356863,1.0],"metallicFactor":0.33,"roughnessFactor":1.0},"doubleSided":true}],"meshes":[{"name":"Mesh0","primitives":[{"indices":3,"material":0,"attributes":{"POSITION":0,"NORMAL":1,"TEXCOORD_0":2}}]},{"name":"Mesh0","primitives":[{"indices":7,"material":0,"attributes":{"POSITION":4,"NORMAL":5,"TEXCOORD_0":6}}]},{"name":"Mesh0","primitives":[{"indices":11,"material":0,"attributes":{"POSITION":8,"NORMAL":9,"TEXCOORD_0":10}}]},{"name":"Mesh0","primitives":[{"indices":15,"material":0,"attributes":{"POSITION":12,"NORMAL":13,"TEXCOORD_0":14}}]},{"name":"Mesh0","primitives":[{"indices":18,"material":0,"attributes":{"POSITION":16,"TEXCOORD_0":17}}]},{"name":"Mesh0","primitives":[{"indices":22,"material":0,"attributes":{"POSITION":19,"NORMAL":20,"TEXCOORD_0":21}}]},{"name":"Mesh0","primitives":[{"indices":25,"material":0,"attributes":{"POSITION":23,"NORMAL":24}}]},{"name":"Mesh0","primitives":[{"indices":28,"material":0,"attributes":{"POSITION":26,"TEXCOORD_0":27}}]},{"name":"Mesh0","primitives":[{"indices":31,"material":0,"attributes":{"POSITION":29,"TEXCOORD_0":30}}]},{"name":"Mesh0","primitives":[{"indices":34,"material":0,"attributes":{"POSITION":32,"TEXCOORD_0":33}}]},{"name":"Mesh0","primitives":[{"indices":37,"material":0,"attributes":{"POSITION":35,"TEXCOORD_0":36}}]},{"name":"Mesh0","primitives":[{"indices":40,"material":0,"attributes":{"POSITION":38,"TEXCOORD_0":39}}]},{"name":"Mesh0","primitives":[{"indices":43,"material":0,"attributes":{"POSITION":41,"TEXCOORD_0":42}}]},{"name":"Mesh0","primitives":[{"indices":45,"material":0,"attributes":{"POSITION":44}}]},{"name":"Mesh0","primitives":[{"indices":48,"material":0,"attributes":{"POSITION":46,"TEXCOORD_0":47}}]},{"name":"Mesh0","primitives":[{"indices":50,"material":0,"attributes":{"POSITION":49}}]},{"name":"Mesh0","primitives":[{"indices":52,"material":0,"attributes":{"POSITION":51}}]},{"name":"Mesh0","primitives":[{"indices":55,"material":0,"attributes":{"POSITION":53,"TEXCOORD_0":54}}]},{"name":"Mesh0","primitives":[{"indices":58,"material":0,"attributes":{"POSITION":56,"TEXCOORD_0":57}}]},{"name":"Mesh0","primitives":[{"indices":61,"material":0,"attributes":{"POSITION":59,"TEXCOORD_0":60}}]},{"name":"Mesh0","primitives":[{"indices":64,"material":0,"attributes":{"POSITION":62,"TEXCOORD_0":63}}]},{"name":"Mesh0","primitives":[{"indices":67,"material":0,"attributes":{"POSITION":65,"TEXCOORD_0":66}}]},{"name":"Mesh0","primitives":[{"indices":70,"material":0,"attributes":{"POSITION":68,"TEXCOORD_0":69}}]},{"name":"Mesh0","primitives":[{"indices":74,"material":0,"attributes":{"POSITION":71,"NORMAL":72,"TEXCOORD_0":73}}]}],"accessors":[{"bufferView":0,"componentType":5126,"count":4,"type":"VEC3","min":[0.0,1.1,-0.5],"max":[0.5,1.1,0.0]},{"bufferView":1,"componentType":5126,"count":4,"type":"VEC3"},{"bufferView":2,"componentType":5126,"count":4,"type":"VEC2"},{"bufferView":3,"componentType":5123,"count":18,"type":"SCALAR"},{"bufferView":4,"componentType":5126,"count":4,"type":"VEC3","min":[0.5,0.0,-0.5],"max":[0.5,1.1,-3.60956E-16]},{"bufferView":5,"componentType":5126,"count":4,"type":"VEC3"},{"bufferView":6,"componentType":5126,"count":4,"type":"VEC2"},{"bufferView":7,"componentType":5123,"count":18,"type":"SCALAR"},{"bufferView":8,"componentType":5126,"count":4,"type":"VEC3","min":[0.0,0.0,-0.5],"max":[0.5,0.0,0.0]},{"bufferView":9,"componentType":5126,"count":4,"type":"VEC3"},{"bufferView":10,"componentType":5126,"count":4,"type":"VEC2"},{"bufferView":11,"componentType":5123,"count":18,"type":"SCALAR"},{"bufferView":12,"componentType":5126,"count":3,"type":"VEC3","min":[0.0,0.0,-0.5],"max":[0.5,0.5,-0.5]},{"bufferView":13,"componentType":5126,"count":3,"type":"VEC3"},{"bufferView":14,"componentType":5126,"count":3,"type":"VEC2"},{"bufferView":15,"componentType":5123,"count":9,"type":"SCALAR"},{"bufferView":16,"componentType":5126,"count":3,"type":"VEC3","min":[0.0,0.0,-0.5],"max":[0.1,1.1,-0.5]},{"bufferView":17,"componentType":5126,"count":3,"type":"VEC2"},{"bufferView":18,"componentType":5123,"count":9,"type":"SCALAR"},{"bufferView":19,"componentType":5126,"count":4,"type":"VEC3","min":[0.0,0.0,-0.5],"max":[0.0,1.1,0.0]},{"bufferView":20,"componentType":5126,"count":4,"type":"VEC3"},{"bufferView":21,"componentType":5126,"count":4,"type":"VEC2"},{"bufferView":22,"componentType":5123,"count":18,"type":"SCALAR"},{"bufferView":23,"componentType":5126,"count":4,"type":"VEC3","min":[0.0,0.0,-3.60956E-16],"max":[0.5,1.1,0.0]},{"bufferView":24,"componentType":5126,"count":4,"type":"VEC3"},{"bufferView":25,"componentType":5123,"count":6,"type":"SCALAR"},{"bufferView":26,"componentType":5126,"count":3,"type":"VEC3","min":[0.0,0.5,-0.5],"max":[0.1,1.1,-0.5]},{"bufferView":27,"componentType":5126,"count":3,"type":"VEC2"},{"bufferView":28,"componentType":5123,"count":9,"type":"SCALAR"},{"bufferView":29,"componentType":5126,"count":4,"type":"VEC3","min":[0.0,1.0,-0.5],"max":[0.5,1.1,-0.5]},{"bufferView":30,"componentType":5126,"count":4,"type":"VEC2"},{"bufferView":31,"componentType":5123,"count":18,"type":"SCALAR"},{"bufferView":32,"componentType":5126,"count":5,"type":"VEC3","min":[0.1,0.0,-0.5],"max":[0.5,1.1,-0.5]},{"bufferView":33,"componentType":5126,"count":5,"type":"VEC2"},{"bufferView":34,"componentType":5123,"count":27,"type":"SCALAR"},{"bufferView":35,"componentType":5126,"count":4,"type":"VEC3","min":[0.1,0.5,-2.5],"max":[0.4,0.5,-0.5]},{"bufferView":36,"componentType":5126,"count":4,"type":"VEC2"},{"bufferView":37,"componentType":5123,"count":18,"type":"SCALAR"},{"bufferView":38,"componentType":5126,"count":4,"type":"VEC3","min":[0.1,0.5,-2.5],"max":[0.1,1.0,-0.5]},{"bufferView":39,"componentType":5126,"count":4,"type":"VEC2"},{"bufferView":40,"componentType":5123,"count":18,"type":"SCALAR"},{"bufferView":41,"componentType":5126,"count":3,"type":"VEC3","min":[0.0,0.5,-2.5],"max":[0.1,1.1,-2.5]},{"bufferView":42,"componentType":5126,"count":3,"type":"VEC2"},{"bufferView":43,"componentType":5123,"count":9,"type":"SCALAR"},{"bufferView":44,"componentType":5126,"count":3,"type":"VEC3","min":[0.0,0.0,-2.5],"max":[0.1,1.1,-2.5]},{"bufferView":45,"componentType":5123,"count":3,"type":"SCALAR"},{"bufferView":46,"componentType":5126,"count":3,"type":"VEC3","min":[0.0,0.0,-2.5],"max":[0.4,0.5,-2.5]},{"bufferView":47,"componentType":5126,"count":3,"type":"VEC2"},{"bufferView":48,"componentType":5123,"count":9,"type":"SCALAR"},{"bufferView":49,"componentType":5126,"count":3,"type":"VEC3","min":[0.0,0.0,-2.5],"max":[0.5,0.5,-2.5]},{"bufferView":50,"componentType":5123,"count":3,"type":"SCALAR"},{"bufferView":51,"componentType":5126,"count":3,"type":"VEC3","min":[0.4,0.0,-2.5],"max":[0.5,1.1,-2.5]},{"bufferView":52,"componentType":5123,"count":3,"type":"SCALAR"},{"bufferView":53,"componentType":5126,"count":4,"type":"VEC3","min":[0.5,0.0,-3.0],"max":[0.5,1.1,-2.5]},{"bufferView":54,"componentType":5126,"count":4,"type":"VEC2"},{"bufferView":55,"componentType":5123,"count":18,"type":"SCALAR"},{"bufferView":56,"componentType":5126,"count":4,"type":"VEC3","min":[0.0,1.1,-3.0],"max":[0.5,1.1,-2.5]},{"bufferView":57,"componentType":5126,"count":4,"type":"VEC2"},{"bufferView":58,"componentType":5123,"count":18,"type":"SCALAR"},{"bufferView":59,"componentType":5126,"count":4,"type":"VEC3","min":[0.0,0.0,-3.0],"max":[0.0,1.1,-2.5]},{"bufferView":60,"componentType":5126,"count":4,"type":"VEC2"},{"bufferView":61,"componentType":5123,"count":18,"type":"SCALAR"},{"bufferView":62,"componentType":5126,"count":11,"type":"VEC3","min":[0.0,0.0,-3.0],"max":[0.5,1.1,-2.5]},{"bufferView":63,"componentType":5126,"count":11,"type":"VEC2"},{"bufferView":64,"componentType":5123,"count":45,"type":"SCALAR"},{"bufferView":65,"componentType":5126,"count":4,"type":"VEC3","min":[0.1,0.5,-2.5],"max":[0.5,1.1,-2.5]},{"bufferView":66,"componentType":5126,"count":4,"type":"VEC2"},{"bufferView":67,"componentType":5123,"count":18,"type":"SCALAR"},{"bufferView":68,"componentType":5126,"count":4,"type":"VEC3","min":[0.4,0.5,-2.5],"max":[0.4,1.0,-0.5]},{"bufferView":69,"componentType":5126,"count":4,"type":"VEC2"},{"bufferView":70,"componentType":5123,"count":18,"type":"SCALAR"},{"bufferView":71,"componentType":5126,"count":4,"type":"VEC3","min":[0.1,1.0,-2.5],"max":[0.4,1.0,-0.5]},{"bufferView":72,"componentType":5126,"count":4,"type":"VEC3"},{"bufferView":73,"componentType":5126,"count":4,"type":"VEC2"},{"bufferView":74,"componentType":5123,"count":18,"type":"SCALAR"}],"bufferViews":[{"target":34962,"buffer":0,"byteLength":48,"byteOffset":0},{"target":34962,"buffer":0,"byteLength":48,"byteOffset":48},{"target":34962,"buffer":0,"byteLength":32,"byteOffset":96},{"target":34963,"buffer":0,"byteLength":36,"byteOffset":128},{"target":34962,"buffer":0,"byteLength":48,"byteOffset":164},{"target":34962,"buffer":0,"byteLength":48,"byteOffset":212},{"target":34962,"buffer":0,"byteLength":32,"byteOffset":260},{"target":34963,"buffer":0,"byteLength":36,"byteOffset":292},{"target":34962,"buffer":0,"byteLength":48,"byteOffset":328},{"target":34962,"buffer":0,"byteLength":48,"byteOffset":376},{"target":34962,"buffer":0,"byteLength":32,"byteOffset":424},{"target":34963,"buffer":0,"byteLength":36,"byteOffset":456},{"target":34962,"buffer":0,"byteLength":36,"byteOffset":492},{"target":34962,"buffer":0,"byteLength":36,"byteOffset":528},{"target":34962,"buffer":0,"byteLength":24,"byteOffset":564},{"target":34963,"buffer":0,"byteLength":18,"byteOffset":588},{"target":34962,"buffer":0,"byteLength":36,"byteOffset":608},{"target":34962,"buffer":0,"byteLength":24,"byteOffset":644},{"target":34963,"buffer":0,"byteLength":18,"byteOffset":668},{"target":34962,"buffer":0,"byteLength":48,"byteOffset":688},{"target":34962,"buffer":0,"byteLength":48,"byteOffset":736},{"target":34962,"buffer":0,"byteLength":32,"byteOffset":784},{"target":34963,"buffer":0,"byteLength":36,"byteOffset":816},{"target":34962,"buffer":0,"byteLength":48,"byteOffset":852},{"target":34962,"buffer":0,"byteLength":48,"byteOffset":900},{"target":34963,"buffer":0,"byteLength":12,"byteOffset":948},{"target":34962,"buffer":0,"byteLength":36,"byteOffset":960},{"target":34962,"buffer":0,"byteLength":24,"byteOffset":996},{"target":34963,"buffer":0,"byteLength":18,"byteOffset":1020},{"target":34962,"buffer":0,"byteLength":48,"byteOffset":1040},{"target":34962,"buffer":0,"byteLength":32,"byteOffset":1088},{"target":34963,"buffer":0,"byteLength":36,"byteOffset":1120},{"target":34962,"buffer":0,"byteLength":60,"byteOffset":1156},{"target":34962,"buffer":0,"byteLength":40,"byteOffset":1216},{"target":34963,"buffer":0,"byteLength":54,"byteOffset":1256},{"target":34962,"buffer":0,"byteLength":48,"byteOffset":1312},{"target":34962,"buffer":0,"byteLength":32,"byteOffset":1360},{"target":34963,"buffer":0,"byteLength":36,"byteOffset":1392},{"target":34962,"buffer":0,"byteLength":48,"byteOffset":1428},{"target":34962,"buffer":0,"byteLength":32,"byteOffset":1476},{"target":34963,"buffer":0,"byteLength":36,"byteOffset":1508},{"target":34962,"buffer":0,"byteLength":36,"byteOffset":1544},{"target":34962,"buffer":0,"byteLength":24,"byteOffset":1580},{"target":34963,"buffer":0,"byteLength":18,"byteOffset":1604},{"target":34962,"buffer":0,"byteLength":36,"byteOffset":1624},{"target":34963,"buffer":0,"byteLength":6,"byteOffset":1660},{"target":34962,"buffer":0,"byteLength":36,"byteOffset":1668},{"target":34962,"buffer":0,"byteLength":24,"byteOffset":1704},{"target":34963,"buffer":0,"byteLength":18,"byteOffset":1728},{"target":34962,"buffer":0,"byteLength":36,"byteOffset":1748},{"target":34963,"buffer":0,"byteLength":6,"byteOffset":1784},{"target":34962,"buffer":0,"byteLength":36,"byteOffset":1792},{"target":34963,"buffer":0,"byteLength":6,"byteOffset":1828},{"target":34962,"buffer":0,"byteLength":48,"byteOffset":1836},{"target":34962,"buffer":0,"byteLength":32,"byteOffset":1884},{"target":34963,"buffer":0,"byteLength":36,"byteOffset":1916},{"target":34962,"buffer":0,"byteLength":48,"byteOffset":1952},{"target":34962,"buffer":0,"byteLength":32,"byteOffset":2000},{"target":34963,"buffer":0,"byteLength":36,"byteOffset":2032},{"target":34962,"buffer":0,"byteLength":48,"byteOffset":2068},{"target":34962,"buffer":0,"byteLength":32,"byteOffset":2116},{"target":34963,"buffer":0,"byteLength":36,"byteOffset":2148},{"target":34962,"buffer":0,"byteLength":132,"byteOffset":2184},{"target":34962,"buffer":0,"byteLength":88,"byteOffset":2316},{"target":34963,"buffer":0,"byteLength":90,"byteOffset":2404},{"target":34962,"buffer":0,"byteLength":48,"byteOffset":2496},{"target":34962,"buffer":0,"byteLength":32,"byteOffset":2544},{"target":34963,"buffer":0,"byteLength":36,"byteOffset":2576},{"target":34962,"buffer":0,"byteLength":48,"byteOffset":2612},{"target":34962,"buffer":0,"byteLength":32,"byteOffset":2660},{"target":34963,"buffer":0,"byteLength":36,"byteOffset":2692},{"target":34962,"buffer":0,"byteLength":48,"byteOffset":2728},{"target":34962,"buffer":0,"byteLength":48,"byteOffset":2776},{"target":34962,"buffer":0,"byteLength":32,"byteOffset":2824},{"target":34963,"buffer":0,"byteLength":36,"byteOffset":2856}],"buffers":[{"byteLength":2892,"uri":"data:application/octet-stream;base64,"}]}