{"scene":0,"asset":{"generator":"ImageToStl.com","version":"2.0"},"scenes":[{"name":"Scene","nodes":[0]}],"nodes":[{"name":"Node0","children":[1,2,3,4,5,6,7,8,9,10,11,12]},{"name":"Node1","mesh":0},{"name":"Node2","mesh":1},{"name":"Node3","mesh":2},{"name":"Node4","mesh":3},{"name":"Node5","mesh":4},{"name":"Node6","mesh":5},{"name":"Node7","mesh":6},{"name":"Node8","mesh":7},{"name":"Node9","mesh":8},{"name":"Node10","mesh":9},{"name":"Node11","mesh":10},{"name":"Node12","mesh":11}],"materials":[{"name":"Wood","pbrMetallicRoughness":{"baseColorFactor":[0.666667,0.545098,0.356863,1.0],"metallicFactor":0.33,"roughnessFactor":1.0},"doubleSided":true}],"meshes":[{"name":"Mesh0","primitives":[{"indices":3,"material":0,"attributes":{"POSITION":0,"NORMAL":1,"TEXCOORD_0":2}}]},{"name":"Mesh0","primitives":[{"indices":7,"material":0,"attributes":{"POSITION":4,"NORMAL":5,"TEXCOORD_0":6}}]},{"name":"Mesh0","primitives":[{"indices":11,"material":0,"attributes":{"POSITION":8,"NORMAL":9,"TEXCOORD_0":10}}]},{"name":"Mesh0","primitives":[{"indices":15,"material":0,"attributes":{"POSITION":12,"NORMAL":13,"TEXCOORD_0":14}}]},{"name":"Mesh0","primitives":[{"indices":19,"material":0,"attributes":{"POSITION":16,"NORMAL":17,"TEXCOORD_0":18}}]},{"name":"Mesh0","primitives":[{"indices":23,"material":0,"attributes":{"POSITION":20,"NORMAL":21,"TEXCOORD_0":22}}]},{"name":"Mesh0","primitives":[{"indices":27,"material":0,"attributes":{"POSITION":24,"NORMAL":25,"TEXCOORD_0":26}}]},{"name":"Mesh0","primitives":[{"indices":31,"material":0,"attributes":{"POSITION":28,"NORMAL":29,"TEXCOORD_0":30}}]},{"name":"Mesh0","primitives":[{"indices":34,"material":0,"attributes":{"POSITION":32,"TEXCOORD_0":33}}]},{"name":"Mesh0","primitives":[{"indices":38,"material":0,"attributes":{"POSITION":35,"NORMAL":36,"TEXCOORD_0":37}}]},{"name":"Mesh0","primitives":[{"indices":42,"material":0,"attributes":{"POSITION":39,"NORMAL":40,"TEXCOORD_0":41}}]},{"name":"Mesh0","primitives":[{"indices":46,"material":0,"attributes":{"POSITION":43,"NORMAL":44,"TEXCOORD_0":45}}]}],"accessors":[{"bufferView":0,"componentType":5126,"count":4,"type":"VEC3","min":[0.0,0.0,-3.0],"max":[0.5,0.55,-3.0]},{"bufferView":1,"componentType":5126,"count":4,"type":"VEC3"},{"bufferView":2,"componentType":5126,"count":4,"type":"VEC2"},{"bufferView":3,"componentType":5123,"count":18,"type":"SCALAR"},{"bufferView":4,"componentType":5126,"count":4,"type":"VEC3","min":[2.88765E-15,0.55,-3.0],"max":[0.5,1.1,-2.5]},{"bufferView":5,"componentType":5126,"count":4,"type":"VEC3"},{"bufferView":6,"componentType":5126,"count":4,"type":"VEC2"},{"bufferView":7,"componentType":5123,"count":18,"type":"SCALAR"},{"bufferView":8,"componentType":5126,"count":4,"type":"VEC3","min":[0.0,0.0,-3.0],"max":[2.88765E-15,1.1,-2.5]},{"bufferView":9,"componentType":5126,"count":4,"type":"VEC3"},{"bufferView":10,"componentType":5126,"count":4,"type":"VEC2"},{"bufferView":11,"componentType":5123,"count":18,"type":"SCALAR"},{"bufferView":12,"componentType":5126,"count":4,"type":"VEC3","min":[2.88765E-15,0.0,-2.5],"max":[0.5,1.1,-2.5]},{"bufferView":13,"componentType":5126,"count":4,"type":"VEC3"},{"bufferView":14,"componentType":5126,"count":4,"type":"VEC2"},{"bufferView":15,"componentType":5123,"count":18,"type":"SCALAR"},{"bufferView":16,"componentType":5126,"count":4,"type":"VEC3","min":[0.0,0.0,-3.0],"max":[0.5,0.0,-2.5]},{"bufferView":17,"componentType":5126,"count":4,"type":"VEC3"},{"bufferView":18,"componentType":5126,"count":4,"type":"VEC2"},{"bufferView":19,"componentType":5123,"count":18,"type":"SCALAR"},{"bufferView":20,"componentType":5126,"count":4,"type":"VEC3","min":[0.5,0.0,-3.0],"max":[0.5,1.1,-2.5]},{"bufferView":21,"componentType":5126,"count":4,"type":"VEC3"},{"bufferView":22,"componentType":5126,"count":4,"type":"VEC2"},{"bufferView":23,"componentType":5123,"count":18,"type":"SCALAR"},{"bufferView":24,"componentType":5126,"count":4,"type":"VEC3","min":[0.0,0.0,-2.88765E-15],"max":[0.5,0.55,0.0]},{"bufferView":25,"componentType":5126,"count":4,"type":"VEC3"},{"bufferView":26,"componentType":5126,"count":4,"type":"VEC2"},{"bufferView":27,"componentType":5123,"count":18,"type":"SCALAR"},{"bufferView":28,"componentType":5126,"count":4,"type":"VEC3","min":[0.5,0.0,-0.5],"max":[0.5,1.1,0.0]},{"bufferView":29,"componentType":5126,"count":4,"type":"VEC3"},{"bufferView":30,"componentType":5126,"count":4,"type":"VEC2"},{"bufferView":31,"componentType":5123,"count":18,"type":"SCALAR"},{"bufferView":32,"componentType":5126,"count":4,"type":"VEC3","min":[0.0,0.0,-0.5],"max":[0.5,0.0,0.0]},{"bufferView":33,"componentType":5126,"count":4,"type":"VEC2"},{"bufferView":34,"componentType":5123,"count":18,"type":"SCALAR"},{"bufferView":35,"componentType":5126,"count":4,"type":"VEC3","min":[0.0,0.0,-0.5],"max":[0.5,1.1,-0.5]},{"bufferView":36,"componentType":5126,"count":4,"type":"VEC3"},{"bufferView":37,"componentType":5126,"count":4,"type":"VEC2"},{"bufferView":38,"componentType":5123,"count":18,"type":"SCALAR"},{"bufferView":39,"componentType":5126,"count":4,"type":"VEC3","min":[0.0,0.55,-0.5],"max":[0.5,1.1,-2.88765E-15]},{"bufferView":40,"componentType":5126,"count":4,"type":"VEC3"},{"bufferView":41,"componentType":5126,"count":4,"type":"VEC2"},{"bufferView":42,"componentType":5123,"count":18,"type":"SCALAR"},{"bufferView":43,"componentType":5126,"count":4,"type":"VEC3","min":[0.0,0.0,-0.5],"max":[2.88765E-15,1.1,0.0]},{"bufferView":44,"componentType":5126,"count":4,"type":"VEC3"},{"bufferView":45,"componentType":5126,"count":4,"type":"VEC2"},{"bufferView":46,"componentType":5123,"count":18,"type":"SCALAR"}],"bufferViews":[{"target":34962,"buffer":0,"byteLength":48,"byteOffset":0},{"target":34962,"buffer":0,"byteLength":48,"byteOffset":48},{"target":34962,"buffer":0,"byteLength":32,"byteOffset":96},{"target":34963,"buffer":0,"byteLength":36,"byteOffset":128},{"target":34962,"buffer":0,"byteLength":48,"byteOffset":164},{"target":34962,"buffer":0,"byteLength":48,"byteOffset":212},{"target":34962,"buffer":0,"byteLength":32,"byteOffset":260},{"target":34963,"buffer":0,"byteLength":36,"byteOffset":292},{"target":34962,"buffer":0,"byteLength":48,"byteOffset":328},{"target":34962,"buffer":0,"byteLength":48,"byteOffset":376},{"target":34962,"buffer":0,"byteLength":32,"byteOffset":424},{"target":34963,"buffer":0,"byteLength":36,"byteOffset":456},{"target":34962,"buffer":0,"byteLength":48,"byteOffset":492},{"target":34962,"buffer":0,"byteLength":48,"byteOffset":540},{"target":34962,"buffer":0,"byteLength":32,"byteOffset":588},{"target":34963,"buffer":0,"byteLength":36,"byteOffset":620},{"target":34962,"buffer":0,"byteLength":48,"byteOffset":656},{"target":34962,"buffer":0,"byteLength":48,"byteOffset":704},{"target":34962,"buffer":0,"byteLength":32,"byteOffset":752},{"target":34963,"buffer":0,"byteLength":36,"byteOffset":784},{"target":34962,"buffer":0,"byteLength":48,"byteOffset":820},{"target":34962,"buffer":0,"byteLength":48,"byteOffset":868},{"target":34962,"buffer":0,"byteLength":32,"byteOffset":916},{"target":34963,"buffer":0,"byteLength":36,"byteOffset":948},{"target":34962,"buffer":0,"byteLength":48,"byteOffset":984},{"target":34962,"buffer":0,"byteLength":48,"byteOffset":1032},{"target":34962,"buffer":0,"byteLength":32,"byteOffset":1080},{"target":34963,"buffer":0,"byteLength":36,"byteOffset":1112},{"target":34962,"buffer":0,"byteLength":48,"byteOffset":1148},{"target":34962,"buffer":0,"byteLength":48,"byteOffset":1196},{"target":34962,"buffer":0,"byteLength":32,"byteOffset":1244},{"target":34963,"buffer":0,"byteLength":36,"byteOffset":1276},{"target":34962,"buffer":0,"byteLength":48,"byteOffset":1312},{"target":34962,"buffer":0,"byteLength":32,"byteOffset":1360},{"target":34963,"buffer":0,"byteLength":36,"byteOffset":1392},{"target":34962,"buffer":0,"byteLength":48,"byteOffset":1428},{"target":34962,"buffer":0,"byteLength":48,"byteOffset":1476},{"target":34962,"buffer":0,"byteLength":32,"byteOffset":1524},{"target":34963,"buffer":0,"byteLength":36,"byteOffset":1556},{"target":34962,"buffer":0,"byteLength":48,"byteOffset":1592},{"target":34962,"buffer":0,"byteLength":48,"byteOffset":1640},{"target":34962,"buffer":0,"byteLength":32,"byteOffset":1688},{"target":34963,"buffer":0,"byteLength":36,"byteOffset":1720},{"target":34962,"buffer":0,"byteLength":48,"byteOffset":1756},{"target":34962,"buffer":0,"byteLength":48,"byteOffset":1804},{"target":34962,"buffer":0,"byteLength":32,"byteOffset":1852},{"target":34963,"buffer":0,"byteLength":36,"byteOffset":1884}],"buffers":[{"byteLength":1920,"uri":"data:application/octet-stream;base64,"}]}